{"glyphs":{"0":{"ha":813,"x_min":76,"x_max":738,"o":"m 738 356 q 716 213 738 282 q 653 91 694 144 q 549 5 611 38 q 407 -28 488 -28 q 260 4 322 -28 q 157 90 197 36 q 97 213 117 143 q 76 356 76 282 q 97 499 76 431 q 157 621 117 568 q 260 705 197 674 q 407 736 322 736 q 549 704 488 736 q 653 619 611 672 q 716 498 694 567 q 738 356 738 429 m 604 356 q 553 601 604 518 q 408 685 501 685 q 261 601 313 685 q 210 356 210 518 q 261 108 210 193 q 408 24 313 24 q 553 108 501 24 q 604 356 604 193 z "},"1":{"ha":594,"x_min":71,"x_max":586,"o":"m 103 613 q 83 623 88 613 q 78 646 78 633 q 89 674 79 671 q 114 676 99 676 q 188 685 149 676 q 260 704 226 693 q 319 726 293 715 q 353 740 344 736 q 376 741 364 744 q 389 711 389 738 l 389 185 q 397 113 389 139 q 424 75 406 88 q 474 60 443 63 q 550 57 506 57 q 575 56 565 57 q 586 29 585 54 q 581 6 586 17 q 561 -4 576 -4 q 503 -2 536 -3 q 438 -1 471 -1 q 375 0 404 0 q 328 0 346 0 q 281 0 310 0 q 219 -1 251 0 q 153 -2 186 -1 q 96 -4 121 -3 q 76 6 81 -4 q 71 29 71 17 q 82 56 72 54 q 107 57 92 57 q 183 60 151 57 q 233 75 214 63 q 260 113 251 88 q 268 185 268 139 l 268 474 q 263 563 269 533 q 238 602 257 592 q 187 612 219 613 q 103 613 154 611 z "},"2":{"ha":682,"x_min":64,"x_max":626,"o":"m 83 567 q 107 643 83 611 q 167 696 131 675 q 247 726 203 717 q 333 736 292 736 q 425 725 379 736 q 507 689 471 714 q 566 624 543 664 q 589 528 589 585 q 545 386 589 447 q 439 276 501 325 q 307 185 376 226 q 188 106 238 144 l 188 99 l 560 99 q 607 92 588 99 q 626 50 626 86 q 615 13 626 26 q 578 0 604 0 l 113 0 q 74 13 85 0 q 64 50 64 26 q 82 100 67 82 q 128 138 97 118 q 237 213 179 172 q 343 302 294 253 q 424 411 392 351 q 456 546 456 471 q 420 649 456 613 q 321 686 385 686 q 232 660 268 686 q 196 585 196 633 q 203 553 196 567 q 219 531 210 540 q 235 515 228 521 q 242 508 242 510 q 225 486 242 501 q 178 471 208 471 q 108 499 133 471 q 83 567 83 526 z "},"3":{"ha":676,"x_min":71,"x_max":600,"o":"m 269 343 q 253 351 258 343 q 249 371 249 360 q 253 392 249 382 q 269 403 258 401 l 321 403 q 408 452 376 408 q 440 556 440 496 q 413 649 440 611 q 317 688 385 688 q 235 665 269 688 q 200 593 200 642 q 207 562 200 575 q 223 540 214 549 q 239 527 232 532 q 246 521 246 522 q 229 499 246 514 q 182 483 213 483 q 112 512 136 483 q 88 582 88 540 q 108 651 88 622 q 163 699 129 681 q 237 727 196 718 q 319 736 278 736 q 408 727 364 736 q 488 697 453 718 q 545 642 524 676 q 567 556 567 607 q 528 450 567 501 q 408 376 490 399 l 408 371 q 472 358 439 368 q 534 328 506 349 q 581 275 563 308 q 600 192 600 242 q 576 89 600 131 q 512 22 551 47 q 420 -16 472 -4 q 313 -28 368 -28 q 228 -19 271 -28 q 151 7 186 -11 q 93 55 115 25 q 71 128 71 85 q 94 195 71 164 q 165 226 117 226 q 213 211 196 226 q 229 189 229 196 q 222 182 229 186 q 206 169 215 178 q 190 148 197 161 q 183 115 183 135 q 220 47 183 71 q 315 24 257 24 q 373 33 346 24 q 421 63 400 43 q 453 113 442 82 q 465 189 465 144 q 431 297 465 254 q 321 343 396 339 l 269 343 z "},"4":{"ha":689,"x_min":21,"x_max":639,"o":"m 518 10 q 499 -10 518 -3 q 458 -17 481 -17 q 418 -10 436 -17 q 397 10 400 -3 l 397 222 l 65 222 q 31 237 42 222 q 21 271 21 251 q 31 301 21 289 l 421 728 q 441 739 429 736 q 464 742 453 742 q 500 731 483 742 q 518 693 517 719 l 518 290 l 601 290 q 627 287 617 290 q 639 257 638 283 q 633 233 639 243 q 613 222 628 222 l 518 222 l 518 10 m 397 290 l 397 619 l 101 290 l 397 290 z "},"5":{"ha":674,"x_min":68,"x_max":599,"o":"m 179 358 q 158 344 172 353 q 131 336 143 336 q 117 342 121 336 q 110 358 113 349 q 109 376 108 367 q 110 392 110 386 l 153 722 l 507 722 q 533 722 521 722 q 553 718 544 722 q 568 704 563 714 q 575 675 574 694 q 564 640 575 656 q 525 624 553 624 l 217 624 l 188 431 q 255 458 217 447 q 338 469 293 469 q 425 456 379 469 q 509 413 471 442 q 573 337 547 383 q 599 226 599 290 q 571 117 599 164 q 499 37 543 69 q 401 -12 456 4 q 296 -28 347 -28 q 244 -24 276 -28 q 176 -6 211 -19 q 113 31 142 7 q 74 97 83 56 q 72 145 68 121 q 87 190 75 169 q 119 222 99 210 q 165 235 139 235 q 213 219 196 235 q 229 197 229 204 q 222 190 229 194 q 206 175 215 185 q 190 152 197 165 q 183 121 183 139 q 194 79 183 97 q 221 49 204 61 q 258 29 238 36 q 299 22 278 22 q 370 40 339 22 q 422 85 401 57 q 454 149 443 114 q 465 219 465 183 q 457 289 465 256 q 431 348 449 322 q 383 390 413 374 q 311 408 353 407 q 244 395 276 410 q 179 358 211 381 z "},"6":{"ha":707,"x_min":74,"x_max":647,"o":"m 524 686 q 317 571 389 644 q 221 401 244 497 q 314 445 269 433 q 406 457 358 457 q 500 440 456 457 q 577 392 544 422 q 628 319 610 361 q 647 226 647 276 q 623 122 647 168 q 559 42 599 75 q 468 -10 519 8 q 363 -28 417 -28 q 244 -7 297 -28 q 153 53 190 14 q 94 149 115 93 q 74 278 74 206 q 105 439 74 363 q 192 576 136 515 q 327 680 249 638 q 500 739 406 722 q 535 738 522 742 q 549 715 549 735 q 544 699 549 708 q 524 686 539 690 m 514 214 q 471 346 514 297 q 358 394 428 394 q 285 377 322 394 q 215 331 247 360 q 210 307 213 322 q 207 276 207 292 q 215 195 207 240 q 240 110 222 150 q 287 44 257 71 q 363 17 317 17 q 471 71 428 17 q 514 214 514 125 z "},"7":{"ha":592,"x_min":56,"x_max":567,"o":"m 178 32 q 193 103 178 58 q 233 201 208 147 q 288 315 257 256 q 351 432 319 375 q 410 540 382 489 q 458 626 439 590 l 215 626 q 173 624 190 626 q 143 611 156 621 q 123 582 131 601 q 111 529 115 563 q 103 513 108 518 q 79 508 97 508 q 56 532 56 508 l 61 694 q 74 719 61 714 q 101 725 86 725 l 525 725 q 559 715 551 725 q 564 690 567 706 q 552 658 561 675 q 535 626 543 640 q 456 470 493 556 q 388 301 419 385 q 329 142 356 217 q 281 17 303 67 q 254 -18 269 -8 q 224 -28 239 -28 q 192 -13 207 -28 q 178 32 178 1 z "},"8":{"ha":713,"x_min":75,"x_max":636,"o":"m 224 561 q 240 510 224 533 q 283 468 256 488 q 346 432 310 449 q 421 399 382 415 q 478 466 458 426 q 499 547 499 506 q 490 601 499 575 q 465 646 482 626 q 422 677 447 665 q 361 689 396 689 q 260 652 296 689 q 224 561 224 615 m 636 182 q 615 102 636 140 q 556 35 594 64 q 465 -11 518 6 q 346 -28 411 -28 q 233 -12 283 -28 q 148 30 183 3 q 94 94 113 57 q 75 175 75 131 q 117 283 75 239 q 238 361 160 328 q 140 443 171 401 q 108 538 108 485 q 130 616 108 579 q 188 679 151 653 q 270 721 224 706 q 368 736 317 736 q 465 722 421 736 q 540 681 508 707 q 590 621 572 656 q 607 546 607 586 q 468 374 607 444 q 598 292 560 335 q 636 182 636 249 m 511 157 q 495 213 511 189 q 451 258 479 238 q 381 297 422 278 q 290 339 340 317 q 224 270 249 311 q 200 181 200 229 q 243 63 200 108 q 358 18 286 18 q 470 58 429 18 q 511 157 511 97 z "},"9":{"ha":706,"x_min":58,"x_max":632,"o":"m 182 22 q 389 138 317 64 q 485 307 461 211 q 392 263 436 275 q 300 251 347 251 q 206 269 250 251 q 128 317 161 286 q 77 390 96 347 q 58 482 58 432 q 83 587 58 540 q 147 667 107 633 q 238 718 186 700 q 343 736 289 736 q 462 715 408 736 q 553 655 515 694 q 611 559 590 615 q 632 431 632 503 q 601 269 632 344 q 513 132 569 193 q 378 28 457 71 q 206 -31 300 -14 q 170 -30 183 -33 q 157 -7 157 -26 q 162 9 157 0 q 182 22 167 18 m 192 494 q 235 363 192 411 q 347 314 278 314 q 421 331 383 314 q 490 378 458 349 q 496 401 493 386 q 499 432 499 417 q 491 513 499 468 q 466 598 483 558 q 419 665 449 638 q 343 692 389 692 q 235 638 278 692 q 192 494 192 583 z "}," ":{"ha":310,"x_min":0,"x_max":0,"o":""},"!":{"ha":364,"x_min":93,"x_max":271,"o":"m 181 -17 q 118 8 143 -17 q 93 72 93 32 q 118 134 93 108 q 182 160 143 160 q 246 134 221 160 q 271 72 271 108 q 246 8 271 32 q 181 -17 221 -17 m 215 307 q 205 292 215 296 q 182 288 194 288 q 160 292 171 288 q 149 307 149 297 q 142 410 149 350 q 128 535 136 469 q 113 668 119 601 q 107 792 107 735 q 123 908 107 863 q 182 954 139 954 q 241 908 225 954 q 257 792 257 863 q 251 668 257 735 q 236 535 244 601 q 222 410 228 469 q 215 307 215 350 z "},"\"":{"ha":471,"x_min":63,"x_max":407,"o":"m 154 567 q 147 555 154 558 q 129 551 139 551 q 113 556 121 551 q 104 567 104 560 q 96 631 103 594 q 82 707 89 668 q 69 785 75 746 q 63 857 63 824 q 77 928 63 900 q 129 956 92 956 q 181 928 167 956 q 194 858 194 901 q 189 786 194 825 q 176 708 183 747 q 162 631 168 668 q 154 567 156 594 m 367 567 q 359 555 367 558 q 342 551 351 551 q 325 556 333 551 q 317 567 317 560 q 308 631 315 594 q 294 707 301 668 q 281 785 288 746 q 275 857 275 824 q 290 928 275 900 q 342 956 304 956 q 393 928 379 956 q 407 858 407 901 q 401 786 407 825 q 388 708 396 747 q 374 631 381 668 q 367 567 368 594 z "},"#":{"ha":856,"x_min":58,"x_max":797,"o":"m 346 553 l 297 324 l 513 324 l 560 553 l 346 553 m 624 850 q 658 876 631 876 q 685 869 674 876 q 699 850 697 863 l 651 629 l 771 629 q 790 615 783 628 q 797 588 797 603 q 790 564 797 575 q 771 553 783 553 l 636 553 l 588 324 l 715 324 q 735 310 728 322 q 742 282 742 297 q 735 258 742 269 q 715 247 728 247 l 574 247 l 526 25 q 514 7 524 14 q 493 0 504 0 q 465 7 476 0 q 451 25 453 14 l 499 247 l 282 247 l 236 26 q 224 7 233 14 q 201 0 214 0 q 174 7 186 0 q 160 26 161 14 l 206 247 l 85 247 q 65 258 72 247 q 58 282 58 269 q 65 310 58 297 q 85 324 72 322 l 222 324 l 271 553 l 140 553 q 121 564 128 553 q 114 588 114 575 q 121 615 114 603 q 140 629 128 628 l 286 629 l 333 851 q 346 869 336 863 q 367 876 356 876 q 395 869 383 876 q 408 851 407 863 l 361 629 l 574 629 l 624 850 z "},"$":{"ha":694,"x_min":81,"x_max":625,"o":"m 363 -92 q 335 -124 363 -124 q 308 -92 308 -124 l 308 -18 l 290 -18 q 242 -15 272 -18 q 180 1 211 -11 q 122 37 149 14 q 85 99 94 60 q 84 142 81 119 q 98 183 88 165 q 126 213 108 201 q 168 225 144 225 q 212 211 197 225 q 226 190 226 197 q 220 183 226 188 q 206 169 214 178 q 192 149 199 161 q 186 119 186 136 q 198 80 188 96 q 225 53 208 64 q 263 37 242 43 q 308 29 285 31 l 308 357 q 228 392 268 374 q 158 435 189 411 q 107 493 126 460 q 86 574 88 526 q 101 653 85 618 q 147 715 117 689 q 219 758 178 742 q 308 782 260 775 l 308 857 q 335 889 308 889 q 363 857 363 889 l 363 786 l 368 786 q 415 783 385 786 q 477 767 446 779 q 535 731 508 754 q 571 669 561 708 q 573 626 576 649 q 558 585 569 603 q 529 555 547 567 q 488 543 511 543 q 444 557 460 543 q 428 578 428 571 q 435 585 428 579 q 449 599 442 590 q 464 619 457 607 q 471 649 471 632 q 460 687 471 671 q 435 713 450 703 q 400 729 419 724 q 363 736 381 735 l 363 458 q 451 419 406 442 q 535 366 497 396 q 597 297 572 336 q 624 210 622 258 q 558 40 625 93 q 363 -18 492 -12 l 363 -92 m 514 157 q 502 218 514 192 q 469 265 490 244 q 421 302 449 286 q 363 332 393 318 l 363 29 q 468 68 424 36 q 514 157 513 100 m 189 619 q 199 562 189 585 q 225 523 208 539 q 263 497 242 507 q 308 479 285 488 l 308 735 q 217 692 246 725 q 189 619 189 660 z "},"%":{"ha":1078,"x_min":61,"x_max":1018,"o":"m 799 442 q 889 423 849 442 q 958 373 929 404 q 1002 301 986 342 q 1018 214 1018 260 q 998 110 1018 156 q 946 35 978 65 q 875 -12 914 4 q 799 -28 836 -28 q 709 -9 749 -28 q 641 42 669 10 q 597 115 613 74 q 582 203 582 157 q 602 306 582 261 q 653 381 622 350 q 723 426 685 411 q 799 442 761 442 m 799 32 q 853 47 831 32 q 888 86 875 61 q 908 144 901 111 q 914 214 914 178 q 908 278 914 247 q 888 333 901 310 q 853 371 875 357 q 799 385 831 385 q 744 370 765 385 q 709 331 722 356 q 691 273 696 306 q 686 204 686 240 q 692 140 686 171 q 710 84 697 108 q 745 46 724 60 q 799 32 767 32 m 278 901 q 368 883 328 901 q 437 833 408 864 q 481 760 465 801 q 496 675 496 719 q 476 572 496 617 q 424 496 456 526 q 353 449 392 465 q 278 433 315 433 q 188 452 228 433 q 119 503 147 471 q 76 576 92 535 q 61 664 61 618 q 81 766 61 722 q 133 840 101 810 q 202 886 164 871 q 278 901 240 901 m 278 492 q 332 506 310 492 q 367 546 354 521 q 387 604 381 571 q 393 675 393 638 q 387 740 393 708 q 367 794 381 771 q 332 831 354 817 q 278 844 310 844 q 222 830 244 844 q 187 791 200 815 q 169 734 174 767 q 164 665 164 701 q 169 599 164 631 q 188 544 175 568 q 224 506 201 519 q 278 492 246 492 m 226 8 q 202 -8 214 -6 q 178 -7 190 -11 q 154 15 163 0 q 157 43 146 29 l 828 857 q 854 874 840 872 q 879 872 868 875 q 903 851 896 865 q 900 821 911 836 l 226 8 z "},"&":{"ha":1215,"x_min":57,"x_max":1200,"o":"m 901 396 q 890 469 901 433 q 858 533 879 506 q 806 578 838 561 q 735 596 775 596 q 697 590 718 596 q 658 574 676 585 q 628 545 640 563 q 618 504 617 528 q 631 469 619 485 q 665 450 642 454 q 698 453 683 447 q 723 465 713 458 q 740 477 733 471 q 749 483 746 483 q 767 463 756 482 q 775 414 779 443 q 742 356 769 376 q 678 336 715 336 q 593 378 625 336 q 561 488 561 421 q 589 605 561 560 q 660 677 617 650 q 760 717 704 704 q 874 738 817 731 q 983 751 931 744 q 1075 769 1036 757 q 1126 801 1106 781 q 1146 849 1147 821 q 1133 878 1144 865 q 1094 894 1122 890 q 1062 891 1076 896 q 1037 880 1047 886 q 1019 867 1026 874 q 1011 861 1013 861 q 992 882 1004 863 q 985 931 981 901 q 1005 976 989 958 q 1042 1001 1021 993 q 1088 1009 1064 1010 q 1135 999 1113 1008 q 1186 944 1172 981 q 1199 871 1200 907 q 1169 769 1197 814 q 1092 692 1140 724 q 979 645 1043 661 q 844 629 915 629 q 933 523 903 581 q 964 394 964 465 q 927 216 964 294 q 826 83 890 138 q 674 -1 761 28 q 488 -28 588 -29 q 328 -5 406 -26 q 190 62 250 17 q 93 176 129 107 q 57 342 57 246 q 72 435 57 390 q 115 517 86 481 q 186 579 143 554 q 286 614 229 604 l 286 618 q 219 693 240 653 q 199 781 199 733 q 265 928 199 872 q 449 983 331 983 q 522 975 486 983 q 585 949 558 967 q 629 903 613 931 q 646 839 646 876 q 622 764 646 797 q 551 731 597 731 q 504 746 521 731 q 488 768 488 761 q 494 775 488 769 q 510 790 501 781 q 526 813 519 800 q 533 844 533 826 q 504 910 533 886 q 433 933 475 933 q 328 891 363 933 q 293 793 293 849 q 378 646 293 692 l 424 646 q 451 643 440 646 q 463 613 461 640 q 456 590 463 600 q 436 579 450 579 l 388 579 q 305 555 339 575 q 248 505 271 535 q 215 438 225 475 q 204 364 204 401 q 228 241 204 296 q 296 148 253 186 q 399 90 339 110 q 531 69 460 69 q 674 94 607 69 q 792 161 742 118 q 872 265 843 204 q 901 396 901 325 z "},"'":{"ha":258,"x_min":63,"x_max":194,"o":"m 154 567 q 147 555 154 558 q 129 551 139 551 q 113 556 121 551 q 104 567 104 560 q 96 631 103 594 q 82 707 89 668 q 69 785 75 746 q 63 857 63 824 q 77 928 63 900 q 129 956 92 956 q 181 928 167 956 q 194 858 194 901 q 189 786 194 825 q 176 708 183 747 q 162 631 168 668 q 154 567 156 594 z "},"(":{"ha":407,"x_min":50,"x_max":401,"o":"m 357 -229 q 128 36 206 -125 q 50 392 50 197 q 128 744 50 583 q 358 1011 207 904 q 381 1015 372 1019 q 393 1000 389 1010 q 383 963 401 979 q 297 854 336 917 q 228 718 257 792 q 184 561 200 644 q 168 390 168 478 q 184 219 168 303 q 228 63 200 136 q 295 -73 256 -11 q 382 -181 335 -135 q 392 -218 400 -197 q 379 -233 388 -228 q 357 -229 371 -237 z "},")":{"ha":407,"x_min":6,"x_max":357,"o":"m 50 -229 q 28 -233 36 -237 q 15 -218 19 -228 q 25 -181 7 -197 q 112 -73 72 -135 q 179 63 151 -11 q 223 219 207 136 q 239 390 239 303 q 223 561 239 478 q 178 718 207 644 q 110 854 150 792 q 24 963 71 917 q 14 1000 6 979 q 26 1015 18 1010 q 49 1011 35 1019 q 278 744 200 904 q 357 392 357 583 q 279 36 357 197 q 50 -229 201 -125 z "},"*":{"ha":731,"x_min":60,"x_max":671,"o":"m 306 976 q 318 942 314 961 q 326 899 322 924 q 336 845 329 875 q 358 779 343 815 l 371 781 q 394 844 388 815 q 403 898 400 874 q 409 942 406 922 q 421 976 413 961 q 465 1010 439 1004 q 514 1003 492 1015 q 547 967 538 992 q 538 914 556 942 q 513 885 529 897 q 477 858 497 872 q 434 823 457 843 q 388 771 411 803 l 392 760 q 463 774 433 765 q 517 793 493 783 q 559 810 540 803 q 596 817 578 817 q 651 797 632 817 q 669 753 671 778 q 650 708 669 728 q 596 689 631 689 q 559 695 578 689 q 517 710 540 701 q 463 728 493 719 q 393 742 433 738 l 385 733 q 434 683 410 703 q 478 648 458 663 q 515 621 499 633 q 539 594 531 608 q 549 540 556 564 q 521 501 543 515 q 468 494 496 488 q 424 528 440 501 q 410 562 414 543 q 403 605 407 581 q 392 658 399 629 q 369 724 385 688 l 357 722 q 334 658 340 686 q 324 605 328 629 q 318 562 321 581 q 307 528 315 543 q 265 494 292 499 q 217 501 238 489 q 183 538 193 513 q 192 590 172 563 q 215 618 200 606 q 251 645 231 631 q 294 680 271 660 q 340 732 317 700 l 336 743 q 265 729 296 739 q 211 710 235 719 q 169 694 188 701 q 132 688 150 688 q 79 706 99 686 q 61 751 60 726 q 79 796 60 776 q 132 815 99 815 q 169 808 150 815 q 213 792 189 801 q 265 774 236 783 q 336 761 294 765 l 344 769 q 294 821 318 800 q 249 856 269 842 q 214 883 229 871 q 189 910 199 894 q 181 965 174 940 q 210 1003 188 989 q 260 1010 233 1017 q 306 976 288 1003 z "},"+":{"ha":786,"x_min":50,"x_max":736,"o":"m 350 665 q 364 690 350 681 q 394 700 378 700 q 424 690 410 700 q 438 665 438 681 l 438 404 l 706 404 q 728 392 719 404 q 736 367 736 381 q 728 341 736 353 q 706 329 719 329 l 438 329 l 438 35 q 424 10 438 19 q 393 0 410 0 q 364 10 378 0 q 350 35 350 19 l 350 329 l 81 329 q 58 341 67 329 q 50 367 50 353 q 58 392 50 381 q 81 404 67 404 l 350 404 l 350 665 z "},",":{"ha":329,"x_min":33,"x_max":272,"o":"m 63 135 q 83 183 63 161 q 132 204 103 204 q 188 190 163 204 q 233 151 214 175 q 262 97 251 126 q 272 39 272 68 q 253 -38 272 -4 q 206 -97 235 -72 q 140 -140 176 -122 q 67 -167 103 -157 q 48 -166 56 -171 q 37 -153 40 -161 q 35 -136 33 -144 q 49 -124 38 -128 q 137 -72 107 -101 q 167 0 167 -42 q 151 40 167 25 q 115 69 135 56 q 78 97 94 82 q 63 135 63 111 z "},"-":{"ha":535,"x_min":83,"x_max":451,"o":"m 115 276 q 92 292 100 276 q 83 321 83 307 q 92 351 83 336 q 115 365 100 365 l 419 365 q 443 351 435 365 q 451 321 451 336 q 443 292 451 307 q 419 276 435 276 l 115 276 z "},".":{"ha":308,"x_min":65,"x_max":243,"o":"m 153 -17 q 90 7 115 -17 q 65 71 65 31 q 90 132 65 107 q 154 157 115 157 q 217 132 192 157 q 243 71 243 107 q 217 7 243 31 q 153 -17 192 -17 z "},"/":{"ha":547,"x_min":44,"x_max":503,"o":"m 122 -246 q 103 -267 117 -261 q 78 -271 90 -274 q 53 -257 63 -268 q 47 -231 44 -246 l 422 951 q 441 974 428 967 q 468 978 454 981 q 493 963 483 975 q 500 936 503 950 l 122 -246 z "},":":{"ha":344,"x_min":83,"x_max":261,"o":"m 172 596 q 235 572 211 596 q 260 508 260 547 q 235 446 260 469 q 171 422 211 422 q 108 446 132 422 q 83 508 83 469 q 108 572 83 547 q 172 596 132 596 m 171 -17 q 108 8 133 -17 q 83 72 83 32 q 108 133 83 108 q 172 157 133 157 q 237 133 213 157 q 261 72 261 108 q 236 8 261 32 q 171 -17 211 -17 z "},";":{"ha":363,"x_min":51,"x_max":290,"o":"m 178 592 q 241 567 217 592 q 265 504 265 543 q 241 442 265 467 q 176 418 217 418 q 115 442 140 418 q 89 504 89 467 q 115 567 89 543 q 178 592 142 592 m 81 135 q 101 183 81 161 q 150 204 121 204 q 206 190 181 204 q 251 151 232 175 q 280 97 269 126 q 290 39 290 68 q 272 -38 290 -4 q 224 -97 253 -72 q 158 -140 194 -122 q 85 -167 121 -157 q 66 -166 74 -171 q 55 -153 58 -161 q 53 -136 51 -144 q 67 -124 56 -128 q 155 -72 125 -101 q 185 0 185 -42 q 169 40 185 25 q 133 69 153 56 q 97 97 113 82 q 81 135 81 111 z "},"<":{"ha":735,"x_min":50,"x_max":661,"o":"m 68 322 q 50 357 50 335 q 54 376 50 367 q 68 392 58 386 l 613 678 q 629 681 624 681 q 654 667 647 681 q 661 640 661 654 q 636 601 661 614 l 172 360 l 172 356 l 636 114 q 661 75 661 99 q 654 47 661 61 q 629 33 647 33 q 613 38 621 33 l 68 322 z "},"=":{"ha":875,"x_min":94,"x_max":781,"o":"m 126 204 q 103 216 111 204 q 94 242 94 228 q 103 268 94 257 q 126 279 111 279 l 749 279 q 772 268 764 279 q 781 242 781 257 q 772 216 781 228 q 749 204 764 204 l 126 204 m 126 438 q 103 449 111 438 q 94 475 94 461 q 103 501 94 490 q 126 513 111 513 l 749 513 q 772 501 764 513 q 781 475 781 490 q 772 449 781 461 q 749 438 764 438 l 126 438 z "},">":{"ha":735,"x_min":74,"x_max":685,"o":"m 122 38 q 106 33 114 33 q 81 47 88 33 q 74 75 74 61 q 99 114 74 99 l 563 356 l 563 360 l 99 601 q 74 640 74 614 q 81 667 74 654 q 106 681 88 681 q 122 678 111 681 l 667 392 q 681 376 676 386 q 685 357 685 367 q 667 322 685 335 l 122 38 z "},"?":{"ha":604,"x_min":60,"x_max":540,"o":"m 293 -17 q 231 8 256 -17 q 206 72 206 32 q 231 134 206 108 q 294 160 256 160 q 358 134 333 160 q 383 72 383 108 q 358 8 383 32 q 293 -17 333 -17 m 288 954 q 382 946 336 956 q 463 913 428 936 q 519 853 499 890 q 540 761 540 815 q 526 691 540 722 q 487 633 511 660 q 433 583 463 606 q 374 542 403 561 q 323 506 347 524 q 279 468 299 488 q 248 426 260 449 q 236 376 236 403 q 253 333 236 350 q 290 317 271 317 q 335 328 314 317 q 375 360 356 340 q 400 376 388 372 q 424 379 413 381 q 459 360 446 376 q 454 324 472 343 q 386 276 424 293 q 314 260 349 260 q 253 272 282 260 q 201 306 224 283 q 164 359 178 328 q 150 431 150 390 q 163 488 150 463 q 196 535 175 514 q 242 575 217 557 q 296 610 268 593 q 347 643 322 626 q 392 679 372 660 q 423 722 411 699 q 435 774 435 744 q 399 867 435 828 q 294 904 364 906 q 252 898 274 904 q 214 879 231 892 q 186 848 197 867 q 175 806 175 829 q 182 774 175 788 q 198 751 189 761 q 214 736 207 742 q 221 729 221 731 q 204 707 221 722 q 157 692 188 692 q 110 704 131 692 q 78 737 90 717 q 63 781 67 757 q 65 829 60 806 q 104 895 75 871 q 168 933 133 919 q 235 950 203 946 q 288 954 268 954 z "},"@":{"ha":1219,"x_min":71,"x_max":1160,"o":"m 981 -42 q 997 -40 990 -36 q 1008 -52 1004 -44 q 1010 -69 1011 -60 q 1000 -85 1008 -79 q 838 -165 929 -135 q 638 -196 747 -196 q 433 -165 535 -196 q 251 -73 332 -135 q 121 83 171 -11 q 71 304 71 176 q 115 515 71 413 q 242 696 160 617 q 439 823 324 775 q 696 871 554 871 q 899 837 813 871 q 1044 745 986 803 q 1131 613 1101 688 q 1160 456 1160 538 q 1135 312 1160 379 q 1067 194 1111 244 q 963 114 1024 143 q 831 85 903 85 q 731 111 772 85 q 683 190 689 138 q 606 115 649 143 q 519 88 564 88 q 460 97 489 88 q 409 128 432 107 q 372 183 386 149 q 358 267 358 217 q 381 372 358 313 q 447 485 404 432 q 550 574 490 538 q 683 610 610 610 q 752 593 722 610 q 793 539 782 576 l 815 589 q 832 604 821 600 q 856 608 843 608 q 877 605 865 608 q 898 594 889 601 q 912 577 907 588 q 914 554 917 567 l 797 253 q 786 213 789 233 q 788 174 783 192 q 807 146 793 157 q 846 135 821 135 q 944 159 899 135 q 1022 226 989 183 q 1074 330 1056 269 q 1093 463 1093 390 q 1067 597 1093 535 q 991 707 1042 660 q 865 781 940 754 q 688 808 789 808 q 510 776 599 808 q 350 680 421 743 q 235 525 279 617 q 190 315 190 433 q 225 117 190 201 q 320 -24 260 32 q 463 -108 381 -81 q 642 -136 546 -136 q 829 -109 749 -136 q 981 -42 910 -82 m 769 471 q 679 564 754 564 q 609 531 644 564 q 544 448 574 497 q 497 342 515 399 q 479 240 479 286 q 506 165 479 182 q 569 157 533 147 q 640 196 604 167 q 690 261 675 225 l 769 471 z "},"A":{"ha":907,"x_min":-17,"x_max":915,"o":"m 272 338 l 564 338 l 424 694 l 419 694 l 272 338 m 328 885 q 403 878 371 885 q 462 857 436 872 q 508 813 488 842 q 549 738 529 783 l 782 163 q 797 126 789 144 q 817 92 806 107 q 843 66 828 76 q 881 56 858 56 q 905 53 896 56 q 915 26 914 50 q 909 6 915 15 q 890 -4 903 -4 q 813 -1 846 -1 q 738 0 779 0 q 565 -4 654 0 q 546 6 551 -4 q 540 26 540 15 q 551 53 542 50 q 575 56 560 56 q 626 62 608 56 q 649 81 644 68 q 651 113 654 93 q 636 163 647 133 l 589 278 l 246 278 q 201 163 213 193 q 186 106 190 126 q 190 74 182 85 q 222 59 199 63 q 285 56 244 56 q 309 53 300 56 q 319 26 318 50 q 313 6 319 15 q 294 -4 307 -4 q 217 -1 250 -1 q 143 0 185 0 q 107 0 122 0 q 77 -1 92 0 q 47 -2 63 -1 q 8 -4 31 -3 q -11 6 -6 -4 q -17 26 -17 15 q -6 53 -15 50 q 18 56 3 56 q 63 65 46 56 q 92 89 81 74 q 113 124 104 104 q 129 163 121 143 l 372 738 q 379 778 382 763 q 366 803 376 793 q 340 817 356 813 q 307 825 324 822 q 279 833 286 829 q 272 857 272 836 q 288 883 272 881 q 328 885 304 885 z "},"B":{"ha":863,"x_min":58,"x_max":799,"o":"m 421 54 q 508 65 467 54 q 581 101 550 76 q 629 165 611 125 q 647 267 647 206 q 629 331 644 300 q 583 385 614 361 q 501 424 551 410 q 378 439 451 439 l 321 439 l 321 163 q 326 106 321 128 q 342 74 331 85 q 372 58 353 63 q 421 54 392 54 m 321 825 l 321 494 l 379 494 q 442 497 407 494 q 508 515 478 500 q 560 564 539 531 q 581 660 581 597 q 545 779 581 733 q 418 825 510 825 l 321 825 m 249 0 q 167 -1 207 0 q 83 -4 128 -1 q 64 6 69 -4 q 58 26 58 15 q 69 53 60 50 q 93 56 78 56 q 144 65 126 56 q 171 89 163 74 q 181 124 179 104 q 183 163 183 143 l 183 714 q 181 753 183 733 q 171 788 179 772 q 144 812 163 803 q 93 821 126 821 q 69 824 78 821 q 58 850 60 826 q 64 871 58 861 q 83 881 69 881 q 167 877 128 878 q 247 876 206 876 l 443 876 q 569 865 524 876 q 651 831 615 853 q 708 766 688 807 q 729 676 729 725 q 712 594 729 629 q 667 533 694 558 q 606 493 639 508 q 542 471 572 478 l 542 467 q 644 451 597 467 q 724 407 690 435 q 776 343 757 379 q 797 267 796 307 q 763 136 799 188 q 670 54 726 85 q 546 11 614 24 q 415 -1 478 -1 l 249 0 z "},"C":{"ha":888,"x_min":68,"x_max":843,"o":"m 828 708 q 819 652 828 679 q 792 604 810 625 q 747 571 774 583 q 686 558 719 558 q 651 565 665 558 q 627 579 636 571 q 615 596 618 588 q 611 608 611 604 q 622 617 611 611 q 646 635 633 624 q 669 666 658 647 q 681 713 681 685 q 639 812 681 775 q 521 849 597 849 q 405 822 458 849 q 313 742 351 794 q 252 615 274 690 q 231 440 231 539 q 253 284 231 357 q 318 157 276 211 q 418 72 360 103 q 547 40 476 40 q 675 71 622 40 q 772 172 728 101 q 817 176 785 196 q 836 156 829 168 q 833 132 843 144 q 758 51 793 82 q 684 2 722 19 q 601 -22 646 -15 q 497 -28 556 -28 q 332 3 410 -28 q 195 94 254 35 q 102 240 136 154 q 68 432 68 325 q 100 625 68 538 q 191 774 132 713 q 334 870 250 836 q 522 904 418 904 q 626 894 572 904 q 726 862 681 885 q 799 801 771 839 q 828 708 828 764 z "},"D":{"ha":1011,"x_min":60,"x_max":943,"o":"m 465 876 q 652 847 565 876 q 803 760 739 817 q 906 620 868 703 q 943 433 943 538 q 899 240 943 322 q 785 105 856 158 q 624 26 714 51 q 440 0 533 0 l 249 0 q 168 -1 207 0 q 83 -4 129 -1 q 65 6 71 -4 q 60 26 60 15 q 70 53 61 50 q 94 56 79 56 q 146 65 128 56 q 172 89 164 74 q 183 124 181 104 q 185 163 185 143 l 185 714 q 183 753 185 733 q 172 788 181 772 q 146 812 164 803 q 94 821 128 821 q 70 824 79 821 q 60 850 61 826 q 65 871 60 861 q 83 881 71 881 q 168 877 129 878 q 249 876 207 876 l 465 876 m 775 433 q 752 590 775 518 q 685 715 729 663 q 577 797 642 768 q 431 826 513 826 q 322 825 419 826 l 322 146 q 356 70 322 89 q 461 51 390 51 q 606 79 546 51 q 703 157 665 107 q 758 277 740 207 q 775 433 775 347 z "},"E":{"ha":825,"x_min":60,"x_max":778,"o":"m 685 876 q 710 869 700 876 q 721 843 721 863 l 725 649 q 712 628 725 635 q 688 621 699 621 q 660 627 672 621 q 644 646 647 633 q 628 726 638 693 q 605 779 619 758 q 567 810 590 800 q 508 821 544 819 l 322 821 l 322 468 l 574 468 q 590 457 585 467 q 594 436 594 447 q 590 417 594 425 q 574 408 585 408 l 322 408 l 322 146 q 325 116 324 132 q 335 86 326 100 q 364 63 344 72 q 419 56 383 54 l 547 56 q 606 65 583 57 q 644 91 629 72 q 671 140 660 110 q 696 217 682 171 q 715 235 701 231 q 743 236 728 239 q 766 226 754 233 q 776 204 778 218 l 749 29 q 735 5 744 10 q 708 0 726 0 l 250 0 q 169 -1 208 0 q 83 -4 129 -1 q 65 6 71 -4 q 60 26 60 15 q 70 53 61 50 q 94 56 79 56 q 146 65 128 56 q 172 89 164 74 q 183 124 181 104 q 185 163 185 143 l 185 714 q 183 753 185 733 q 172 788 181 772 q 146 812 164 803 q 94 821 128 821 q 70 824 79 821 q 60 850 61 826 q 65 871 60 861 q 83 881 71 881 q 168 877 129 878 q 249 876 207 876 l 685 876 z "},"F":{"ha":729,"x_min":60,"x_max":690,"o":"m 185 714 q 183 753 185 733 q 172 788 181 772 q 146 812 164 803 q 94 821 128 821 q 70 824 79 821 q 60 850 61 826 q 65 871 60 861 q 83 881 71 881 q 167 877 128 878 q 249 876 207 876 l 650 876 q 676 869 665 876 q 686 843 686 863 l 690 649 q 677 628 690 635 q 653 621 664 621 q 624 627 638 621 q 608 646 611 633 q 593 726 601 693 q 570 779 585 758 q 533 810 556 800 q 474 821 510 819 l 322 821 l 322 460 l 571 460 q 588 449 582 458 q 593 428 593 439 q 588 408 593 417 q 571 400 582 400 l 322 400 l 322 163 q 324 124 322 143 q 335 89 326 104 q 361 65 343 74 q 413 56 379 56 q 436 53 426 56 q 447 26 446 50 q 442 6 447 15 q 422 -4 436 -4 q 250 0 332 0 q 168 -1 208 0 q 83 -4 128 -1 q 65 6 71 -4 q 60 26 60 15 q 70 53 61 50 q 94 56 79 56 q 146 65 128 56 q 172 89 164 74 q 183 124 181 104 q 185 163 185 143 l 185 714 z "},"G":{"ha":961,"x_min":68,"x_max":936,"o":"m 819 40 q 743 8 779 21 q 670 -13 707 -6 q 592 -24 633 -21 q 499 -28 550 -28 q 333 0 411 -28 q 195 85 254 28 q 102 228 136 142 q 68 432 68 314 q 103 625 68 538 q 203 774 139 713 q 357 870 268 836 q 553 904 446 904 q 653 893 601 904 q 749 858 706 882 q 819 798 792 835 q 847 708 847 761 q 838 652 847 679 q 813 604 829 625 q 771 571 796 583 q 715 558 746 558 q 660 572 689 558 q 631 608 632 585 q 642 618 631 611 q 665 638 653 625 q 689 669 678 650 q 700 718 700 689 q 654 813 700 778 q 536 849 608 849 q 417 822 472 849 q 319 742 361 794 q 254 615 278 690 q 231 440 231 539 q 253 272 231 346 q 318 147 276 199 q 418 67 360 94 q 547 40 476 40 q 626 46 593 40 q 697 63 660 51 l 697 204 q 697 253 697 233 q 688 286 696 274 q 664 305 681 299 q 617 311 647 311 q 590 314 601 311 q 578 340 579 317 q 585 361 578 351 q 607 371 592 371 q 647 369 629 369 q 681 367 664 368 q 717 367 699 367 q 760 367 736 367 q 801 367 783 367 q 836 367 819 367 q 870 369 853 368 q 910 371 888 369 q 930 361 924 371 q 936 340 936 351 q 924 314 935 317 q 897 311 913 311 q 852 304 868 311 q 829 284 836 297 q 821 251 822 271 q 819 204 819 231 l 819 40 z "},"H":{"ha":1079,"x_min":60,"x_max":1021,"o":"m 322 408 l 322 163 q 324 124 322 143 q 335 89 326 104 q 361 65 343 74 q 413 56 379 56 q 437 53 428 56 q 447 26 446 50 q 442 6 447 15 q 422 -4 436 -4 q 250 0 332 0 q 169 -1 208 0 q 85 -4 129 -1 q 65 6 71 -4 q 60 26 60 15 q 70 53 61 50 q 94 56 79 56 q 146 65 128 56 q 172 89 164 74 q 183 124 181 104 q 185 163 185 143 l 185 714 q 183 753 185 733 q 172 788 181 772 q 146 812 164 803 q 94 821 128 821 q 70 824 79 821 q 60 850 61 826 q 65 871 60 861 q 85 881 71 881 q 168 877 129 878 q 249 876 207 876 q 422 881 332 876 q 442 871 436 881 q 447 850 447 861 q 437 824 446 826 q 413 821 428 821 q 361 812 379 821 q 335 788 343 803 q 324 753 326 772 q 322 714 322 733 l 322 468 l 758 468 l 758 714 q 756 753 758 733 q 746 788 754 772 q 719 812 738 803 q 668 821 701 821 q 643 824 653 821 q 632 850 633 826 q 638 871 632 861 q 657 881 644 881 q 831 876 746 876 q 912 877 872 876 q 996 881 951 878 q 1015 871 1008 881 q 1021 850 1021 861 q 1010 824 1019 826 q 986 821 1000 821 q 935 812 953 821 q 908 788 917 803 q 897 753 899 772 q 894 714 894 733 l 894 163 q 897 124 894 143 q 908 89 899 104 q 935 65 917 74 q 986 56 953 56 q 1010 53 1000 56 q 1021 26 1019 50 q 1015 6 1021 15 q 996 -4 1008 -4 q 911 -1 951 -1 q 829 0 871 0 q 657 -4 746 0 q 638 6 644 -4 q 632 26 632 15 q 643 53 633 50 q 668 56 653 56 q 719 65 701 56 q 746 89 738 74 q 756 124 754 104 q 758 163 758 143 l 758 408 l 322 408 z "},"I":{"ha":506,"x_min":58,"x_max":447,"o":"m 321 163 q 323 124 321 143 q 333 89 325 104 q 360 65 342 74 q 411 56 378 56 q 435 53 426 56 q 447 26 444 50 q 441 6 447 15 q 422 -4 435 -4 q 250 0 332 0 q 168 -1 208 0 q 83 -4 128 -1 q 64 6 69 -4 q 58 26 58 15 q 69 53 60 50 q 93 56 79 56 q 144 65 126 56 q 171 89 163 74 q 181 124 179 104 q 185 163 183 143 l 185 714 q 181 753 183 733 q 171 788 179 772 q 144 812 163 803 q 93 821 126 821 q 69 824 79 821 q 58 850 60 826 q 64 871 58 861 q 83 881 69 881 q 167 877 128 878 q 249 876 207 876 q 422 881 332 876 q 441 871 435 881 q 447 850 447 861 q 435 824 444 826 q 411 821 426 821 q 360 812 378 821 q 333 788 342 803 q 323 753 325 772 q 321 714 321 733 l 321 163 z "},"J":{"ha":479,"x_min":-4,"x_max":435,"o":"m 35 -267 q 3 -243 11 -271 q 17 -208 -4 -217 q 101 -149 71 -186 q 148 -59 132 -112 q 168 65 164 -6 q 172 225 172 135 l 172 714 q 170 753 172 733 q 160 788 168 772 q 133 812 151 803 q 82 821 115 821 q 57 824 67 821 q 46 850 47 826 q 52 871 46 861 q 71 881 58 881 q 155 877 115 878 q 236 876 194 876 q 410 881 319 876 q 428 871 422 881 q 435 850 435 861 q 424 824 433 826 q 399 821 414 821 q 347 812 365 821 q 321 788 329 803 q 310 753 313 772 q 308 714 308 733 l 308 178 q 295 22 308 94 q 250 -108 282 -50 q 165 -208 218 -167 q 35 -267 113 -249 z "},"K":{"ha":972,"x_min":60,"x_max":972,"o":"m 636 753 q 662 800 664 783 q 624 819 660 817 q 604 849 606 821 q 611 871 604 861 q 629 881 618 881 q 706 877 665 878 q 782 876 746 876 q 845 878 810 876 q 908 881 881 879 q 928 871 922 881 q 935 849 935 861 q 925 824 932 828 q 907 819 918 819 q 805 803 854 822 q 699 726 756 783 q 637 662 675 701 q 563 585 599 622 q 474 492 519 540 q 640 309 556 392 q 783 163 724 226 q 825 120 807 139 q 860 88 843 101 q 896 67 878 75 q 938 56 914 58 q 960 52 949 54 q 972 26 971 50 q 967 6 972 15 q 947 -4 961 -4 q 912 -2 925 -3 q 887 -1 899 -1 q 863 0 875 0 q 829 0 850 0 l 740 0 q 584 174 664 85 q 413 371 504 264 q 366 412 388 400 q 322 426 344 424 l 322 163 q 324 124 322 143 q 335 89 326 104 q 361 65 343 74 q 413 56 379 56 q 437 53 428 56 q 447 26 446 50 q 442 6 447 15 q 422 -4 436 -4 q 250 0 332 0 q 169 -1 208 0 q 85 -4 129 -1 q 65 6 71 -4 q 60 26 60 15 q 70 53 61 50 q 94 56 79 56 q 146 65 128 56 q 172 89 164 74 q 183 124 181 104 q 185 163 185 143 l 185 714 q 183 753 185 733 q 172 788 181 772 q 146 812 164 803 q 94 821 128 821 q 70 824 79 821 q 60 850 61 826 q 65 872 60 863 q 85 881 71 881 q 168 877 129 878 q 249 876 207 876 q 422 881 332 876 q 442 872 436 881 q 447 850 447 864 q 438 825 446 829 q 413 821 431 821 q 361 812 379 821 q 335 788 343 803 q 324 753 326 772 q 322 714 322 733 l 322 463 q 377 490 346 468 q 440 540 408 513 q 543 645 493 589 q 636 753 593 701 z "},"L":{"ha":793,"x_min":60,"x_max":775,"o":"m 322 142 q 325 113 324 128 q 335 84 326 97 q 364 63 344 71 q 419 56 383 54 l 544 56 q 603 65 581 57 q 642 91 626 72 q 668 140 657 110 q 693 217 679 171 q 712 235 699 231 q 740 236 725 239 q 763 226 751 233 q 774 204 775 218 l 746 29 q 733 5 742 10 q 706 0 724 0 l 250 0 q 169 -1 208 0 q 83 -4 129 -1 q 65 6 71 -4 q 60 26 60 15 q 70 51 61 47 q 94 56 79 56 q 146 65 128 56 q 172 89 164 74 q 183 124 181 104 q 185 163 185 143 l 185 714 q 183 753 185 733 q 172 788 181 772 q 146 812 164 803 q 94 821 128 821 q 70 824 79 821 q 60 850 61 828 q 65 872 60 864 q 83 881 71 881 q 168 877 129 878 q 249 876 207 876 q 422 881 332 876 q 442 871 436 881 q 447 850 447 861 q 436 824 446 826 q 413 821 426 821 q 361 812 379 821 q 335 788 343 803 q 324 753 326 772 q 322 714 322 733 l 322 142 z "},"M":{"ha":1235,"x_min":58,"x_max":1175,"o":"m 622 7 q 611 -3 619 0 q 594 -7 603 -7 q 578 -3 586 -7 q 565 7 569 0 l 253 714 l 249 714 l 251 163 q 253 124 251 143 q 263 89 254 104 q 288 65 271 74 q 339 56 306 56 q 363 53 354 56 q 375 26 372 50 q 369 6 375 15 q 350 -4 363 -4 q 313 -2 328 -3 q 285 -1 299 -1 q 258 0 272 0 q 224 0 244 0 q 187 0 203 0 q 156 -1 171 0 q 125 -2 142 -1 q 86 -4 108 -3 q 67 6 72 -4 q 61 26 61 15 q 72 53 63 50 q 96 56 81 56 q 147 65 129 56 q 172 89 164 74 q 182 124 181 104 q 183 163 183 143 l 186 714 q 181 767 186 747 q 163 797 175 786 q 134 815 151 808 q 93 825 117 821 q 66 832 74 829 q 58 857 58 835 q 74 883 58 881 q 114 885 90 885 q 207 878 165 885 q 283 857 249 872 q 343 813 317 842 q 389 738 369 783 l 628 201 l 632 201 l 906 876 l 985 876 q 1066 877 1026 876 q 1150 881 1106 878 q 1169 871 1164 881 q 1175 850 1175 861 q 1164 824 1174 826 q 1140 821 1154 821 q 1089 812 1107 821 q 1063 788 1071 803 q 1052 753 1054 772 q 1050 714 1050 733 l 1050 163 q 1052 124 1050 143 q 1063 89 1054 104 q 1089 65 1071 74 q 1140 56 1107 56 q 1164 53 1154 56 q 1175 26 1174 50 q 1169 6 1175 15 q 1150 -4 1164 -4 q 1065 -1 1106 -1 q 983 0 1025 0 q 813 -4 901 0 q 793 6 799 -4 q 788 26 788 15 q 798 53 789 50 q 822 56 807 56 q 874 65 856 56 q 900 89 892 74 q 910 124 908 104 q 913 163 913 143 l 913 714 l 908 714 l 622 7 z "},"N":{"ha":1024,"x_min":58,"x_max":976,"o":"m 253 714 l 249 714 l 251 163 q 253 124 251 143 q 263 89 254 104 q 288 65 271 74 q 339 56 306 56 q 364 53 354 56 q 375 26 374 50 q 369 6 375 15 q 350 -4 363 -4 q 312 -2 328 -3 q 281 -1 296 -1 q 251 0 267 0 q 215 0 236 0 q 180 0 194 0 q 152 -1 165 0 q 124 -2 139 -1 q 86 -4 108 -3 q 67 6 72 -4 q 61 26 61 15 q 72 53 63 50 q 96 56 81 56 q 147 65 129 56 q 172 89 164 74 q 182 124 181 104 q 183 163 183 143 l 186 714 q 181 766 186 746 q 164 797 175 786 q 135 815 153 808 q 93 825 118 821 q 65 833 72 829 q 58 857 58 836 q 74 883 58 881 q 114 885 90 885 q 213 878 172 885 q 285 854 253 871 q 344 809 317 838 q 404 738 372 781 l 785 238 l 789 238 l 786 714 q 785 753 786 733 q 775 788 783 772 q 749 812 767 803 q 699 821 732 821 q 674 824 683 821 q 663 850 665 826 q 669 871 663 861 q 688 881 675 881 q 726 878 710 879 q 756 877 742 878 q 785 876 769 876 q 821 876 800 876 q 856 876 842 876 q 885 877 871 876 q 914 878 899 878 q 951 881 929 879 q 971 871 965 881 q 976 850 976 861 q 966 824 975 826 q 942 821 957 821 q 891 812 908 821 q 865 788 874 803 q 856 753 857 772 q 854 714 854 733 l 851 14 q 838 -1 850 3 q 817 -4 826 -4 q 776 14 790 -4 l 253 714 z "},"O":{"ha":1021,"x_min":65,"x_max":956,"o":"m 508 904 q 695 867 613 904 q 835 766 778 829 q 924 621 893 703 q 956 451 956 539 q 915 247 956 336 q 809 97 874 158 q 665 4 744 36 q 508 -28 585 -28 q 324 10 406 -28 q 185 110 242 47 q 97 256 128 174 q 65 426 65 338 q 106 631 65 542 q 210 781 146 719 q 353 873 274 842 q 508 904 432 904 m 507 33 q 634 67 581 33 q 722 159 688 101 q 774 292 757 217 q 790 451 790 368 q 773 601 790 529 q 720 726 756 672 q 631 813 685 781 q 507 844 578 844 q 381 811 433 844 q 294 721 328 778 q 244 589 260 664 q 228 431 228 514 q 244 280 228 351 q 296 153 261 208 q 383 66 331 99 q 507 33 436 33 z "},"P":{"ha":839,"x_min":58,"x_max":806,"o":"m 458 876 q 515 874 481 876 q 587 864 549 872 q 664 839 625 856 q 735 794 703 822 q 786 726 767 767 q 806 626 806 685 q 776 508 806 561 q 697 418 746 456 q 585 360 647 381 q 460 340 524 340 q 392 344 428 340 q 321 363 357 349 l 321 163 q 323 124 321 143 q 333 89 325 104 q 360 65 342 74 q 411 56 378 56 q 436 53 426 56 q 447 26 446 50 q 441 6 447 15 q 422 -4 435 -4 q 249 0 332 0 q 167 -1 207 0 q 83 -4 128 -1 q 65 6 71 -4 q 58 26 58 15 q 69 53 60 50 q 94 56 79 56 q 146 65 128 56 q 172 89 164 74 q 183 124 181 104 q 185 163 185 143 l 185 714 q 183 753 185 733 q 172 788 181 772 q 146 812 164 803 q 94 821 128 821 q 69 824 79 821 q 58 850 60 826 q 65 871 58 861 q 83 881 71 881 q 168 877 128 878 q 250 876 208 876 l 458 876 m 321 418 q 361 407 335 411 q 419 403 388 403 q 492 413 451 403 q 567 447 532 422 q 627 515 603 472 q 651 622 651 557 q 623 733 651 693 q 555 794 594 774 q 474 820 515 815 q 408 825 433 825 q 366 822 383 825 q 339 807 349 818 q 325 774 329 796 q 321 718 321 753 l 321 418 z "},"Q":{"ha":1021,"x_min":65,"x_max":1154,"o":"m 1019 -208 q 1057 -192 1046 -206 q 1068 -160 1068 -178 q 1044 -99 1068 -128 q 976 -68 1019 -69 q 992 -26 972 -49 q 1056 -4 1011 -4 q 1083 -10 1067 -4 q 1116 -30 1100 -17 q 1143 -65 1132 -43 q 1154 -115 1154 -86 q 1137 -176 1154 -147 q 1092 -228 1119 -206 q 1032 -263 1065 -250 q 965 -278 999 -276 q 844 -255 894 -278 q 749 -199 793 -232 q 660 -127 706 -165 q 556 -58 615 -89 q 506 -37 531 -46 q 450 -22 482 -29 q 333 12 389 -8 q 238 63 276 32 q 110 222 154 126 q 65 426 65 318 q 106 631 65 542 q 210 781 146 719 q 353 873 274 842 q 508 904 432 904 q 696 867 613 904 q 837 766 779 829 q 926 621 894 703 q 957 451 957 539 q 935 303 957 372 q 876 177 914 233 q 786 79 839 121 q 671 13 733 38 q 651 6 664 10 q 614 1 638 3 l 614 -1 q 682 -21 651 -6 q 778 -78 733 -46 q 865 -140 824 -111 q 944 -189 906 -169 q 1019 -208 982 -208 m 507 29 q 635 64 581 29 q 724 157 689 99 q 775 292 758 215 q 792 451 792 368 q 774 601 792 529 q 722 726 757 672 q 633 813 686 781 q 507 844 579 844 q 381 811 433 844 q 294 721 328 778 q 245 589 261 664 q 229 431 229 514 q 246 279 229 351 q 297 151 263 207 q 384 63 332 96 q 507 29 436 29 z "},"R":{"ha":932,"x_min":60,"x_max":931,"o":"m 419 825 q 371 820 390 825 q 341 802 351 815 q 326 767 331 789 q 322 710 322 744 l 322 443 l 444 443 q 556 463 515 443 q 618 513 597 483 q 645 576 639 542 q 651 638 651 610 q 640 705 651 671 q 603 765 629 739 q 532 808 576 792 q 419 825 488 825 m 581 418 q 688 251 633 335 q 813 93 742 167 q 851 68 832 78 q 896 56 869 58 q 918 52 907 54 q 931 26 929 50 q 925 6 931 15 q 906 -4 919 -4 q 869 -2 883 -3 q 842 -1 854 -1 q 815 0 829 0 q 781 0 801 0 q 683 40 722 11 q 607 121 644 68 q 535 227 568 174 q 469 333 501 281 q 451 358 460 347 q 432 376 443 369 q 404 385 421 382 q 363 389 388 389 l 322 389 l 322 163 q 324 124 322 143 q 335 89 326 104 q 361 65 343 74 q 413 56 379 56 q 436 53 426 56 q 447 26 446 50 q 442 6 447 15 q 422 -4 436 -4 q 249 0 332 0 q 168 -1 207 0 q 85 -4 129 -1 q 65 6 71 -4 q 60 26 60 15 q 70 53 61 50 q 94 56 79 56 q 146 65 128 56 q 172 89 164 74 q 183 124 181 104 q 185 163 185 143 l 185 713 q 183 751 185 732 q 172 786 181 771 q 146 811 164 801 q 94 821 128 821 q 70 824 79 821 q 60 850 61 826 q 65 871 60 861 q 85 881 71 881 q 169 877 129 878 q 250 876 208 876 l 489 876 q 633 855 574 875 q 731 803 693 835 q 788 732 769 772 q 806 650 806 692 q 790 577 806 613 q 746 511 775 542 q 675 456 717 481 q 581 418 633 432 z "},"S":{"ha":757,"x_min":68,"x_max":693,"o":"m 368 28 q 448 42 413 28 q 508 78 483 56 q 544 128 532 100 q 557 186 557 157 q 522 281 557 243 q 436 346 488 318 q 324 399 385 374 q 211 456 264 424 q 123 536 158 489 q 86 656 88 583 q 107 768 85 721 q 170 845 129 815 q 267 890 211 875 q 386 904 322 904 q 479 894 432 904 q 564 864 526 885 q 625 810 601 843 q 649 729 649 776 q 615 647 649 679 q 526 614 581 614 q 476 633 490 617 q 461 657 461 649 q 472 663 461 660 q 494 675 482 667 q 517 698 507 683 q 528 738 528 713 q 488 819 528 790 q 388 847 447 847 q 309 835 342 847 q 256 805 276 824 q 225 761 235 786 q 215 710 215 736 q 243 626 215 658 q 326 564 271 594 q 453 503 389 531 q 572 439 518 475 q 659 351 625 403 q 693 218 693 300 q 667 120 693 165 q 598 42 642 75 q 494 -9 554 10 q 368 -28 435 -28 q 145 22 222 -28 q 68 172 68 72 q 102 255 68 222 q 190 288 136 288 q 241 269 226 285 q 256 244 256 253 q 248 238 256 242 q 231 226 240 235 q 213 203 221 218 q 206 164 206 189 q 244 65 206 101 q 368 28 282 28 z "},"T":{"ha":833,"x_min":36,"x_max":799,"o":"m 757 876 q 783 869 772 876 q 793 843 793 863 l 799 647 q 787 626 799 633 q 764 619 775 619 q 734 626 749 619 q 717 644 719 632 q 701 725 710 692 q 677 781 692 758 q 640 813 663 803 q 581 825 617 824 l 486 825 l 486 163 q 488 124 486 143 q 499 89 490 104 q 525 65 507 74 q 576 56 543 56 q 600 53 590 56 q 611 26 610 50 q 606 6 611 15 q 586 -4 600 -4 q 502 -1 542 -1 q 422 0 463 0 q 249 -4 338 0 q 229 6 235 -4 q 224 26 224 15 q 234 53 225 50 q 258 56 243 56 q 310 65 292 56 q 336 89 328 74 q 347 124 344 104 q 349 163 349 143 l 349 825 l 253 825 q 194 813 217 824 q 156 781 171 803 q 133 725 142 758 q 118 644 125 692 q 100 626 115 632 q 69 619 85 619 q 47 626 58 619 q 36 647 36 633 l 40 843 q 51 869 40 863 q 78 876 63 876 l 757 876 z "},"U":{"ha":1000,"x_min":38,"x_max":975,"o":"m 833 247 q 801 122 833 174 q 720 36 769 69 q 612 -12 671 3 q 499 -28 553 -28 q 352 -5 415 -28 q 247 56 289 18 q 184 141 206 93 q 163 240 163 189 l 163 714 q 160 753 163 733 q 150 788 158 772 q 124 812 142 803 q 72 821 106 821 q 48 824 57 821 q 38 850 39 826 q 43 871 38 861 q 63 881 49 881 q 146 877 107 878 q 226 876 185 876 q 400 881 310 876 q 419 871 414 881 q 425 850 425 861 q 417 825 424 829 q 397 821 410 821 q 342 812 361 821 q 314 788 324 803 q 302 754 304 774 q 300 714 300 735 l 300 281 q 307 205 300 244 q 337 132 314 165 q 403 76 360 99 q 521 54 447 54 q 637 72 592 54 q 708 120 682 90 q 745 187 735 150 q 756 261 756 224 l 756 626 q 752 733 756 694 q 738 792 749 772 q 705 816 726 811 q 649 821 683 821 q 625 824 635 821 q 614 850 615 826 q 619 871 614 861 q 639 881 625 881 q 718 877 683 878 q 794 876 753 876 q 871 877 836 876 q 950 881 906 878 q 969 871 964 881 q 975 850 975 861 q 967 825 974 829 q 947 821 960 821 q 887 817 910 821 q 852 794 864 813 q 837 739 840 776 q 833 635 833 701 l 833 247 z "},"V":{"ha":900,"x_min":13,"x_max":926,"o":"m 692 753 q 693 809 707 797 q 631 821 679 821 q 606 824 615 821 q 596 850 597 826 q 601 871 596 861 q 619 881 607 881 q 697 877 664 878 q 771 876 729 876 q 806 876 792 876 q 835 877 821 876 q 864 878 849 878 q 901 881 879 879 q 921 871 915 881 q 926 850 926 861 q 916 824 925 826 q 892 821 907 821 q 808 801 839 821 q 756 726 778 782 q 744 695 756 726 q 713 613 732 664 q 670 494 694 561 q 621 358 646 428 l 488 -14 l 422 -14 q 290 349 347 190 q 242 481 265 417 q 199 597 218 546 q 169 678 181 647 q 158 708 158 708 q 137 756 147 736 q 114 790 126 776 q 85 811 101 803 q 47 824 69 819 q 20 831 28 828 q 13 856 13 833 q 28 881 13 879 q 68 883 44 883 q 212 849 161 882 q 294 738 263 817 l 496 196 l 500 196 l 692 753 z "},"W":{"ha":1297,"x_min":11,"x_max":1321,"o":"m 46 824 q 19 831 26 828 q 11 856 11 833 q 27 881 11 879 q 67 883 43 883 q 210 849 160 882 q 293 738 261 817 l 451 229 l 457 229 l 626 876 l 699 876 l 925 229 l 929 229 l 1086 753 q 1085 809 1097 797 q 1025 821 1074 821 q 1001 824 1010 821 q 990 850 992 826 q 996 871 990 861 q 1014 881 1001 881 q 1091 877 1058 878 q 1165 876 1124 876 q 1201 876 1186 876 q 1229 877 1215 876 q 1258 878 1243 878 q 1296 881 1274 879 q 1315 871 1310 881 q 1321 850 1321 861 q 1310 824 1319 826 q 1286 821 1301 821 q 1199 801 1233 821 q 1150 726 1165 781 l 922 -14 l 857 -14 l 632 649 l 453 -14 l 388 -14 l 157 708 q 135 756 146 736 q 113 790 125 776 q 84 811 100 803 q 46 824 68 819 z "},"X":{"ha":907,"x_min":10,"x_max":915,"o":"m 754 151 q 806 86 778 117 q 881 56 835 56 q 905 53 896 56 q 915 26 914 50 q 910 6 915 15 q 892 -4 904 -4 q 807 -1 847 -1 q 725 0 767 0 q 556 -4 644 0 q 536 6 542 -4 q 531 26 531 15 q 542 53 532 50 q 565 56 551 56 q 618 76 607 56 q 610 124 629 97 l 432 378 l 254 124 q 238 88 239 101 q 245 67 236 75 q 273 58 254 60 q 315 56 292 56 q 340 53 331 56 q 350 26 349 50 q 344 6 350 15 q 326 -4 339 -4 q 249 -1 282 -1 q 175 0 217 0 q 138 0 154 0 q 106 -1 122 0 q 74 -2 90 -1 q 35 -4 57 -3 q 15 6 21 -4 q 10 26 10 15 q 20 53 11 50 q 44 56 29 56 q 90 60 71 56 q 124 76 108 65 q 156 104 140 86 q 190 150 171 122 l 392 436 l 214 715 q 147 791 179 768 q 71 824 115 814 q 44 831 51 828 q 36 856 36 833 q 52 881 36 879 q 92 883 68 883 q 178 876 140 883 q 248 851 217 868 q 306 806 279 833 q 360 739 332 778 l 474 553 l 611 753 q 628 789 626 775 q 619 810 629 803 q 592 819 610 817 q 550 821 574 821 q 526 824 535 821 q 515 850 517 826 q 521 871 515 861 q 539 881 526 881 q 616 877 583 878 q 690 876 649 876 q 727 876 711 876 q 759 877 743 876 q 792 878 775 878 q 831 881 808 879 q 850 871 844 881 q 856 850 856 861 q 845 824 854 826 q 821 821 836 821 q 775 816 794 821 q 740 801 756 811 q 708 772 724 790 q 675 726 693 753 l 513 496 l 754 151 l 754 151 z "},"Y":{"ha":863,"x_min":6,"x_max":876,"o":"m 328 739 q 401 594 368 664 q 474 449 433 524 l 478 449 l 632 753 q 645 790 644 776 q 638 810 646 803 q 612 819 629 817 q 571 821 594 821 q 547 824 556 821 q 536 850 538 826 q 542 871 536 861 q 560 881 547 881 q 637 877 604 878 q 711 876 669 876 q 748 876 732 876 q 780 877 764 876 q 813 878 796 878 q 851 881 829 879 q 871 871 865 881 q 876 850 876 861 q 866 824 875 826 q 842 821 857 821 q 756 798 789 821 q 696 726 722 775 l 539 431 q 522 396 529 410 q 510 368 515 382 q 503 338 506 354 q 501 297 501 321 l 501 163 q 503 124 501 143 q 514 89 506 104 q 540 65 522 74 q 592 56 558 56 q 616 53 607 56 q 626 26 625 50 q 621 6 626 15 q 603 -4 615 -4 q 518 -1 558 -1 q 436 0 478 0 q 264 -4 353 0 q 244 6 250 -4 q 239 26 239 15 q 250 53 240 50 q 274 56 260 56 q 325 65 307 56 q 351 89 343 74 q 362 124 360 104 q 364 163 364 143 l 364 336 q 353 371 364 344 q 326 433 343 397 q 289 511 310 469 q 248 592 268 553 q 210 665 228 632 q 183 715 193 697 q 119 791 154 768 q 40 824 85 814 q 13 831 21 828 q 6 856 6 833 q 22 881 6 879 q 61 883 38 883 q 149 876 110 883 q 219 853 188 869 q 278 808 251 836 q 328 739 304 781 z "},"Z":{"ha":863,"x_min":47,"x_max":808,"o":"m 497 715 q 521 776 515 754 q 519 807 526 797 q 492 819 511 817 q 443 821 474 821 l 292 821 q 233 812 256 819 q 196 785 211 804 q 169 736 181 767 q 143 660 157 706 q 126 642 139 646 q 97 640 113 638 q 76 651 86 643 q 68 672 67 658 l 96 847 q 109 872 100 867 q 136 876 118 876 l 613 876 q 783 881 693 876 q 803 871 797 881 q 808 850 808 861 q 798 824 807 826 q 774 821 789 822 q 729 809 749 819 q 695 784 710 799 q 670 751 681 769 q 650 715 660 733 l 346 139 q 336 112 340 126 q 336 85 332 97 q 356 64 340 72 q 408 56 372 56 l 572 56 q 631 65 608 57 q 669 91 654 72 q 697 140 685 110 q 722 217 708 171 q 740 235 726 231 q 768 236 753 239 q 789 226 779 233 q 797 204 799 218 l 769 29 q 756 5 765 10 q 729 0 747 0 l 239 0 q 157 -1 197 0 q 72 -4 117 -1 q 53 6 60 -4 q 47 26 47 15 q 59 53 50 50 q 83 56 68 56 q 113 58 100 56 q 137 69 125 61 q 160 94 149 78 q 186 139 171 111 l 497 715 z "},"[":{"ha":431,"x_min":65,"x_max":383,"o":"m 183 951 q 169 935 169 951 l 169 -226 q 183 -243 169 -243 l 351 -243 q 383 -272 383 -243 q 351 -303 383 -303 l 151 -303 q 110 -300 126 -303 q 83 -287 93 -297 q 69 -258 74 -276 q 65 -210 65 -239 l 65 918 q 69 966 65 947 q 83 995 74 985 q 110 1008 93 1006 q 151 1011 126 1011 l 351 1011 q 383 981 383 1011 q 351 951 383 951 l 183 951 z "},"\\":{"ha":547,"x_min":44,"x_max":503,"o":"m 47 936 q 54 963 44 950 q 79 978 64 975 q 106 974 93 981 q 125 951 119 967 l 500 -231 q 494 -257 503 -246 q 469 -271 485 -268 q 444 -267 457 -274 q 425 -246 431 -261 l 47 936 z "},"]":{"ha":431,"x_min":47,"x_max":365,"o":"m 79 951 q 47 981 47 951 q 79 1011 47 1011 l 279 1011 q 321 1008 304 1011 q 347 995 338 1006 q 361 966 357 985 q 365 918 365 947 l 365 -210 q 361 -258 365 -239 q 347 -287 357 -276 q 321 -300 338 -297 q 279 -303 304 -303 l 79 -303 q 47 -272 47 -303 q 79 -243 47 -243 l 247 -243 q 261 -226 261 -243 l 261 935 q 247 951 261 951 l 79 951 z "},"^":{"ha":701,"x_min":43,"x_max":658,"o":"m 315 992 q 351 1011 328 1011 q 389 992 376 1011 l 647 575 q 645 542 658 554 q 613 528 632 529 q 588 531 600 526 q 569 547 576 536 l 351 903 l 133 547 q 115 530 126 533 q 90 528 103 526 q 57 542 71 529 q 56 575 43 556 l 315 992 z "},"_":{"ha":928,"x_min":114,"x_max":814,"o":"m 146 -171 q 122 -159 131 -171 q 114 -133 114 -147 q 122 -107 114 -118 q 146 -96 131 -96 l 782 -96 q 806 -107 797 -96 q 814 -133 814 -118 q 806 -159 814 -147 q 782 -171 797 -171 l 146 -171 z "},"`":{"ha":392,"x_min":57,"x_max":278,"o":"m 69 885 q 57 917 57 899 q 75 956 57 938 q 118 975 93 975 q 168 943 150 975 l 272 753 q 278 733 278 742 q 268 710 278 718 q 244 703 258 703 q 211 719 226 703 l 69 885 z "},"a":{"ha":696,"x_min":47,"x_max":668,"o":"m 310 606 q 236 581 269 606 q 203 508 203 556 q 210 478 203 492 q 225 457 217 465 q 240 443 233 449 q 247 436 247 438 q 231 415 247 429 q 188 401 215 401 q 120 433 143 401 q 97 504 97 465 q 117 570 97 543 q 167 614 136 597 q 238 638 199 631 q 318 646 278 646 q 411 638 365 646 q 493 608 457 631 q 552 547 529 586 q 575 443 575 507 l 575 119 q 578 94 575 108 q 590 68 582 81 q 613 47 599 56 q 647 38 626 38 q 663 34 657 38 q 668 15 668 31 q 660 -1 668 6 q 639 -10 651 -7 q 613 -15 626 -14 q 592 -17 600 -17 q 500 13 540 -17 q 453 96 460 43 q 410 47 438 68 q 349 12 382 26 q 283 -10 317 -3 q 219 -17 249 -17 q 152 -3 183 -17 q 98 32 121 10 q 61 84 75 54 q 47 149 47 114 q 72 233 47 199 q 133 290 96 268 q 217 325 171 313 q 309 344 264 338 q 392 352 354 350 q 453 357 431 354 l 453 467 q 421 569 453 532 q 310 606 389 606 m 453 315 q 336 296 386 307 q 253 268 286 285 q 204 226 221 251 q 188 167 188 201 q 213 90 188 122 q 278 58 238 58 q 344 72 313 58 q 401 110 376 86 q 439 167 425 133 q 453 238 453 200 l 453 315 z "},"b":{"ha":779,"x_min":4,"x_max":722,"o":"m 108 819 q 108 855 108 838 q 102 885 108 872 q 81 906 96 899 q 38 914 67 914 q 15 917 25 914 q 4 942 4 921 q 10 957 4 950 q 26 967 15 964 q 104 981 74 974 q 154 995 135 989 q 185 1006 174 1001 q 208 1011 197 1010 q 227 1007 219 1013 q 235 985 235 1001 l 235 565 l 239 565 q 331 626 281 607 q 431 646 382 646 q 545 622 492 646 q 638 556 599 599 q 700 452 678 513 q 722 319 722 392 q 696 187 722 249 q 626 80 669 125 q 524 9 582 35 q 404 -17 467 -17 q 190 51 281 -17 l 183 51 q 174 28 178 40 q 164 6 169 17 q 151 -12 158 -6 q 135 -19 144 -19 q 115 -11 122 -19 q 108 8 108 -3 l 108 819 m 581 314 q 569 410 581 363 q 534 494 558 457 q 472 553 510 531 q 382 576 435 576 q 299 560 335 576 q 235 513 263 543 l 235 146 q 249 111 238 131 q 280 74 260 92 q 328 43 300 56 q 392 31 356 31 q 468 50 433 31 q 528 106 503 69 q 567 196 553 143 q 581 314 581 249 z "},"c":{"ha":660,"x_min":57,"x_max":618,"o":"m 571 157 q 600 160 581 171 q 614 144 610 154 q 611 125 618 135 q 498 21 565 58 q 360 -17 431 -17 q 233 7 289 -17 q 138 74 176 31 q 78 179 99 118 q 57 315 57 240 q 85 447 60 388 q 155 551 111 507 q 258 619 199 594 q 383 646 317 643 q 434 643 401 646 q 499 629 467 640 q 560 595 532 618 q 599 531 588 572 q 601 483 604 507 q 585 438 597 458 q 553 406 574 418 q 507 393 533 393 q 460 408 476 393 q 443 431 443 424 q 450 438 443 432 q 466 453 457 443 q 482 476 475 463 q 489 507 489 489 q 457 572 489 551 q 385 594 425 593 q 287 569 324 594 q 231 503 250 543 q 205 414 211 463 q 199 319 199 365 q 212 213 199 263 q 250 128 225 164 q 311 73 275 93 q 392 53 347 53 q 494 78 453 53 q 571 157 536 104 z "},"d":{"ha":806,"x_min":57,"x_max":801,"o":"m 543 489 q 526 525 538 506 q 495 560 514 544 q 451 585 476 575 q 392 596 425 596 q 317 576 351 596 q 256 520 282 557 q 215 430 229 483 q 200 308 200 376 q 212 213 200 258 q 248 131 224 167 q 309 74 272 96 q 396 53 346 53 q 483 74 449 53 q 543 122 518 96 l 543 489 m 669 128 q 695 67 669 88 q 778 46 721 46 q 797 38 793 46 q 801 24 801 31 q 778 0 801 4 l 557 -15 q 545 -7 546 -15 q 544 13 544 1 l 544 68 l 540 68 q 453 8 504 32 q 349 -17 401 -17 q 238 8 290 -17 q 144 76 185 32 q 81 181 104 119 q 57 315 57 242 q 81 439 57 379 q 147 544 104 499 q 249 618 190 590 q 378 646 307 646 q 465 635 422 646 q 539 607 507 625 l 543 607 l 543 819 q 543 855 543 838 q 537 885 543 872 q 516 906 531 899 q 472 914 501 914 q 449 917 460 914 q 439 942 439 921 q 444 957 439 950 q 461 967 450 964 q 539 981 508 974 q 589 995 569 989 q 620 1006 608 1001 q 643 1011 632 1010 q 662 1007 654 1013 q 669 985 669 1001 l 669 128 z "},"e":{"ha":697,"x_min":57,"x_max":646,"o":"m 425 386 q 478 399 458 386 q 500 444 497 413 q 492 501 500 474 q 467 551 483 529 q 425 585 450 572 q 367 597 400 597 q 250 542 296 597 q 199 386 204 486 l 425 386 m 640 129 q 532 22 597 61 q 382 -17 467 -17 q 240 10 301 -17 q 139 82 179 36 q 78 189 99 128 q 57 318 57 250 q 78 437 57 378 q 140 542 100 496 q 238 617 181 589 q 367 646 294 646 q 478 628 431 646 q 559 580 526 611 q 610 506 592 549 q 633 413 629 463 q 606 349 633 364 q 536 333 579 333 l 199 333 q 211 221 199 272 q 250 132 224 169 q 318 74 276 94 q 418 53 360 53 q 518 78 476 53 q 599 165 560 103 q 629 167 610 179 q 643 149 640 160 q 640 129 646 138 z "},"f":{"ha":476,"x_min":44,"x_max":594,"o":"m 161 681 q 178 809 161 750 q 226 911 194 868 q 307 979 258 954 q 418 1006 356 1004 q 481 997 450 1006 q 538 969 513 988 q 578 926 563 951 q 594 869 594 901 q 571 798 594 831 q 503 765 547 765 q 458 780 474 765 q 442 801 442 794 q 449 810 442 804 q 465 826 457 815 q 481 851 474 836 q 489 886 489 865 q 466 938 489 917 q 408 960 443 960 q 338 931 363 960 q 303 863 314 903 q 290 778 292 822 q 289 706 289 735 l 289 629 l 425 629 q 449 627 439 629 q 460 603 458 625 q 453 583 460 592 q 436 575 447 575 l 289 575 l 289 143 q 289 108 289 125 q 295 77 289 90 q 316 56 301 64 q 388 49 331 49 q 410 47 401 49 q 419 24 418 44 q 415 4 419 13 q 399 -4 410 -4 q 296 -1 331 -1 q 225 0 261 0 q 154 -1 188 0 q 81 -4 121 -1 q 64 4 69 -4 q 58 24 58 13 q 68 47 60 44 q 90 49 76 49 q 134 56 119 49 q 155 77 149 64 q 161 108 161 90 q 161 143 161 125 l 161 575 l 68 575 q 51 583 57 575 q 44 603 44 592 q 55 627 46 625 q 78 629 64 629 l 161 629 l 161 681 z "},"g":{"ha":726,"x_min":38,"x_max":715,"o":"m 557 575 l 557 572 q 597 510 581 549 q 614 436 614 471 q 592 346 614 386 q 533 278 569 306 q 449 235 496 250 q 356 221 403 221 l 294 221 q 190 207 222 221 q 157 161 157 193 q 174 123 157 136 q 238 107 192 110 l 428 101 q 639 56 575 101 q 703 -71 703 11 q 676 -169 703 -126 q 601 -242 650 -212 q 483 -287 551 -272 q 332 -303 415 -303 q 210 -294 265 -303 q 117 -267 156 -286 q 58 -215 79 -247 q 38 -136 38 -183 q 67 -55 38 -90 q 144 -19 96 -19 q 174 -24 161 -19 q 197 -36 188 -29 q 213 -50 207 -43 q 218 -61 218 -57 q 212 -69 218 -64 q 197 -85 206 -75 q 183 -109 189 -94 q 176 -144 176 -124 q 224 -231 176 -210 q 374 -251 272 -251 q 524 -216 468 -251 q 579 -106 579 -181 q 560 -52 579 -72 q 511 -22 542 -32 q 440 -8 481 -11 q 357 -3 400 -4 q 271 -1 314 -3 q 192 7 228 0 q 110 39 143 15 q 78 119 78 63 q 114 209 78 171 q 225 247 150 247 q 152 285 181 264 q 107 331 124 307 q 83 382 90 356 q 76 435 76 408 q 96 518 76 479 q 151 585 115 557 q 235 631 186 614 q 344 647 285 647 q 426 641 383 647 q 499 619 468 635 l 689 656 q 710 646 704 657 q 715 622 715 635 q 710 586 715 603 q 694 569 704 569 l 557 575 m 343 604 q 240 561 281 604 q 200 439 200 518 q 241 307 200 353 q 344 261 282 261 q 449 306 408 261 q 489 436 489 351 q 448 560 489 515 q 343 604 407 604 z "},"h":{"ha":818,"x_min":32,"x_max":797,"o":"m 263 539 l 265 539 q 307 577 286 558 q 353 611 328 596 q 412 636 379 626 q 489 646 444 646 q 640 589 585 646 q 694 439 694 532 l 694 143 q 694 108 694 125 q 701 77 694 90 q 722 56 707 64 q 765 49 736 49 q 788 47 779 49 q 797 24 796 44 q 792 4 797 13 q 776 -4 788 -4 q 701 -1 736 -1 q 631 0 667 0 q 560 -1 593 0 q 486 -4 526 -1 q 469 4 475 -4 q 464 24 464 13 q 474 47 465 44 q 496 49 482 49 q 540 56 525 49 q 560 77 554 64 q 567 108 567 90 q 567 143 567 125 l 567 438 q 555 497 567 472 q 524 538 543 522 q 482 562 506 554 q 435 569 458 569 q 369 559 399 569 q 318 533 340 549 q 282 502 296 518 q 263 474 268 486 l 263 143 q 263 108 263 125 q 269 77 263 90 q 290 56 275 64 q 333 49 304 49 q 356 47 347 49 q 365 24 364 44 q 360 4 365 13 q 344 -4 356 -4 q 269 -1 304 -1 q 199 0 235 0 q 128 -1 161 0 q 54 -4 94 -1 q 38 4 43 -4 q 32 24 32 13 q 42 47 33 44 q 64 49 51 49 q 108 56 93 49 q 128 77 122 64 q 135 108 135 90 q 136 143 136 125 l 136 821 q 136 856 136 839 q 130 887 136 874 q 109 908 124 900 q 65 915 94 915 q 42 919 53 915 q 32 943 32 922 q 38 958 32 951 q 54 968 43 965 q 132 983 101 975 q 182 997 163 990 q 213 1007 201 1003 q 236 1013 225 1011 q 255 1008 247 1014 q 263 986 263 1003 l 263 539 z "},"i":{"ha":413,"x_min":47,"x_max":382,"o":"m 200 821 q 169 825 185 821 q 140 840 153 829 q 117 866 126 850 q 108 906 108 882 q 115 931 108 917 q 134 958 121 946 q 167 979 147 971 q 213 988 186 988 q 239 983 225 988 q 265 967 253 978 q 284 941 276 957 q 292 901 292 925 q 268 847 292 872 q 200 821 244 821 m 278 143 q 278 108 278 125 q 284 77 278 90 q 306 56 290 64 q 350 49 321 49 q 372 47 363 49 q 382 24 381 44 q 376 4 382 13 q 360 -4 371 -4 q 285 -1 319 -1 q 214 0 251 0 q 143 -1 176 0 q 69 -4 110 -1 q 53 4 58 -4 q 47 24 47 13 q 58 47 50 44 q 81 49 67 49 q 124 56 110 49 q 145 77 139 64 q 151 108 151 90 q 151 143 151 125 l 151 461 q 151 497 151 479 q 145 527 151 514 q 124 548 139 540 q 81 556 110 556 q 58 559 68 556 q 47 583 47 563 q 53 599 47 592 q 69 608 58 606 q 147 623 117 615 q 197 637 178 631 q 228 647 217 643 q 251 653 240 651 q 270 649 263 654 q 278 626 278 643 l 278 143 z "},"j":{"ha":369,"x_min":-25,"x_max":263,"o":"m 136 461 q 136 497 136 479 q 130 527 136 514 q 109 548 124 540 q 65 556 94 556 q 42 559 53 556 q 32 583 32 563 q 38 599 32 592 q 54 608 43 606 q 132 623 101 615 q 182 637 163 631 q 213 647 201 643 q 236 653 225 651 q 255 649 247 654 q 263 626 263 643 l 263 138 q 250 -10 263 58 q 208 -135 238 -79 q 128 -228 178 -190 q 6 -285 79 -267 q -11 -283 -6 -287 q -22 -265 -17 -278 q -24 -245 -25 -254 q -11 -232 -22 -236 q 69 -176 39 -211 q 113 -89 99 -140 q 132 30 128 -37 q 136 182 136 97 l 136 461 m 163 821 q 131 825 147 821 q 102 840 115 829 q 80 866 89 850 q 71 906 71 882 q 77 931 71 917 q 97 958 83 946 q 129 979 110 971 q 175 988 149 988 q 201 983 188 988 q 227 967 215 978 q 247 941 239 957 q 254 901 254 925 q 231 847 254 872 q 163 821 207 821 z "},"k":{"ha":788,"x_min":32,"x_max":789,"o":"m 263 350 q 319 370 293 357 q 363 401 344 383 l 479 521 q 498 542 488 531 q 510 563 508 553 q 498 577 511 572 q 446 581 485 582 q 429 606 431 583 q 435 625 429 617 q 451 633 440 633 q 528 630 483 631 q 604 629 572 629 q 651 631 628 629 q 697 633 674 632 q 714 625 708 633 q 719 606 719 617 q 712 584 718 588 q 696 581 706 581 q 608 561 642 581 q 533 499 575 542 l 417 379 q 461 324 433 357 q 519 257 489 292 q 578 191 550 222 q 624 140 607 160 q 691 74 664 97 q 758 49 718 51 q 779 45 769 47 q 789 24 789 43 q 784 4 789 13 q 767 -4 779 -4 q 735 -2 747 -3 q 707 -1 724 -1 q 662 0 690 0 q 582 0 633 0 q 470 126 533 53 q 344 272 407 199 q 308 301 329 288 q 263 311 288 314 l 263 143 q 263 108 263 125 q 269 77 263 90 q 290 56 275 64 q 333 49 304 49 q 356 47 347 49 q 367 24 364 44 q 361 4 367 13 q 344 -4 356 -4 q 269 -1 304 -1 q 199 0 235 0 q 128 -1 161 0 q 54 -4 94 -1 q 38 4 43 -4 q 32 24 32 13 q 42 47 33 44 q 64 49 51 49 q 108 56 93 49 q 128 77 122 64 q 135 108 135 90 q 136 143 136 125 l 136 819 q 136 855 136 838 q 130 885 136 872 q 109 906 124 899 q 65 914 94 914 q 42 917 53 914 q 32 942 32 921 q 38 957 32 950 q 54 967 43 964 q 132 981 101 974 q 182 995 163 989 q 213 1006 201 1001 q 236 1011 225 1010 q 255 1007 247 1013 q 263 985 263 1001 l 263 350 z "},"l":{"ha":397,"x_min":32,"x_max":367,"o":"m 136 821 q 136 856 136 839 q 130 887 136 874 q 109 908 124 900 q 65 915 94 915 q 42 919 53 915 q 32 943 32 922 q 38 958 32 951 q 54 968 43 965 q 132 983 101 975 q 182 997 163 990 q 213 1007 201 1003 q 236 1013 225 1011 q 255 1008 247 1014 q 263 986 263 1003 l 263 143 q 263 108 263 125 q 269 77 263 90 q 290 56 275 64 q 335 49 306 49 q 356 47 347 49 q 367 24 365 44 q 361 4 367 13 q 344 -4 356 -4 q 270 -1 304 -1 q 199 0 236 0 q 128 -1 161 0 q 54 -4 94 -1 q 38 4 43 -4 q 32 24 32 13 q 42 47 33 44 q 64 49 51 49 q 108 56 93 49 q 128 77 122 64 q 135 108 135 90 q 136 143 136 125 l 136 821 z "},"m":{"ha":1244,"x_min":47,"x_max":1225,"o":"m 276 539 l 281 539 q 321 577 301 558 q 364 611 340 596 q 419 636 388 626 q 494 646 450 646 q 610 617 563 646 q 682 539 658 589 l 685 539 q 728 577 706 558 q 777 611 750 596 q 838 636 804 626 q 915 646 871 646 q 1066 589 1011 646 q 1121 439 1121 532 l 1121 143 q 1121 108 1121 125 q 1127 77 1121 90 q 1149 56 1133 64 q 1193 49 1164 49 q 1215 47 1206 49 q 1225 24 1224 44 q 1219 4 1225 13 q 1203 -4 1214 -4 q 1128 -1 1163 -1 q 1057 0 1094 0 q 986 -1 1019 0 q 913 -4 953 -1 q 896 4 901 -4 q 890 24 890 13 q 901 47 892 44 q 922 49 910 49 q 966 56 951 49 q 987 77 981 64 q 994 108 993 90 q 994 143 994 125 l 994 438 q 983 497 994 472 q 952 538 971 522 q 909 562 933 554 q 861 569 885 569 q 797 559 825 569 q 750 533 769 549 q 718 502 731 518 q 700 474 706 486 l 700 143 q 699 108 700 125 q 704 77 699 90 q 724 56 710 64 q 767 49 738 49 q 789 47 781 49 q 799 24 797 44 q 793 4 799 13 q 776 -4 788 -4 q 704 -1 736 -1 q 635 0 672 0 q 567 -1 599 0 q 496 -4 536 -1 q 479 4 485 -4 q 474 24 474 13 q 483 47 475 44 q 506 49 492 49 q 549 56 535 49 q 568 77 563 64 q 573 108 574 90 q 572 143 572 125 l 572 438 q 560 497 572 472 q 530 538 549 522 q 488 562 511 554 q 440 569 464 569 q 376 559 404 569 q 328 533 349 549 q 296 502 308 518 q 278 474 283 486 l 278 143 q 278 108 278 125 q 284 77 278 90 q 306 56 290 64 q 350 49 321 49 q 372 47 363 49 q 382 24 381 44 q 376 4 382 13 q 360 -4 371 -4 q 285 -1 319 -1 q 214 0 251 0 q 143 -1 176 0 q 69 -4 110 -1 q 53 4 58 -4 q 47 24 47 13 q 58 47 49 44 q 79 49 67 49 q 123 56 108 49 q 144 77 138 64 q 151 108 150 90 q 151 143 151 125 l 151 461 q 151 497 151 479 q 145 527 151 514 q 124 548 139 540 q 81 556 110 556 q 58 559 68 556 q 47 583 47 563 q 53 599 47 592 q 69 608 58 606 q 147 623 117 615 q 197 637 178 631 q 228 647 217 643 q 250 653 239 651 q 269 649 261 654 q 276 626 276 643 l 276 539 z "},"n":{"ha":832,"x_min":46,"x_max":813,"o":"m 275 539 l 279 539 q 321 577 300 558 q 367 611 342 596 q 426 636 393 626 q 503 646 458 646 q 653 589 599 646 q 708 439 708 532 l 708 143 q 708 108 708 125 q 715 77 708 90 q 736 56 721 64 q 781 49 751 49 q 802 47 793 49 q 813 24 811 44 q 807 4 813 13 q 790 -4 801 -4 q 716 -1 750 -1 q 644 0 682 0 q 574 -1 607 0 q 500 -4 540 -1 q 483 4 489 -4 q 478 24 478 13 q 488 47 479 44 q 510 49 497 49 q 553 56 539 49 q 574 77 568 64 q 581 108 581 90 q 582 143 582 125 l 582 438 q 570 497 582 472 q 540 538 558 522 q 497 562 521 554 q 449 569 472 569 q 383 559 413 569 q 333 533 354 549 q 297 502 311 518 q 276 474 282 486 l 276 143 q 276 108 276 125 q 283 77 276 90 q 304 56 289 64 q 349 49 319 49 q 370 47 361 49 q 381 24 379 44 q 375 4 381 13 q 358 -4 369 -4 q 284 -1 318 -1 q 213 0 250 0 q 142 -1 175 0 q 68 -4 108 -1 q 51 4 57 -4 q 46 24 46 13 q 57 47 49 44 q 79 49 65 49 q 123 56 108 49 q 144 77 138 64 q 150 108 150 90 q 150 143 150 125 l 150 461 q 150 497 150 479 q 144 527 150 514 q 123 548 138 540 q 79 556 108 556 q 56 559 67 556 q 46 583 46 563 q 51 599 46 592 q 68 608 57 606 q 146 623 115 615 q 196 637 176 631 q 226 647 215 643 q 249 653 238 651 q 267 649 260 654 q 275 626 275 643 l 275 539 z "},"o":{"ha":761,"x_min":57,"x_max":704,"o":"m 381 646 q 513 619 453 646 q 615 547 572 592 q 681 444 658 503 q 704 324 704 386 q 674 178 704 242 q 597 71 643 114 q 492 6 550 28 q 381 -17 435 -17 q 248 10 307 -17 q 146 82 189 38 q 80 185 103 126 q 57 306 57 243 q 87 451 57 388 q 163 558 117 515 q 267 624 210 601 q 381 646 325 646 m 381 35 q 465 58 431 35 q 522 122 500 82 q 553 213 543 161 q 563 324 563 265 q 552 427 563 378 q 520 514 542 476 q 464 573 499 551 q 381 594 429 594 q 294 572 329 594 q 238 509 260 549 q 208 418 217 469 q 199 308 199 367 q 208 205 199 254 q 240 117 218 156 q 296 57 261 79 q 381 35 331 35 z "},"p":{"ha":811,"x_min":32,"x_max":753,"o":"m 424 31 q 514 58 478 31 q 572 126 550 85 q 602 217 593 168 q 611 311 611 267 q 600 407 611 360 q 565 492 589 454 q 503 553 540 529 q 413 576 465 576 q 325 555 360 576 q 263 504 290 533 l 263 132 q 283 96 269 114 q 318 63 297 78 q 365 40 339 49 q 424 31 392 31 m 265 560 q 358 621 304 596 q 463 646 413 646 q 578 622 525 646 q 671 553 632 597 q 731 449 710 510 q 753 315 753 389 q 726 178 753 240 q 654 74 699 117 q 553 7 610 31 q 435 -17 496 -17 q 334 -3 372 -17 q 268 26 296 10 l 263 26 l 263 -142 q 263 -177 263 -160 q 271 -208 264 -194 q 292 -228 278 -221 q 335 -236 307 -236 q 356 -238 347 -236 q 367 -261 365 -240 q 361 -281 367 -272 q 344 -289 356 -289 q 270 -285 304 -286 q 199 -285 236 -285 q 128 -285 161 -285 q 54 -289 94 -286 q 38 -281 43 -289 q 32 -261 32 -272 q 42 -238 33 -240 q 64 -236 51 -236 q 106 -228 92 -236 q 128 -208 121 -221 q 135 -177 135 -194 q 136 -142 136 -160 l 136 461 q 136 497 136 479 q 130 527 136 514 q 109 548 124 540 q 65 556 94 556 q 42 559 53 556 q 32 583 32 563 q 38 599 32 592 q 54 608 43 606 q 132 623 101 615 q 182 637 163 631 q 213 647 201 643 q 235 653 224 651 q 253 649 246 654 q 261 626 261 643 l 261 560 l 265 560 z "},"q":{"ha":776,"x_min":57,"x_max":772,"o":"m 542 493 q 524 528 536 510 q 494 562 513 546 q 448 588 475 578 q 385 597 421 597 q 310 577 344 597 q 251 519 276 557 q 212 428 226 482 q 197 308 197 375 q 208 213 197 258 q 243 131 219 167 q 306 73 267 94 q 399 51 344 51 q 483 71 449 51 q 542 117 517 90 l 542 493 m 669 -142 q 670 -177 669 -160 q 677 -208 671 -194 q 698 -228 683 -221 q 740 -236 713 -236 q 763 -238 754 -236 q 772 -261 771 -240 q 767 -281 772 -272 q 750 -289 761 -289 q 676 -285 710 -286 q 604 -285 642 -285 q 534 -285 568 -285 q 460 -289 500 -286 q 444 -281 449 -289 q 439 -261 439 -272 q 449 -238 440 -240 q 471 -236 457 -236 q 512 -228 497 -236 q 533 -208 526 -221 q 541 -177 540 -194 q 542 -142 542 -160 l 542 63 l 538 63 q 465 9 513 35 q 353 -17 417 -17 q 238 7 292 -17 q 144 75 185 31 q 81 182 104 119 q 57 322 57 244 q 83 450 57 390 q 154 553 110 510 q 257 621 199 596 q 378 646 315 646 q 449 639 418 646 q 505 622 481 632 q 547 601 529 613 q 578 583 564 590 l 585 583 q 596 607 590 593 q 608 633 601 621 q 624 653 615 644 q 643 661 632 661 q 663 653 656 661 q 669 633 669 644 l 669 -142 z "},"r":{"ha":590,"x_min":46,"x_max":568,"o":"m 150 461 q 150 497 150 479 q 144 527 150 514 q 123 548 138 540 q 79 556 108 556 q 56 559 67 556 q 46 583 46 563 q 51 599 46 592 q 68 608 57 606 q 146 623 115 615 q 196 637 176 631 q 226 647 215 643 q 249 653 238 651 q 267 649 260 654 q 275 626 275 643 l 275 540 l 279 540 q 376 616 326 586 q 468 646 426 646 q 512 636 493 646 q 543 610 531 626 q 562 574 556 594 q 568 533 568 554 q 563 498 568 515 q 546 466 557 481 q 518 442 535 451 q 479 433 501 433 q 444 442 457 433 q 429 456 431 451 q 442 472 429 458 q 456 507 456 486 q 442 547 456 532 q 407 563 429 563 q 347 539 383 563 q 276 482 310 515 l 276 143 q 276 108 276 125 q 283 77 276 90 q 304 56 289 64 q 349 49 319 49 q 370 47 361 49 q 381 24 379 44 q 375 4 381 13 q 358 -4 369 -4 q 284 -1 318 -1 q 213 0 250 0 q 142 -1 175 0 q 68 -4 108 -1 q 51 4 57 -4 q 46 24 46 13 q 57 47 49 44 q 79 49 65 49 q 123 56 108 49 q 144 77 138 64 q 150 108 150 90 q 150 143 150 125 l 150 461 z "},"s":{"ha":615,"x_min":53,"x_max":558,"o":"m 303 -17 q 203 -7 249 -17 q 124 22 157 3 q 72 68 90 40 q 53 132 53 96 q 77 197 53 172 q 140 222 101 222 q 181 209 165 222 q 197 190 197 196 q 192 183 197 188 q 181 172 188 179 q 170 152 175 164 q 165 125 165 140 q 202 60 165 85 q 314 35 239 35 q 416 63 379 35 q 453 143 453 90 q 425 207 453 185 q 356 244 397 229 q 265 272 314 260 q 175 307 217 285 q 106 365 133 329 q 78 463 78 401 q 100 543 78 508 q 158 601 122 578 q 239 635 194 624 q 329 646 283 646 q 403 638 367 646 q 469 613 440 629 q 515 572 497 596 q 532 514 532 547 q 510 451 532 478 q 449 424 488 424 q 408 437 424 424 q 392 456 392 450 q 398 462 392 457 q 412 474 404 467 q 426 494 419 482 q 432 521 432 506 q 420 556 431 540 q 393 581 410 571 q 356 595 376 590 q 313 600 335 600 q 264 594 288 600 q 222 576 240 588 q 192 548 203 565 q 181 508 181 531 q 190 458 181 478 q 221 424 200 439 q 274 398 242 410 q 353 372 307 386 q 436 342 399 357 q 501 308 474 328 q 543 258 528 288 q 558 185 558 228 q 539 103 558 140 q 485 40 519 67 q 405 -1 451 14 q 303 -17 358 -17 z "},"t":{"ha":526,"x_min":35,"x_max":471,"o":"m 261 575 l 261 153 q 265 113 261 132 q 278 79 269 94 q 303 55 288 64 q 342 46 318 46 q 376 48 357 46 q 418 61 394 50 q 429 66 424 64 q 440 68 435 68 q 457 59 451 68 q 467 40 463 50 q 460 21 471 28 q 381 -15 417 -7 q 300 -24 344 -24 q 239 -12 268 -24 q 186 24 210 0 q 149 84 163 47 q 135 169 135 121 l 135 578 l 54 575 q 40 583 44 575 q 35 600 35 590 q 40 620 35 611 q 54 632 44 629 q 117 654 93 639 q 156 690 140 669 q 181 735 171 710 q 200 789 190 761 q 212 803 204 800 q 231 807 219 807 q 249 803 239 807 q 260 788 260 799 l 250 629 l 413 639 q 429 632 425 640 q 433 613 433 624 q 428 584 433 597 q 417 571 424 571 l 261 575 z "},"u":{"ha":828,"x_min":24,"x_max":819,"o":"m 686 132 q 796 50 686 50 q 815 42 811 50 q 819 24 819 33 q 796 0 819 4 l 572 -15 q 560 -7 561 -15 q 560 13 560 1 l 560 90 l 557 90 q 515 52 536 71 q 469 18 494 33 q 410 -7 443 3 q 333 -17 376 -17 q 183 40 238 -17 q 128 190 128 97 l 128 447 q 128 483 128 465 q 122 513 128 500 q 101 534 115 526 q 57 542 86 542 q 34 545 44 542 q 24 569 24 549 q 29 585 24 578 q 46 594 35 592 q 124 609 93 601 q 174 623 154 617 q 205 633 193 629 q 228 639 217 638 q 247 635 239 640 q 254 613 254 629 l 254 192 q 266 132 254 157 q 297 91 278 107 q 340 67 315 75 q 388 60 364 60 q 453 70 424 60 q 504 96 482 81 q 540 127 526 111 q 560 156 554 143 l 560 447 q 560 483 560 465 q 553 513 560 500 q 533 534 547 526 q 489 542 518 542 q 466 545 476 542 q 456 569 456 549 q 461 585 456 578 q 478 594 467 592 q 556 609 525 601 q 606 623 586 617 q 637 633 625 629 q 660 639 649 638 q 678 635 671 640 q 686 613 686 629 l 686 132 z "},"v":{"ha":765,"x_min":10,"x_max":768,"o":"m 350 -14 q 298 110 324 43 q 247 242 272 176 q 196 369 221 308 q 149 479 171 431 q 127 522 138 504 q 105 552 117 540 q 78 570 93 564 q 43 579 64 576 q 19 584 25 582 q 11 606 13 586 q 24 631 10 629 q 60 635 39 633 q 193 610 144 639 q 274 511 242 581 q 306 433 288 478 q 342 340 324 389 q 381 244 361 292 q 419 157 400 196 l 424 157 l 561 521 q 563 571 575 561 q 508 581 550 581 q 488 583 496 581 q 478 606 479 585 q 482 624 478 614 q 497 633 486 633 q 567 630 538 631 q 632 629 596 629 q 663 629 650 629 q 688 630 675 629 q 713 631 700 631 q 747 633 726 632 q 763 624 758 633 q 768 606 768 614 q 758 583 767 585 q 738 581 749 581 q 665 564 692 581 q 618 499 638 547 l 515 243 q 477 149 496 194 q 443 67 458 103 q 418 8 428 31 q 408 -14 408 -14 l 350 -14 z "},"w":{"ha":1108,"x_min":11,"x_max":1110,"o":"m 403 151 l 407 151 q 428 222 417 181 q 453 308 440 263 q 480 403 467 354 q 505 494 493 451 q 526 573 517 538 q 542 629 536 608 l 608 629 l 799 151 l 803 151 q 831 247 817 194 q 857 349 844 299 q 881 444 869 399 q 900 521 892 489 q 897 569 908 558 q 847 581 886 581 q 826 583 835 581 q 817 606 818 585 q 821 624 817 614 q 836 633 825 633 q 906 630 876 631 q 972 629 936 629 q 1003 629 990 629 q 1028 630 1017 629 q 1054 631 1040 631 q 1089 633 1068 632 q 1105 624 1100 633 q 1110 606 1110 614 q 1099 583 1108 585 q 1079 581 1090 581 q 1001 564 1029 581 q 960 499 972 547 l 806 -14 l 724 -14 l 547 440 l 410 -14 l 328 -14 l 150 479 q 128 522 139 504 q 106 552 118 540 q 80 570 94 564 q 44 579 65 576 q 20 584 26 582 q 13 606 14 586 q 26 631 11 629 q 61 635 40 633 q 194 610 146 639 q 275 511 243 581 l 403 151 z "},"x":{"ha":751,"x_min":24,"x_max":746,"o":"m 603 131 q 651 74 625 99 q 714 49 678 49 q 735 47 726 49 q 746 24 744 44 q 740 4 746 13 q 724 -4 735 -4 q 656 -1 683 -1 q 590 0 628 0 q 518 -1 553 0 q 443 -4 483 -1 q 426 4 432 -4 q 421 24 421 13 q 431 47 422 44 q 453 49 440 49 q 482 65 481 49 q 463 108 483 81 l 354 253 l 235 108 q 213 60 206 71 q 269 49 221 49 q 290 47 282 49 q 300 24 299 44 q 296 6 300 15 q 281 -4 292 -4 q 247 -2 261 -3 q 221 -1 233 -1 q 195 0 208 0 q 164 0 182 0 q 133 0 146 0 q 106 -1 119 0 q 79 -2 93 -1 q 44 -4 65 -3 q 28 6 33 -4 q 24 24 24 15 q 34 47 25 44 q 54 49 43 49 q 92 53 76 49 q 119 69 107 58 q 145 94 132 79 q 175 131 158 110 q 238 206 201 160 q 315 300 275 251 l 157 524 q 119 560 139 547 q 69 579 100 572 q 45 584 51 582 q 38 606 39 586 q 51 631 36 629 q 86 635 65 633 q 292 557 228 642 q 332 495 307 538 q 397 400 357 453 l 490 521 q 510 551 503 539 q 514 569 517 563 q 497 578 511 575 q 456 581 483 581 q 435 583 443 581 q 425 606 426 585 q 429 624 425 614 q 444 633 433 633 q 478 631 464 632 q 504 630 492 631 q 530 629 517 629 q 561 629 543 629 q 592 629 579 629 q 619 630 606 629 q 646 631 632 631 q 681 633 660 632 q 697 624 692 633 q 701 606 701 614 q 691 583 700 585 q 671 581 682 582 q 635 575 650 579 q 608 562 621 571 q 582 538 596 553 q 550 499 568 522 q 502 439 532 478 q 433 353 472 400 q 524 234 479 293 q 603 131 569 175 z "},"y":{"ha":767,"x_min":-18,"x_max":769,"o":"m 411 -14 q 367 -108 393 -58 q 308 -202 342 -158 q 231 -274 274 -246 q 135 -303 188 -303 q 76 -292 104 -303 q 28 -264 49 -282 q -6 -222 7 -246 q -18 -172 -18 -199 q -1 -115 -17 -135 q 31 -87 14 -96 q 60 -77 47 -78 q 71 -76 74 -76 q 111 -87 97 -76 q 125 -104 125 -97 q 115 -117 125 -107 q 103 -154 104 -128 q 118 -203 101 -179 q 169 -226 135 -226 q 224 -209 199 -226 q 270 -166 249 -192 q 309 -108 292 -140 q 340 -47 326 -76 q 339 17 350 -17 q 290 135 314 72 q 242 259 265 197 q 197 378 219 321 q 153 479 174 435 q 131 522 142 504 q 109 552 121 540 q 83 570 97 564 q 47 579 68 576 q 23 584 29 582 q 15 606 17 586 q 28 631 14 629 q 64 635 43 633 q 197 610 149 639 q 278 511 246 581 q 309 433 292 478 q 345 340 326 389 q 383 244 364 292 q 422 157 403 196 l 426 157 l 563 521 q 564 571 576 561 q 510 581 551 581 q 489 583 497 581 q 479 606 481 585 q 483 624 479 614 q 499 633 488 633 q 568 630 539 631 q 633 629 597 629 q 664 629 651 629 q 689 630 676 629 q 715 631 701 631 q 749 633 728 632 q 765 624 760 633 q 769 606 769 614 q 759 583 768 585 q 739 581 750 581 q 666 564 693 581 q 619 499 639 547 l 517 246 q 478 151 497 197 q 445 69 460 106 q 421 10 431 33 q 411 -14 411 -12 z "},"z":{"ha":697,"x_min":50,"x_max":640,"o":"m 431 44 q 487 50 464 44 q 526 73 510 56 q 551 122 542 90 q 568 206 561 153 q 582 222 569 217 q 610 228 594 228 q 631 222 621 228 q 640 203 640 215 l 617 32 q 606 6 614 11 q 585 0 597 0 l 183 0 q 153 0 165 0 q 129 -1 140 0 q 105 -2 118 -1 q 72 -4 92 -3 q 56 4 61 -4 q 50 24 50 13 q 60 47 51 44 q 82 49 68 49 q 115 51 101 49 q 138 60 128 53 q 156 80 147 67 q 176 115 165 93 l 368 514 q 383 553 381 539 q 381 575 386 568 q 364 583 376 582 q 332 585 351 585 l 274 585 q 217 579 240 585 q 178 556 194 574 q 153 507 163 539 q 136 424 143 475 q 122 407 135 413 q 94 401 110 401 q 74 408 83 401 q 64 426 64 414 l 88 597 q 99 624 90 618 q 119 629 107 629 l 500 629 q 531 629 518 629 q 555 630 543 629 q 579 631 567 631 q 613 633 592 632 q 629 625 624 633 q 635 606 635 617 q 624 583 633 585 q 603 581 615 581 q 570 578 583 581 q 547 569 557 576 q 527 549 536 563 q 507 514 518 536 l 317 115 q 301 76 304 90 q 303 54 299 61 q 321 46 308 47 q 353 44 333 44 l 431 44 z "},"{":{"ha":397,"x_min":24,"x_max":371,"o":"m 346 -303 q 277 -294 313 -301 q 213 -267 242 -287 q 165 -211 183 -247 q 146 -117 146 -175 q 147 -37 146 -79 q 151 48 149 6 q 155 131 153 90 q 157 207 157 172 q 154 244 157 225 q 140 281 151 264 q 106 310 129 297 q 39 326 82 322 q 28 337 32 328 q 24 353 24 346 q 28 369 24 360 q 39 379 32 378 q 106 396 82 383 q 140 425 129 408 q 154 461 151 442 q 157 499 157 481 q 155 574 157 533 q 151 658 153 615 q 147 741 149 700 q 146 817 146 782 q 164 913 146 876 q 210 971 182 950 q 274 1000 239 992 q 342 1010 308 1008 q 360 1008 353 1010 q 369 988 368 1007 q 365 972 369 979 q 349 963 360 965 q 291 943 313 956 q 258 913 269 931 q 244 874 247 896 q 240 831 240 853 q 243 756 240 796 q 250 676 246 717 q 257 595 254 635 q 260 521 260 556 q 233 416 260 463 q 139 356 206 369 l 139 350 q 232 290 204 336 q 260 185 260 244 q 257 109 260 149 q 250 29 254 69 q 243 -49 246 -11 q 240 -121 240 -87 q 244 -166 240 -144 q 258 -206 247 -187 q 288 -236 268 -224 q 342 -256 308 -249 q 360 -260 353 -258 q 369 -278 368 -262 q 365 -295 371 -287 q 346 -303 360 -303 z "},"|":{"ha":294,"x_min":108,"x_max":186,"o":"m 186 -271 q 174 -294 186 -286 q 147 -303 161 -303 q 120 -294 132 -303 q 108 -271 108 -286 l 108 979 q 120 1003 108 994 q 147 1011 132 1011 q 174 1003 161 1011 q 186 979 186 994 l 186 -271 z "},"}":{"ha":397,"x_min":26,"x_max":374,"o":"m 51 -303 q 32 -295 38 -303 q 28 -278 26 -287 q 37 -260 29 -262 q 56 -256 44 -258 q 109 -236 89 -249 q 140 -206 129 -224 q 153 -166 150 -187 q 157 -121 157 -144 q 154 -49 157 -87 q 147 29 151 -11 q 140 109 143 69 q 138 185 138 149 q 165 290 138 244 q 258 350 193 336 l 258 356 q 165 416 192 369 q 138 521 138 463 q 140 595 138 556 q 147 676 143 635 q 154 756 151 717 q 157 831 157 796 q 153 874 157 853 q 139 913 150 896 q 106 943 128 931 q 49 963 85 956 q 33 972 38 965 q 28 988 28 979 q 37 1008 29 1007 q 56 1010 44 1010 q 124 1000 89 1008 q 187 971 158 992 q 233 913 215 950 q 251 817 251 876 q 249 741 251 782 q 245 658 247 700 q 242 574 243 615 q 240 499 240 533 q 242 461 240 481 q 256 425 244 442 q 292 396 268 408 q 358 379 315 383 q 369 369 365 378 q 374 353 374 360 q 369 337 374 346 q 358 326 365 328 q 292 310 315 322 q 256 281 268 297 q 242 244 244 264 q 240 207 240 225 q 242 131 240 172 q 245 48 243 90 q 249 -37 247 6 q 251 -117 251 -79 q 233 -211 251 -175 q 185 -267 214 -247 q 120 -294 156 -287 q 51 -303 85 -301 z "},"~":{"ha":772,"x_min":57,"x_max":718,"o":"m 119 253 q 103 232 113 236 q 81 232 93 228 q 63 244 69 236 q 61 265 57 251 q 92 332 74 297 q 138 396 111 367 q 197 444 164 425 q 271 463 231 463 q 351 449 313 463 q 427 417 390 435 q 497 386 464 400 q 560 372 531 372 q 612 392 588 372 q 657 463 636 413 q 674 481 664 478 q 694 481 683 483 q 712 471 706 478 q 714 449 718 464 q 685 383 704 418 q 640 320 667 349 q 580 274 614 292 q 506 257 546 256 q 415 273 453 258 q 347 304 378 288 q 290 334 317 321 q 229 347 263 347 q 163 319 185 347 q 119 253 140 290 z "},"":{"ha":310,"x_min":0,"x_max":0,"o":""},"":{"ha":336,"x_min":79,"x_max":257,"o":"m 169 646 q 232 622 207 646 q 257 557 257 597 q 232 495 257 521 q 168 469 207 469 q 104 495 129 469 q 79 557 79 521 q 104 622 79 597 q 169 646 129 646 m 135 322 q 145 338 135 333 q 168 342 156 342 q 190 337 179 342 q 201 322 201 332 q 208 219 201 279 q 222 94 214 160 q 237 -39 231 28 q 243 -162 243 -106 q 227 -279 243 -233 q 168 -325 211 -325 q 109 -279 125 -325 q 93 -162 93 -233 q 99 -39 93 -106 q 114 94 106 28 q 128 219 122 160 q 135 322 135 279 z "},"":{"ha":681,"x_min":61,"x_max":619,"o":"m 378 -72 q 347 -107 378 -107 q 324 -98 331 -107 q 318 -72 318 -89 l 318 -14 q 128 89 196 1 q 61 315 61 176 q 83 431 63 378 q 137 525 103 483 q 217 595 171 567 q 318 636 264 624 l 318 674 q 324 699 318 689 q 347 708 331 708 q 378 674 378 708 l 378 644 l 399 644 q 460 640 425 644 q 528 619 496 635 q 583 576 560 604 q 606 500 606 547 q 581 426 606 460 q 511 393 557 393 q 464 408 481 393 q 447 431 447 424 q 454 438 447 432 q 470 453 461 443 q 486 476 479 463 q 493 507 493 489 q 461 572 493 551 q 389 594 429 593 l 378 594 l 378 53 l 396 53 q 499 78 458 53 q 575 157 540 104 q 589 164 581 164 q 609 156 599 164 q 619 136 619 147 q 615 125 619 131 q 508 25 571 63 q 378 -15 444 -12 l 378 -72 m 203 319 q 233 166 203 232 q 318 71 263 100 l 318 582 q 258 540 281 568 q 224 475 236 511 q 207 398 211 439 q 203 319 203 357 z "},"":{"ha":757,"x_min":61,"x_max":685,"o":"m 89 0 q 68 10 75 0 q 61 38 61 21 q 68 65 61 53 q 89 83 75 78 q 151 122 126 96 q 189 181 175 147 q 208 255 203 215 q 213 335 213 294 l 139 335 q 119 342 126 335 q 113 360 113 350 q 119 378 113 369 q 138 389 126 388 l 213 389 q 211 416 213 399 q 208 452 210 433 q 204 490 206 471 q 203 522 203 508 q 222 626 203 578 q 276 710 242 675 q 358 766 310 746 q 464 786 406 786 q 516 782 485 786 q 577 766 547 778 q 632 731 607 754 q 667 671 657 708 q 669 623 672 647 q 653 578 665 599 q 622 546 642 558 q 575 533 601 533 q 528 549 544 533 q 511 571 511 564 q 518 578 511 572 q 534 593 525 583 q 550 616 543 603 q 557 647 557 629 q 528 712 557 690 q 461 735 500 733 q 420 729 443 735 q 376 708 397 724 q 341 662 356 692 q 326 583 326 632 q 327 542 326 568 q 329 487 328 515 q 331 432 331 458 q 332 389 332 406 l 531 389 q 549 378 542 388 q 556 360 556 369 q 549 342 556 350 q 529 335 542 335 l 332 335 q 298 202 332 263 q 197 99 264 142 l 618 99 q 665 92 646 99 q 685 50 685 86 q 674 13 685 26 q 636 0 663 0 l 89 0 z "},"":{"ha":844,"x_min":90,"x_max":754,"o":"m 146 38 q 123 31 135 28 q 101 44 111 33 q 92 67 93 54 q 100 88 92 79 l 190 176 q 173 201 183 185 q 153 242 163 218 q 135 295 143 265 q 128 361 128 325 q 141 449 128 400 q 190 544 154 499 q 144 588 167 565 q 99 635 122 611 q 92 656 90 643 q 101 678 93 668 q 123 692 111 689 q 146 685 135 694 l 240 589 q 266 608 250 597 q 304 630 282 619 q 356 648 326 640 q 421 656 385 656 q 490 648 460 656 q 542 630 519 640 q 581 608 565 619 q 604 589 596 596 l 699 685 q 722 692 710 694 q 743 678 733 689 q 753 656 751 668 q 746 635 754 643 l 654 544 q 703 448 690 496 q 717 361 717 400 q 703 272 717 321 q 653 176 689 222 l 744 88 q 752 67 753 79 q 743 44 751 54 q 722 31 733 33 q 699 38 710 28 l 604 132 q 553 99 579 113 q 501 78 526 86 q 456 68 476 71 q 421 65 435 65 q 356 73 385 65 q 303 91 326 81 q 265 113 281 101 q 240 132 249 125 l 146 38 m 193 361 q 210 268 193 311 q 259 192 228 225 q 331 141 290 160 q 421 122 372 122 q 510 141 468 122 q 585 192 553 160 q 635 268 617 225 q 653 361 653 311 q 635 453 653 410 q 585 528 617 496 q 510 578 553 560 q 421 597 468 597 q 331 579 372 597 q 259 529 290 561 q 210 454 228 497 q 193 361 193 411 z "},"":{"ha":879,"x_min":51,"x_max":828,"o":"m 499 143 l 499 142 q 501 108 499 125 q 510 78 503 92 q 533 57 518 65 q 578 49 549 49 q 599 47 590 49 q 608 22 607 44 q 603 4 608 13 q 588 -4 599 -4 q 513 -1 547 -1 q 440 0 478 0 q 290 -4 369 0 q 273 4 278 -4 q 268 22 268 13 q 278 47 269 44 q 299 49 288 49 q 344 57 328 49 q 367 78 360 65 q 376 108 375 92 q 378 142 378 125 l 378 143 l 243 143 q 224 151 231 143 q 217 168 217 158 q 224 187 217 178 q 242 197 231 196 l 378 197 l 378 282 l 243 282 q 224 290 231 282 q 217 307 217 297 q 224 326 217 317 q 242 336 231 335 l 363 336 q 327 408 349 365 q 283 492 306 450 q 239 572 260 535 q 207 628 218 608 q 152 694 182 674 q 82 722 122 714 q 58 728 64 725 q 51 750 51 731 q 66 773 51 771 q 100 775 81 775 q 239 749 185 775 q 335 647 293 722 q 405 520 371 582 q 474 393 439 458 l 478 393 l 614 660 q 618 710 635 701 q 560 719 601 719 q 539 722 547 719 q 529 746 531 724 q 534 764 529 756 q 550 772 539 772 q 619 769 590 769 q 683 768 647 768 q 715 768 701 768 q 742 769 729 768 q 771 770 756 769 q 806 772 786 771 q 823 764 818 772 q 828 746 828 756 q 818 722 826 724 q 797 719 810 719 q 722 700 750 719 q 669 638 693 681 l 532 378 q 519 354 525 364 q 511 336 514 344 l 635 336 q 653 326 646 335 q 660 307 660 317 q 653 290 660 297 q 633 282 646 282 l 499 282 l 499 260 l 499 197 l 635 197 q 653 187 646 196 q 660 168 660 178 q 653 151 660 158 q 633 143 646 143 l 499 143 z "},"":{"ha":294,"x_min":108,"x_max":186,"o":"m 186 179 l 186 -271 q 174 -294 186 -286 q 147 -303 161 -303 q 120 -294 132 -303 q 108 -271 108 -286 l 108 179 q 120 203 108 194 q 147 211 132 211 q 174 203 161 211 q 186 179 186 194 m 186 511 q 174 488 186 496 q 147 479 163 479 q 121 488 133 479 q 108 511 108 496 l 108 979 q 120 1003 108 994 q 147 1011 132 1011 q 174 1003 161 1011 q 186 979 186 994 l 186 511 z "},"":{"ha":651,"x_min":75,"x_max":575,"o":"m 268 747 q 301 676 275 717 q 360 588 326 636 q 432 485 394 540 q 501 371 469 431 q 554 248 533 311 q 575 121 575 185 q 553 -11 575 50 q 491 -117 532 -72 q 392 -187 450 -161 q 260 -212 333 -212 q 206 -205 235 -212 q 154 -181 178 -197 q 115 -140 131 -165 q 99 -76 99 -114 q 123 1 99 -35 q 196 36 147 36 q 239 24 224 36 q 257 6 254 13 q 251 -3 257 3 q 237 -19 244 -10 q 223 -42 229 -29 q 217 -72 217 -56 q 225 -110 217 -93 q 247 -137 233 -126 q 278 -153 261 -147 q 310 -158 294 -158 q 368 -134 349 -158 q 388 -78 388 -110 q 365 -3 388 -43 q 307 88 342 38 q 231 198 272 139 q 156 320 190 257 q 98 451 121 383 q 75 586 75 518 q 103 733 75 672 q 175 831 131 793 q 277 885 219 868 q 393 903 335 903 q 446 895 418 903 q 498 871 474 888 q 538 828 522 854 q 554 767 554 803 q 530 690 554 725 q 457 654 506 654 q 414 666 429 654 q 396 685 399 678 q 402 692 396 686 q 416 708 408 699 q 430 731 424 718 q 436 761 436 744 q 427 799 436 783 q 405 826 418 815 q 375 843 392 838 q 343 849 358 849 q 285 826 306 849 q 265 771 265 803 q 266 760 265 765 q 268 747 267 754 m 193 783 q 160 699 169 744 q 151 614 151 654 q 188 443 151 531 q 275 270 225 356 q 376 102 325 185 q 454 -56 426 19 q 485 31 476 -14 q 494 114 494 75 q 456 282 494 200 q 365 446 417 364 q 265 611 314 528 q 193 783 215 694 z "},"":{"ha":538,"x_min":71,"x_max":482,"o":"m 158 926 q 218 903 194 926 q 242 843 242 879 q 217 785 242 810 q 157 760 193 760 q 96 785 121 760 q 71 843 71 810 q 97 903 71 879 q 158 926 122 926 m 399 926 q 458 903 435 926 q 482 843 482 879 q 458 785 482 810 q 397 760 433 760 q 336 785 361 760 q 311 843 311 810 q 337 903 311 879 q 399 926 363 926 z "},"":{"ha":1150,"x_min":65,"x_max":1085,"o":"m 808 289 q 717 184 772 214 q 578 154 661 154 q 478 174 525 154 q 397 228 432 193 q 340 315 361 264 q 319 432 319 367 q 340 548 319 496 q 396 638 360 600 q 482 695 432 675 q 592 715 532 715 q 635 712 606 715 q 697 696 665 708 q 752 660 728 683 q 781 596 776 636 q 758 529 781 558 q 696 500 736 500 q 651 515 664 500 q 639 536 639 529 q 646 546 639 540 q 661 559 653 551 q 676 578 669 567 q 683 606 683 589 q 657 654 683 638 q 590 672 631 671 q 471 610 515 669 q 426 436 426 550 q 440 346 426 388 q 476 273 453 304 q 533 224 500 242 q 608 206 567 206 q 702 236 667 206 q 757 307 738 267 q 781 326 768 326 q 801 319 792 326 q 811 301 811 311 q 808 289 811 297 m 1043 242 q 933 81 1003 150 q 770 -29 863 11 q 575 -69 678 -69 q 379 -29 472 -69 q 217 81 286 11 q 106 242 147 150 q 65 440 65 335 q 106 638 65 546 q 217 800 147 731 q 379 910 286 869 q 575 950 472 950 q 770 910 678 950 q 933 800 863 869 q 1044 638 1003 731 q 1085 440 1085 546 q 1043 242 1085 335 m 751 24 q 894 122 833 60 q 990 265 956 183 q 1025 440 1025 347 q 990 615 1025 533 q 894 758 956 697 q 751 856 833 819 q 575 892 669 892 q 399 856 481 892 q 256 758 317 819 q 160 615 194 697 q 125 440 125 533 q 160 265 125 347 q 256 122 194 183 q 399 24 317 60 q 575 -11 481 -11 q 751 24 669 -11 z "},"":{"ha":550,"x_min":58,"x_max":500,"o":"m 344 644 q 207 612 251 632 q 163 542 163 592 q 178 489 163 510 q 222 468 194 468 q 309 503 274 468 q 344 590 344 538 l 344 644 m 342 678 l 342 751 q 320 818 342 793 q 246 843 299 843 q 197 827 219 843 q 175 781 175 811 q 185 750 175 763 q 206 731 196 738 q 194 715 206 728 q 161 701 182 701 q 110 725 128 701 q 92 778 92 749 q 106 825 92 806 q 144 856 121 844 q 195 874 167 868 q 251 879 224 879 q 317 874 285 879 q 375 853 349 869 q 417 809 401 838 q 433 735 433 781 l 433 510 q 436 493 433 503 q 444 475 439 483 q 458 461 449 467 q 481 456 467 456 q 495 453 490 456 q 500 436 500 450 q 494 423 500 428 q 478 415 488 418 q 460 410 469 411 q 443 410 450 410 q 381 428 408 410 q 344 479 353 447 q 313 448 332 461 q 272 426 294 435 q 226 414 249 418 q 182 410 203 410 q 94 444 129 410 q 58 529 58 479 q 88 605 58 576 q 158 649 117 633 q 243 669 199 664 q 319 676 288 674 l 342 678 z "},"":{"ha":658,"x_min":56,"x_max":589,"o":"m 558 547 q 578 543 568 551 q 586 519 589 535 q 565 476 583 508 q 508 392 547 443 l 451 325 q 547 195 510 242 q 586 131 583 149 q 569 106 588 110 q 538 115 550 103 q 451 203 494 160 q 351 294 408 247 q 333 326 333 311 q 351 357 333 342 q 413 415 378 382 q 478 476 447 447 q 531 526 508 506 q 558 547 554 546 m 281 547 q 301 543 290 551 q 308 519 311 535 q 288 476 306 508 q 231 392 269 443 l 174 325 q 269 195 232 242 q 308 131 306 149 q 291 106 310 110 q 260 115 272 103 q 174 203 217 160 q 74 294 131 247 q 56 326 56 311 q 74 357 56 342 q 135 415 100 382 q 200 476 169 447 q 253 526 231 506 q 281 547 276 546 z "},"":{"ha":878,"x_min":94,"x_max":781,"o":"m 694 404 q 763 388 746 406 q 781 310 781 369 l 781 140 q 767 117 781 125 q 740 108 754 108 q 712 117 725 108 q 699 140 699 125 l 699 313 q 685 329 699 329 l 125 329 q 103 340 111 329 q 94 364 94 350 q 103 391 94 378 q 125 404 111 404 l 694 404 l 694 404 z "},"":{"ha":633,"x_min":86,"x_max":547,"o":"m 118 290 q 94 302 103 290 q 86 328 86 314 q 94 354 86 343 q 118 365 103 365 l 515 365 q 539 354 531 365 q 547 328 547 343 q 539 302 547 314 q 515 290 531 290 l 118 290 z "},"":{"ha":1150,"x_min":65,"x_max":1085,"o":"m 656 397 q 688 345 669 375 q 726 288 706 315 q 772 239 747 260 q 824 214 796 218 q 840 210 832 213 q 849 190 849 208 q 835 170 849 175 q 806 165 821 165 q 722 183 757 165 q 661 228 688 200 q 613 294 635 257 q 567 369 592 331 q 546 391 557 383 q 507 399 535 399 l 489 399 l 489 272 q 497 231 489 246 q 540 214 504 217 q 556 211 549 214 q 564 190 564 208 q 559 174 564 182 q 543 167 554 167 q 503 169 519 168 q 481 169 488 169 l 440 169 q 390 168 414 169 q 344 167 367 167 q 326 176 329 167 q 324 194 324 185 q 335 213 324 211 q 361 215 347 214 q 387 226 375 217 q 399 271 399 236 l 399 281 l 399 601 q 384 642 396 633 q 358 652 372 651 q 334 656 344 653 q 324 678 324 658 q 328 694 324 689 q 344 700 332 700 q 394 699 371 699 q 442 699 417 699 l 582 699 q 670 685 633 697 q 730 653 707 672 q 763 608 753 633 q 774 558 774 583 q 739 475 774 514 q 642 418 704 436 l 656 397 m 542 656 q 499 643 510 654 q 489 594 489 632 l 489 443 l 557 443 q 619 454 596 443 q 654 482 642 465 q 670 517 667 499 q 674 551 674 536 q 667 590 674 571 q 646 624 661 608 q 606 648 631 639 q 542 656 581 657 m 65 439 q 106 637 65 544 q 217 799 147 729 q 379 908 286 868 q 575 949 472 949 q 770 908 678 949 q 933 799 863 868 q 1044 637 1003 729 q 1085 439 1085 544 q 1044 241 1085 333 q 933 79 1003 149 q 770 -31 863 10 q 575 -71 678 -71 q 379 -31 472 -71 q 217 79 286 10 q 106 241 147 149 q 65 439 65 333 m 125 439 q 160 264 125 346 q 256 120 194 182 q 399 23 317 58 q 575 -12 481 -12 q 751 23 669 -12 q 894 120 833 58 q 990 264 956 182 q 1025 439 1025 346 q 990 614 1025 532 q 894 757 956 696 q 751 854 833 818 q 575 890 669 890 q 399 854 481 890 q 256 757 317 818 q 160 614 194 696 q 125 439 125 532 z "},"":{"ha":839,"x_min":69,"x_max":769,"o":"m 101 1014 q 78 1026 86 1014 q 69 1051 69 1038 q 78 1078 69 1067 q 101 1089 86 1089 l 738 1089 q 761 1078 753 1089 q 769 1051 769 1067 q 761 1026 769 1038 q 738 1014 753 1014 l 101 1014 z "},"":{"ha":563,"x_min":51,"x_max":513,"o":"m 282 879 q 376 862 333 879 q 449 816 418 844 q 496 751 479 788 q 513 674 513 714 q 491 581 513 621 q 435 513 469 540 q 360 470 401 485 q 282 456 319 456 q 187 473 229 456 q 115 519 144 490 q 68 584 85 547 q 51 661 51 621 q 72 754 51 714 q 126 822 93 794 q 201 865 160 850 q 282 879 242 879 m 282 499 q 340 513 317 499 q 376 551 363 526 q 397 606 390 575 q 403 674 403 638 q 397 737 403 707 q 376 788 390 767 q 338 823 361 810 q 282 836 315 836 q 224 823 247 836 q 186 786 200 810 q 166 731 172 763 q 160 664 160 700 q 166 601 160 631 q 187 548 172 571 q 224 512 201 525 q 282 499 247 499 z "},"":{"ha":814,"x_min":64,"x_max":750,"o":"m 364 665 q 378 690 364 681 q 408 700 392 700 q 438 690 424 700 q 451 665 451 681 l 451 404 l 719 404 q 742 392 733 404 q 750 367 750 381 q 742 341 750 353 q 719 329 733 329 l 451 329 l 451 146 q 438 121 451 131 q 407 111 424 111 q 378 121 392 111 q 364 146 364 131 l 364 329 l 94 329 q 72 341 81 329 q 64 367 64 353 q 72 392 64 381 q 94 404 81 404 l 364 404 l 364 665 m 96 0 q 72 12 81 0 q 64 38 64 24 q 72 64 64 53 q 96 75 81 75 l 718 75 q 742 64 733 75 q 750 38 750 53 q 742 12 750 24 q 718 0 733 0 l 96 0 z "},"":{"ha":526,"x_min":67,"x_max":463,"o":"m 81 757 q 97 813 81 789 q 140 851 114 836 q 196 872 165 865 q 256 879 226 879 q 321 871 289 879 q 378 845 353 863 q 420 799 404 828 q 436 731 436 771 q 408 636 436 676 q 340 563 381 596 q 254 502 300 531 q 171 444 208 474 l 411 444 q 449 438 435 444 q 463 404 463 432 q 453 376 463 388 q 422 365 443 365 l 106 365 q 76 376 85 365 q 67 404 67 388 q 80 442 67 428 q 113 468 93 456 q 186 518 147 490 q 258 579 225 546 q 313 653 292 613 q 335 743 335 694 q 312 810 335 786 q 247 833 289 833 q 192 817 214 833 q 169 771 169 800 q 174 750 169 758 q 185 736 179 742 q 195 726 190 731 q 200 718 200 722 q 186 699 200 711 q 151 688 172 688 q 98 707 115 688 q 81 757 81 726 z "},"":{"ha":499,"x_min":64,"x_max":438,"o":"m 206 599 q 190 606 194 599 q 186 624 186 614 q 190 642 186 633 q 206 650 194 650 l 242 650 q 297 683 276 654 q 317 750 317 711 q 299 810 317 786 q 239 833 282 833 q 185 820 207 833 q 163 776 163 807 q 167 758 163 765 q 178 744 172 750 q 190 733 185 738 q 196 725 196 729 q 181 707 196 718 q 144 696 167 696 q 92 717 110 696 q 74 768 74 738 q 88 818 74 797 q 127 853 103 839 q 181 873 151 867 q 240 879 211 879 q 302 873 271 879 q 358 851 333 867 q 399 811 383 836 q 414 750 414 786 q 392 681 414 715 q 324 626 369 647 q 365 614 344 622 q 401 590 385 606 q 428 553 418 575 q 438 499 438 531 q 421 426 438 456 q 376 378 404 397 q 310 351 347 360 q 235 343 274 343 q 175 349 206 343 q 120 369 144 356 q 80 403 96 382 q 64 457 64 425 q 81 507 64 485 q 133 529 97 529 q 171 515 158 529 q 183 494 183 501 q 166 475 181 488 q 151 447 151 463 q 176 405 151 419 q 238 390 200 390 q 306 415 278 390 q 333 497 333 439 q 312 568 333 540 q 242 599 290 596 l 206 599 z "},"":{"ha":307,"x_min":51,"x_max":271,"o":"m 118 719 q 85 703 103 703 q 61 710 71 703 q 51 733 51 718 q 57 753 51 743 l 161 943 q 211 975 176 975 q 253 956 236 975 q 271 917 271 938 q 260 885 271 897 l 118 719 z "},"":{"ha":824,"x_min":125,"x_max":775,"o":"m 206 -96 q 211 -167 206 -140 q 227 -208 217 -193 q 252 -227 238 -222 q 286 -232 267 -232 q 331 -219 311 -232 q 358 -192 351 -207 q 363 -165 364 -178 q 357 -142 361 -151 q 349 -126 353 -132 q 346 -117 346 -119 q 367 -103 349 -111 q 408 -106 385 -96 q 441 -130 429 -114 q 456 -166 453 -146 q 456 -207 460 -186 q 440 -244 451 -228 q 400 -280 425 -267 q 347 -298 375 -293 q 290 -301 318 -303 q 240 -293 263 -300 q 180 -259 203 -281 q 145 -209 157 -237 q 129 -147 133 -181 q 125 -78 125 -114 l 125 599 q 147 626 125 618 q 190 635 168 635 q 229 626 207 635 q 251 599 251 618 l 251 192 q 263 132 251 157 q 294 91 275 107 q 337 67 313 75 q 385 60 361 60 q 450 70 421 60 q 501 96 479 81 q 538 127 524 111 q 557 156 551 143 l 557 599 q 578 626 557 618 q 622 635 600 635 q 661 626 639 635 q 683 599 683 618 l 683 126 q 699 65 683 92 q 754 39 714 39 q 770 35 765 39 q 775 17 775 32 q 767 1 775 7 q 746 -9 758 -6 q 720 -14 733 -12 q 699 -15 707 -15 q 610 13 650 -15 q 558 90 569 42 l 554 90 q 513 49 533 68 q 469 16 493 31 q 414 -7 446 1 q 339 -15 382 -15 q 259 2 294 -15 q 208 61 224 19 l 206 61 l 206 -96 z "},"":{"ha":753,"x_min":79,"x_max":713,"o":"m 296 -212 q 204 -189 249 -211 q 140 -114 160 -167 q 135 -65 133 -90 q 148 -18 138 -40 q 177 19 158 4 q 222 36 196 33 q 272 26 254 39 q 293 6 290 13 q 286 -3 293 3 q 272 -20 279 -10 q 258 -45 264 -31 q 253 -78 251 -60 q 265 -116 254 -100 q 292 -142 276 -132 q 325 -156 307 -153 q 360 -157 343 -160 q 409 -117 392 -153 q 435 -35 426 -82 q 444 61 443 11 q 446 144 446 111 l 446 306 q 318 316 383 303 q 200 363 253 329 q 113 456 147 397 q 79 601 79 514 q 96 701 79 651 q 155 789 113 750 q 269 852 197 828 q 450 876 340 876 l 671 876 q 699 874 686 876 q 713 843 711 871 q 705 821 713 832 q 683 810 697 810 l 531 810 l 531 117 q 521 8 531 67 q 485 -100 511 -50 q 413 -183 458 -150 q 296 -212 367 -215 z "},"":{"ha":328,"x_min":75,"x_max":253,"o":"m 163 292 q 100 315 125 292 q 75 379 75 339 q 100 440 75 415 q 164 465 125 465 q 227 440 201 465 q 253 379 253 415 q 227 315 253 339 q 163 292 201 292 z "},"":{"ha":368,"x_min":44,"x_max":328,"o":"m 125 0 l 193 0 l 193 -57 q 241 -62 217 -57 q 285 -78 265 -67 q 316 -108 304 -90 q 328 -154 328 -126 q 309 -216 328 -190 q 257 -258 290 -242 q 176 -281 224 -274 q 72 -289 129 -289 q 51 -278 58 -289 q 44 -256 44 -268 q 53 -231 44 -236 q 72 -225 61 -225 q 128 -224 101 -225 q 178 -219 156 -224 q 213 -204 200 -214 q 226 -175 226 -194 q 205 -144 226 -153 q 147 -133 183 -136 q 133 -128 140 -132 q 125 -101 125 -124 l 125 0 z "},"":{"ha":465,"x_min":67,"x_max":428,"o":"m 94 785 q 76 793 79 785 q 72 813 72 801 q 80 837 72 833 q 101 840 88 840 q 160 847 132 840 q 212 861 189 853 q 250 876 235 869 q 271 882 265 882 q 288 876 281 882 q 294 858 294 869 l 294 494 q 300 449 294 465 q 318 424 306 432 q 351 414 331 415 q 400 413 371 413 q 422 409 415 413 q 428 390 428 406 q 424 371 428 379 q 404 363 419 363 q 365 363 388 363 q 322 364 343 364 q 280 365 300 364 q 247 365 260 365 q 215 365 235 365 q 174 364 196 364 q 129 363 151 364 q 90 363 107 363 q 71 371 75 363 q 67 390 67 379 q 74 410 68 407 q 92 413 81 413 q 143 414 122 413 q 176 424 164 415 q 194 449 189 432 q 200 494 200 465 l 200 717 q 195 756 200 742 q 178 776 190 769 q 145 783 165 782 q 94 785 125 785 z "},"":{"ha":565,"x_min":53,"x_max":514,"o":"m 283 879 q 377 860 335 879 q 450 810 419 842 q 497 737 481 778 q 514 651 514 696 q 492 548 514 593 q 437 472 471 503 q 362 426 403 442 q 283 410 321 410 q 188 428 231 410 q 116 479 146 447 q 69 552 86 511 q 53 638 53 593 q 74 741 53 696 q 128 817 94 786 q 202 863 161 847 q 283 879 243 879 m 283 454 q 341 470 318 454 q 378 513 364 486 q 398 576 392 540 q 404 651 404 611 q 398 722 404 689 q 377 781 392 756 q 340 821 363 806 q 283 836 317 836 q 225 820 249 836 q 188 778 201 804 q 167 715 174 751 q 161 640 161 679 q 167 569 161 603 q 188 510 174 536 q 226 469 203 485 q 283 454 249 454 z "},"":{"ha":657,"x_min":69,"x_max":603,"o":"m 100 547 q 127 526 104 546 q 181 476 150 506 q 245 415 211 447 q 307 357 279 382 q 325 326 325 342 q 307 294 325 311 q 207 203 250 247 q 121 115 164 160 q 106 106 114 108 q 90 106 97 104 q 76 114 82 108 q 72 131 71 119 q 112 195 75 149 q 207 325 149 242 l 150 392 q 93 476 111 443 q 72 519 75 508 q 80 543 69 535 q 100 547 90 551 m 378 547 q 405 526 382 546 q 458 476 428 506 q 523 415 489 447 q 585 357 557 382 q 603 326 603 342 q 585 294 603 311 q 485 203 528 247 q 399 115 442 160 q 383 106 392 108 q 367 106 375 104 q 354 114 360 108 q 350 131 349 119 q 390 195 353 149 q 485 325 426 242 l 428 392 q 371 476 389 443 q 350 519 353 508 q 358 543 347 535 q 378 547 368 551 z "},"":{"ha":1124,"x_min":72,"x_max":1068,"o":"m 429 19 q 406 1 421 6 q 381 1 392 -3 q 358 19 365 7 q 357 46 351 32 l 771 857 q 794 876 779 872 q 821 875 808 879 q 844 856 836 869 q 846 829 851 842 l 429 19 m 100 785 q 81 793 85 785 q 78 813 78 801 q 85 837 78 833 q 107 840 93 840 q 166 847 138 840 q 217 861 194 853 q 256 876 240 869 q 276 882 271 882 q 293 876 286 882 q 300 858 300 869 l 300 494 q 306 449 300 465 q 324 424 311 432 q 356 414 336 415 q 406 413 376 413 q 427 409 421 413 q 433 390 433 406 q 429 371 433 379 q 410 363 425 363 q 371 363 393 363 q 327 364 349 364 q 285 365 306 364 q 253 365 265 365 q 221 365 240 365 q 179 364 201 364 q 135 363 157 364 q 96 363 113 363 q 76 371 81 363 q 72 390 72 379 q 80 410 74 407 q 97 413 86 413 q 149 414 128 413 q 182 424 169 415 q 200 449 194 432 q 206 494 206 465 l 206 717 q 201 756 206 742 q 183 776 196 769 q 151 783 171 782 q 100 785 131 785 m 674 154 q 645 162 658 154 q 632 188 632 169 q 635 203 632 197 l 911 506 q 928 515 919 513 q 944 517 936 517 q 972 508 958 517 q 988 481 986 500 l 988 210 l 1039 210 q 1059 206 1051 210 q 1068 183 1067 203 q 1064 163 1068 172 q 1044 154 1060 154 l 988 154 l 988 15 q 973 -2 988 4 q 940 -8 958 -8 q 908 -2 922 -8 q 893 15 894 4 l 893 154 l 674 154 m 893 210 l 893 418 q 803 315 849 365 q 708 210 757 265 l 893 210 z "},"":{"ha":1183,"x_min":69,"x_max":1126,"o":"m 426 19 q 403 1 418 6 q 378 1 389 -3 q 356 19 363 7 q 354 46 349 32 l 768 857 q 791 876 776 872 q 818 875 806 879 q 841 856 833 869 q 843 829 849 842 l 426 19 m 744 393 q 761 449 744 425 q 803 487 778 472 q 860 508 829 501 q 919 515 890 515 q 985 507 953 515 q 1042 481 1017 499 q 1084 435 1068 464 q 1100 367 1100 407 q 1072 272 1100 313 q 1004 199 1044 232 q 918 138 964 167 q 835 81 872 110 l 1075 81 q 1113 74 1099 81 q 1126 40 1126 68 q 1117 13 1126 24 q 1086 1 1107 1 l 769 1 q 740 13 749 1 q 731 40 731 24 q 744 78 731 64 q 776 104 757 92 q 850 154 811 126 q 922 215 889 182 q 977 290 956 249 q 999 379 999 331 q 976 446 999 422 q 911 469 953 469 q 856 453 878 469 q 833 407 833 436 q 838 386 833 394 q 849 372 843 378 q 859 363 854 367 q 864 354 864 358 q 850 335 864 347 q 815 324 836 324 q 762 343 779 324 q 744 393 744 363 m 97 785 q 78 793 82 785 q 75 813 75 801 q 83 837 75 833 q 104 840 90 840 q 163 847 135 840 q 215 861 192 853 q 253 876 238 869 q 274 882 268 882 q 290 876 283 882 q 297 858 297 869 l 297 494 q 303 449 297 465 q 321 424 308 432 q 353 414 333 415 q 403 413 374 413 q 424 409 418 413 q 431 390 431 406 q 426 371 431 379 q 407 363 422 363 q 368 363 390 363 q 324 364 346 364 q 283 365 303 364 q 250 365 263 365 q 218 365 238 365 q 176 364 199 364 q 132 363 154 364 q 93 363 110 363 q 74 371 78 363 q 69 390 69 379 q 77 410 71 407 q 94 413 83 413 q 146 414 125 413 q 179 424 167 415 q 197 449 192 432 q 203 494 203 465 l 203 717 q 198 756 203 742 q 181 776 193 769 q 148 783 168 782 q 97 785 128 785 z "},"":{"ha":1183,"x_min":71,"x_max":1131,"o":"m 450 19 q 427 1 442 6 q 401 1 413 -3 q 379 19 386 7 q 378 46 372 32 l 792 857 q 815 876 800 872 q 842 875 829 879 q 865 856 857 869 q 867 829 872 842 l 450 19 m 736 154 q 708 162 721 154 q 694 188 694 169 q 697 203 694 197 l 974 506 q 990 515 982 513 q 1007 517 999 517 q 1035 508 1021 517 q 1050 481 1049 500 l 1050 210 l 1101 210 q 1122 206 1114 210 q 1131 183 1129 203 q 1126 163 1131 172 q 1107 154 1122 154 l 1050 154 l 1050 15 q 1035 -2 1050 4 q 1003 -8 1021 -8 q 971 -2 985 -8 q 956 15 957 4 l 956 154 l 736 154 m 956 210 l 956 418 q 865 315 911 365 q 771 210 819 265 l 956 210 m 213 599 q 197 606 201 599 q 193 624 193 614 q 197 642 193 633 q 213 650 201 650 l 249 650 q 303 683 283 654 q 324 750 324 711 q 306 810 324 786 q 246 833 289 833 q 192 820 214 833 q 169 776 169 807 q 174 758 169 765 q 185 744 179 750 q 197 733 192 738 q 203 725 203 729 q 188 707 203 718 q 151 696 174 696 q 99 717 117 696 q 81 768 81 738 q 95 818 81 797 q 134 853 110 839 q 188 873 158 867 q 247 879 218 879 q 309 873 278 879 q 365 851 340 867 q 406 811 390 836 q 421 750 421 786 q 399 681 421 715 q 331 626 376 647 q 372 614 351 622 q 408 590 392 606 q 435 553 425 575 q 444 499 444 531 q 428 426 444 456 q 383 378 411 397 q 317 351 354 360 q 242 343 281 343 q 182 349 213 343 q 127 369 151 356 q 87 403 103 382 q 71 457 71 425 q 88 507 71 485 q 140 529 104 529 q 178 515 165 529 q 190 494 190 501 q 173 475 188 488 q 158 447 158 463 q 183 405 158 419 q 244 390 207 390 q 313 415 285 390 q 340 497 340 439 q 319 568 340 540 q 249 599 297 596 l 213 599 z "},"":{"ha":600,"x_min":57,"x_max":549,"o":"m 143 306 q 211 353 174 336 q 283 369 249 369 q 344 358 314 369 q 397 324 374 346 q 433 269 419 301 q 447 199 447 238 q 435 141 447 167 q 401 94 422 115 q 354 54 381 72 q 301 19 328 36 q 250 -14 275 3 q 206 -50 225 -31 q 174 -92 186 -69 q 163 -144 163 -115 q 197 -234 163 -196 q 289 -272 231 -272 q 335 -265 311 -272 q 377 -245 358 -258 q 408 -212 396 -232 q 419 -168 419 -193 q 404 -124 419 -140 q 378 -97 389 -107 q 368 -87 368 -90 q 387 -65 368 -81 q 440 -49 406 -49 q 492 -62 469 -49 q 528 -96 514 -75 q 545 -142 542 -117 q 543 -193 549 -168 q 499 -262 532 -236 q 428 -303 467 -289 q 354 -321 390 -317 q 297 -325 318 -325 q 172 -304 219 -325 q 99 -253 125 -283 q 65 -190 74 -222 q 57 -132 57 -157 q 72 -62 57 -93 q 110 -3 86 -31 q 165 46 135 24 q 224 88 194 68 q 274 124 250 106 q 318 161 299 142 q 349 203 338 181 q 361 253 361 226 q 344 296 361 279 q 307 313 326 313 q 263 301 283 313 q 222 269 242 289 q 197 253 210 257 q 174 250 185 249 q 138 269 150 251 q 143 306 125 286 m 304 646 q 367 622 342 646 q 392 557 392 597 q 367 495 392 521 q 303 469 342 469 q 239 495 264 469 q 214 557 214 521 q 239 622 214 597 q 304 646 264 646 z "},"":{"ha":907,"x_min":-17,"x_max":915,"o":"m 272 338 l 564 338 l 424 694 l 419 694 l 272 338 m 328 885 q 403 878 371 885 q 462 857 436 872 q 508 813 488 842 q 549 738 529 783 l 782 163 q 797 126 789 144 q 817 92 806 107 q 843 66 828 76 q 881 56 858 56 q 905 53 896 56 q 915 26 914 50 q 909 6 915 15 q 890 -4 903 -4 q 813 -1 846 -1 q 738 0 779 0 q 565 -4 654 0 q 546 6 551 -4 q 540 26 540 15 q 551 53 542 50 q 575 56 560 56 q 626 62 608 56 q 649 81 644 68 q 651 113 654 93 q 636 163 647 133 l 589 278 l 246 278 q 201 163 213 193 q 186 106 190 126 q 190 74 182 85 q 222 59 199 63 q 285 56 244 56 q 309 53 300 56 q 319 26 318 50 q 313 6 319 15 q 294 -4 307 -4 q 217 -1 250 -1 q 143 0 185 0 q 107 0 122 0 q 77 -1 92 0 q 47 -2 63 -1 q 8 -4 31 -3 q -11 6 -6 -4 q -17 26 -17 15 q -6 53 -15 50 q 18 56 3 56 q 63 65 46 56 q 92 89 81 74 q 113 124 104 104 q 129 163 121 143 l 372 738 q 379 778 382 763 q 366 803 376 793 q 340 817 356 813 q 307 825 324 822 q 279 833 286 829 q 272 857 272 836 q 288 883 272 881 q 328 885 304 885 m 392 935 q 326 970 364 949 q 252 1015 288 992 q 192 1060 217 1038 q 168 1100 168 1082 q 185 1136 168 1119 q 219 1153 203 1153 q 272 1127 236 1153 q 345 1069 308 1101 q 410 1006 382 1036 q 439 965 439 975 q 428 942 439 953 q 404 932 418 932 q 392 935 396 932 z "},"":{"ha":907,"x_min":-17,"x_max":915,"o":"m 272 338 l 564 338 l 424 694 l 419 694 l 272 338 m 328 885 q 403 878 371 885 q 462 857 436 872 q 508 813 488 842 q 549 738 529 783 l 782 163 q 797 126 789 144 q 817 92 806 107 q 843 66 828 76 q 881 56 858 56 q 905 53 896 56 q 915 26 914 50 q 909 6 915 15 q 890 -4 903 -4 q 813 -1 846 -1 q 738 0 779 0 q 565 -4 654 0 q 546 6 551 -4 q 540 26 540 15 q 551 53 542 50 q 575 56 560 56 q 626 62 608 56 q 649 81 644 68 q 651 113 654 93 q 636 163 647 133 l 589 278 l 246 278 q 201 163 213 193 q 186 106 190 126 q 190 74 182 85 q 222 59 199 63 q 285 56 244 56 q 309 53 300 56 q 319 26 318 50 q 313 6 319 15 q 294 -4 307 -4 q 217 -1 250 -1 q 143 0 185 0 q 107 0 122 0 q 77 -1 92 0 q 47 -2 63 -1 q 8 -4 31 -3 q -11 6 -6 -4 q -17 26 -17 15 q -6 53 -15 50 q 18 56 3 56 q 63 65 46 56 q 92 89 81 74 q 113 124 104 104 q 129 163 121 143 l 372 738 q 379 778 382 763 q 366 803 376 793 q 340 817 356 813 q 307 825 324 822 q 279 833 286 829 q 272 857 272 836 q 288 883 272 881 q 328 885 304 885 m 361 935 q 349 932 357 932 q 324 942 333 932 q 314 965 314 953 q 328 990 314 975 q 363 1025 342 1004 q 410 1069 385 1046 q 460 1113 436 1093 q 504 1142 485 1132 q 533 1153 524 1153 q 567 1136 550 1153 q 585 1100 585 1119 q 560 1058 585 1079 q 501 1016 536 1038 q 427 972 465 994 q 361 935 389 949 z "},"":{"ha":907,"x_min":-17,"x_max":915,"o":"m 272 338 l 564 338 l 424 694 l 419 694 l 272 338 m 328 885 q 403 878 371 885 q 462 857 436 872 q 508 813 488 842 q 549 738 529 783 l 782 163 q 797 126 789 144 q 817 92 806 107 q 843 66 828 76 q 881 56 858 56 q 905 53 896 56 q 915 26 914 50 q 909 6 915 15 q 890 -4 903 -4 q 813 -1 846 -1 q 738 0 779 0 q 565 -4 654 0 q 546 6 551 -4 q 540 26 540 15 q 551 53 542 50 q 575 56 560 56 q 626 62 608 56 q 649 81 644 68 q 651 113 654 93 q 636 163 647 133 l 589 278 l 246 278 q 201 163 213 193 q 186 106 190 126 q 190 74 182 85 q 222 59 199 63 q 285 56 244 56 q 309 53 300 56 q 319 26 318 50 q 313 6 319 15 q 294 -4 307 -4 q 217 -1 250 -1 q 143 0 185 0 q 107 0 122 0 q 77 -1 92 0 q 47 -2 63 -1 q 8 -4 31 -3 q -11 6 -6 -4 q -17 26 -17 15 q -6 53 -15 50 q 18 56 3 56 q 63 65 46 56 q 92 89 81 74 q 113 124 104 104 q 129 163 121 143 l 372 738 q 379 778 382 763 q 366 803 376 793 q 340 817 356 813 q 307 825 324 822 q 279 833 286 829 q 272 857 272 836 q 288 883 272 881 q 328 885 304 885 m 358 1129 q 392 1142 376 1142 q 425 1129 408 1142 l 601 1000 q 613 975 613 990 q 607 958 613 965 q 590 951 601 951 l 586 951 q 491 990 542 963 q 392 1042 440 1017 q 292 990 343 1017 q 197 951 242 963 l 193 951 q 176 958 182 951 q 169 975 169 965 q 182 1000 169 989 l 358 1129 z "},"":{"ha":907,"x_min":-17,"x_max":915,"o":"m 272 338 l 564 338 l 424 694 l 419 694 l 272 338 m 328 885 q 403 878 371 885 q 462 857 436 872 q 508 813 488 842 q 549 738 529 783 l 782 163 q 797 126 789 144 q 817 92 806 107 q 843 66 828 76 q 881 56 858 56 q 905 53 896 56 q 915 26 914 50 q 909 6 915 15 q 890 -4 903 -4 q 813 -1 846 -1 q 738 0 779 0 q 565 -4 654 0 q 546 6 551 -4 q 540 26 540 15 q 551 53 542 50 q 575 56 560 56 q 626 62 608 56 q 649 81 644 68 q 651 113 654 93 q 636 163 647 133 l 589 278 l 246 278 q 201 163 213 193 q 186 106 190 126 q 190 74 182 85 q 222 59 199 63 q 285 56 244 56 q 309 53 300 56 q 319 26 318 50 q 313 6 319 15 q 294 -4 307 -4 q 217 -1 250 -1 q 143 0 185 0 q 107 0 122 0 q 77 -1 92 0 q 47 -2 63 -1 q 8 -4 31 -3 q -11 6 -6 -4 q -17 26 -17 15 q -6 53 -15 50 q 18 56 3 56 q 63 65 46 56 q 92 89 81 74 q 113 124 104 104 q 129 163 121 143 l 372 738 q 379 778 382 763 q 366 803 376 793 q 340 817 356 813 q 307 825 324 822 q 279 833 286 829 q 272 857 272 836 q 288 883 272 881 q 328 885 304 885 m 633 1083 q 610 1040 624 1061 q 577 1001 596 1018 q 535 973 558 983 q 483 963 511 963 q 428 975 454 963 q 378 1003 401 988 q 335 1031 356 1018 q 296 1043 314 1043 q 255 1030 279 1043 q 204 985 231 1017 q 181 974 194 974 q 163 981 171 974 q 156 997 156 988 q 172 1040 156 1010 q 209 1090 188 1069 q 257 1124 231 1111 q 311 1136 283 1136 q 367 1124 340 1136 q 416 1096 393 1111 q 460 1068 439 1081 q 499 1056 481 1056 q 540 1069 515 1056 q 590 1114 565 1083 q 613 1125 600 1125 q 630 1118 622 1125 q 638 1099 638 1111 q 633 1083 638 1092 z "},"":{"ha":907,"x_min":-17,"x_max":915,"o":"m 272 338 l 564 338 l 424 694 l 419 694 l 272 338 m 328 885 q 403 878 371 885 q 462 857 436 872 q 508 813 488 842 q 549 738 529 783 l 782 163 q 797 126 789 144 q 817 92 806 107 q 843 66 828 76 q 881 56 858 56 q 905 53 896 56 q 915 26 914 50 q 909 6 915 15 q 890 -4 903 -4 q 813 -1 846 -1 q 738 0 779 0 q 565 -4 654 0 q 546 6 551 -4 q 540 26 540 15 q 551 53 542 50 q 575 56 560 56 q 626 62 608 56 q 649 81 644 68 q 651 113 654 93 q 636 163 647 133 l 589 278 l 246 278 q 201 163 213 193 q 186 106 190 126 q 190 74 182 85 q 222 59 199 63 q 285 56 244 56 q 309 53 300 56 q 319 26 318 50 q 313 6 319 15 q 294 -4 307 -4 q 217 -1 250 -1 q 143 0 185 0 q 107 0 122 0 q 77 -1 92 0 q 47 -2 63 -1 q 8 -4 31 -3 q -11 6 -6 -4 q -17 26 -17 15 q -6 53 -15 50 q 18 56 3 56 q 63 65 46 56 q 92 89 81 74 q 113 124 104 104 q 129 163 121 143 l 372 738 q 379 778 382 763 q 366 803 376 793 q 340 817 356 813 q 307 825 324 822 q 279 833 286 829 q 272 857 272 836 q 288 883 272 881 q 328 885 304 885 m 264 1140 q 324 1117 300 1140 q 347 1057 347 1093 q 323 999 347 1024 q 263 974 299 974 q 201 999 226 974 q 176 1057 176 1024 q 202 1117 176 1093 q 264 1140 228 1140 m 531 1140 q 590 1117 567 1140 q 614 1057 614 1093 q 590 999 614 1024 q 529 974 565 974 q 468 999 493 974 q 443 1057 443 1024 q 469 1117 443 1093 q 531 1140 494 1140 z "},"":{"ha":907,"x_min":-17,"x_max":915,"o":"m 272 338 l 564 338 l 424 694 l 419 694 l 272 338 m 328 885 q 403 878 371 885 q 462 857 436 872 q 508 813 488 842 q 549 738 529 783 l 782 163 q 797 126 789 144 q 817 92 806 107 q 843 66 828 76 q 881 56 858 56 q 905 53 896 56 q 915 26 914 50 q 909 6 915 15 q 890 -4 903 -4 q 813 -1 846 -1 q 738 0 779 0 q 565 -4 654 0 q 546 6 551 -4 q 540 26 540 15 q 551 53 542 50 q 575 56 560 56 q 626 62 608 56 q 649 81 644 68 q 651 113 654 93 q 636 163 647 133 l 589 278 l 246 278 q 201 163 213 193 q 186 106 190 126 q 190 74 182 85 q 222 59 199 63 q 285 56 244 56 q 309 53 300 56 q 319 26 318 50 q 313 6 319 15 q 294 -4 307 -4 q 217 -1 250 -1 q 143 0 185 0 q 107 0 122 0 q 77 -1 92 0 q 47 -2 63 -1 q 8 -4 31 -3 q -11 6 -6 -4 q -17 26 -17 15 q -6 53 -15 50 q 18 56 3 56 q 63 65 46 56 q 92 89 81 74 q 113 124 104 104 q 129 163 121 143 l 372 738 q 379 778 382 763 q 366 803 376 793 q 340 817 356 813 q 307 825 324 822 q 279 833 286 829 q 272 857 272 836 q 288 883 272 881 q 328 885 304 885 m 544 1057 q 504 960 544 996 q 394 925 464 925 q 283 961 324 925 q 242 1057 242 997 q 394 1193 242 1193 q 506 1157 468 1193 q 544 1057 544 1121 m 454 1057 q 442 1121 454 1097 q 394 1144 429 1144 q 347 1119 363 1144 q 332 1057 332 1094 q 394 976 332 976 q 442 999 431 976 q 454 1057 454 1021 z "},"":{"ha":1253,"x_min":-14,"x_max":1206,"o":"m 581 821 q 551 813 560 822 q 532 785 543 804 l 340 404 l 613 404 l 613 821 l 581 821 m 1113 876 q 1138 869 1128 876 q 1149 843 1149 863 l 1153 649 q 1140 628 1153 635 q 1115 621 1126 621 q 1088 627 1100 621 q 1072 646 1075 633 q 1056 726 1065 693 q 1033 779 1047 758 q 995 810 1018 800 q 936 821 972 819 l 750 821 l 750 468 l 1001 468 q 1017 457 1013 467 q 1022 436 1022 447 q 1017 417 1022 425 q 1001 408 1013 408 l 750 408 l 750 146 q 753 116 751 132 q 763 86 754 100 q 792 63 772 72 q 847 56 811 54 l 975 56 q 1034 65 1011 57 q 1072 91 1057 72 q 1099 140 1088 110 q 1124 217 1110 171 q 1142 235 1129 231 q 1171 236 1156 239 q 1194 226 1182 233 q 1204 204 1206 218 l 1176 29 q 1163 5 1172 10 q 1136 0 1154 0 l 678 0 q 597 -1 636 0 q 511 -4 557 -1 q 493 6 499 -4 q 488 26 488 15 q 498 53 489 50 q 522 56 507 56 q 574 65 556 56 q 600 89 592 74 q 610 124 608 104 q 613 163 613 143 l 613 344 l 311 344 l 218 163 q 194 107 200 128 q 195 74 188 86 q 225 59 203 63 q 288 56 247 56 q 312 53 303 56 q 322 26 321 50 q 316 6 322 15 q 297 -4 310 -4 q 220 -1 253 -1 q 146 0 188 0 q 110 0 125 0 q 80 -1 94 0 q 49 -2 65 -1 q 11 -4 33 -3 q -8 6 -3 -4 q -14 26 -14 15 q -3 53 -12 50 q 21 56 6 57 q 60 63 42 54 q 94 88 78 72 q 123 122 110 103 q 146 163 136 142 l 442 738 q 449 776 451 763 q 435 799 446 790 q 409 810 425 807 q 376 817 393 814 q 348 824 356 821 q 342 849 340 828 q 358 874 343 872 q 397 876 374 876 l 1113 876 z "},"":{"ha":888,"x_min":68,"x_max":839,"o":"m 828 708 q 819 652 828 679 q 792 604 810 625 q 747 571 774 583 q 686 558 721 558 q 651 565 665 558 q 627 579 636 571 q 615 596 618 588 q 611 608 611 604 q 622 617 611 611 q 646 635 633 624 q 669 666 658 647 q 681 713 681 685 q 639 812 681 775 q 521 849 597 849 q 405 822 458 849 q 313 742 351 794 q 252 614 274 690 q 231 440 231 538 q 253 284 231 357 q 318 157 276 211 q 418 72 360 103 q 547 40 476 40 q 675 71 622 40 q 772 172 728 101 q 792 185 778 185 q 822 173 804 185 q 839 146 839 161 q 833 132 839 140 q 761 53 794 83 q 693 6 728 24 q 617 -18 658 -11 q 521 -28 576 -25 l 521 -62 q 569 -67 544 -62 q 613 -81 593 -72 q 644 -109 632 -90 q 656 -154 656 -128 q 637 -216 656 -190 q 585 -258 618 -242 q 504 -281 551 -274 q 400 -289 457 -289 q 379 -278 386 -289 q 372 -256 372 -268 q 381 -231 372 -236 q 400 -225 389 -225 q 456 -224 429 -225 q 506 -219 483 -224 q 541 -204 528 -214 q 554 -175 554 -194 q 538 -154 554 -160 q 503 -146 522 -149 q 469 -136 485 -143 q 453 -107 453 -129 l 453 -25 q 301 18 371 -17 q 179 111 231 53 q 98 251 128 169 q 68 432 68 332 q 100 625 68 538 q 191 774 132 713 q 334 870 250 836 q 522 904 418 904 q 626 894 572 904 q 726 862 681 885 q 799 801 771 839 q 828 708 828 764 z "},"":{"ha":825,"x_min":60,"x_max":778,"o":"m 685 876 q 710 869 700 876 q 721 843 721 863 l 725 649 q 712 628 725 635 q 688 621 699 621 q 660 627 672 621 q 644 646 647 633 q 628 726 638 693 q 605 779 619 758 q 567 810 590 800 q 508 821 544 819 l 322 821 l 322 468 l 574 468 q 590 457 585 467 q 594 436 594 447 q 590 417 594 425 q 574 408 585 408 l 322 408 l 322 146 q 325 116 324 132 q 335 86 326 100 q 364 63 344 72 q 419 56 383 54 l 547 56 q 606 65 583 57 q 644 91 629 72 q 671 140 660 110 q 696 217 682 171 q 715 235 701 231 q 743 236 728 239 q 766 226 754 233 q 776 204 778 218 l 749 29 q 735 5 744 10 q 708 0 726 0 l 250 0 q 169 -1 208 0 q 83 -4 129 -1 q 65 6 71 -4 q 60 26 60 15 q 70 53 61 50 q 94 56 79 56 q 146 65 128 56 q 172 89 164 74 q 183 124 181 104 q 185 163 185 143 l 185 714 q 183 753 185 733 q 172 788 181 772 q 146 812 164 803 q 94 821 128 821 q 70 824 79 821 q 60 850 61 826 q 65 871 60 861 q 83 881 71 881 q 168 877 129 878 q 249 876 207 876 l 685 876 m 464 935 q 398 970 436 949 q 324 1015 360 992 q 265 1060 289 1038 q 240 1100 240 1082 q 258 1136 240 1119 q 292 1153 275 1153 q 344 1127 308 1153 q 417 1069 381 1101 q 483 1006 454 1036 q 511 965 511 975 q 501 942 511 953 q 476 932 490 932 q 464 935 468 932 z "},"":{"ha":825,"x_min":60,"x_max":778,"o":"m 685 876 q 710 869 700 876 q 721 843 721 863 l 725 649 q 712 628 725 635 q 688 621 699 621 q 660 627 672 621 q 644 646 647 633 q 628 726 638 693 q 605 779 619 758 q 567 810 590 800 q 508 821 544 819 l 322 821 l 322 468 l 574 468 q 590 457 585 467 q 594 436 594 447 q 590 417 594 425 q 574 408 585 408 l 322 408 l 322 146 q 325 116 324 132 q 335 86 326 100 q 364 63 344 72 q 419 56 383 54 l 547 56 q 606 65 583 57 q 644 91 629 72 q 671 140 660 110 q 696 217 682 171 q 715 235 701 231 q 743 236 728 239 q 766 226 754 233 q 776 204 778 218 l 749 29 q 735 5 744 10 q 708 0 726 0 l 250 0 q 169 -1 208 0 q 83 -4 129 -1 q 65 6 71 -4 q 60 26 60 15 q 70 53 61 50 q 94 56 79 56 q 146 65 128 56 q 172 89 164 74 q 183 124 181 104 q 185 163 185 143 l 185 714 q 183 753 185 733 q 172 788 181 772 q 146 812 164 803 q 94 821 128 821 q 70 824 79 821 q 60 850 61 826 q 65 871 60 861 q 83 881 71 881 q 168 877 129 878 q 249 876 207 876 l 685 876 m 406 935 q 393 932 401 932 q 368 942 378 932 q 358 965 358 953 q 372 990 358 975 q 408 1025 386 1004 q 455 1069 429 1046 q 505 1113 481 1093 q 549 1142 529 1132 q 578 1153 568 1153 q 612 1136 594 1153 q 629 1100 629 1119 q 605 1058 629 1079 q 545 1016 581 1038 q 472 972 510 994 q 406 935 433 949 z "},"":{"ha":825,"x_min":60,"x_max":778,"o":"m 685 876 q 710 869 700 876 q 721 843 721 863 l 725 649 q 712 628 725 635 q 688 621 699 621 q 660 627 672 621 q 644 646 647 633 q 628 726 638 693 q 605 779 619 758 q 567 810 590 800 q 508 821 544 819 l 322 821 l 322 468 l 574 468 q 590 457 585 467 q 594 436 594 447 q 590 417 594 425 q 574 408 585 408 l 322 408 l 322 146 q 325 116 324 132 q 335 86 326 100 q 364 63 344 72 q 419 56 383 54 l 547 56 q 606 65 583 57 q 644 91 629 72 q 671 140 660 110 q 696 217 682 171 q 715 235 701 231 q 743 236 728 239 q 766 226 754 233 q 776 204 778 218 l 749 29 q 735 5 744 10 q 708 0 726 0 l 250 0 q 169 -1 208 0 q 83 -4 129 -1 q 65 6 71 -4 q 60 26 60 15 q 70 53 61 50 q 94 56 79 56 q 146 65 128 56 q 172 89 164 74 q 183 124 181 104 q 185 163 185 143 l 185 714 q 183 753 185 733 q 172 788 181 772 q 146 812 164 803 q 94 821 128 821 q 70 824 79 821 q 60 850 61 826 q 65 871 60 861 q 83 881 71 881 q 168 877 129 878 q 249 876 207 876 l 685 876 m 403 1129 q 436 1142 421 1142 q 469 1129 453 1142 l 646 1000 q 657 975 657 990 q 651 958 657 965 q 635 951 646 951 l 631 951 q 535 990 586 963 q 436 1042 485 1017 q 337 990 388 1017 q 242 951 286 963 l 238 951 q 220 958 226 951 q 214 975 214 965 q 226 1000 214 989 l 403 1129 z "},"":{"ha":825,"x_min":60,"x_max":778,"o":"m 685 876 q 710 869 700 876 q 721 843 721 863 l 725 649 q 712 628 725 635 q 688 621 699 621 q 660 627 672 621 q 644 646 647 633 q 628 726 638 693 q 605 779 619 758 q 567 810 590 800 q 508 821 544 819 l 322 821 l 322 468 l 574 468 q 590 457 585 467 q 594 436 594 447 q 590 417 594 425 q 574 408 585 408 l 322 408 l 322 146 q 325 116 324 132 q 335 86 326 100 q 364 63 344 72 q 419 56 383 54 l 547 56 q 606 65 583 57 q 644 91 629 72 q 671 140 660 110 q 696 217 682 171 q 715 235 701 231 q 743 236 728 239 q 766 226 754 233 q 776 204 778 218 l 749 29 q 735 5 744 10 q 708 0 726 0 l 250 0 q 169 -1 208 0 q 83 -4 129 -1 q 65 6 71 -4 q 60 26 60 15 q 70 53 61 50 q 94 56 79 56 q 146 65 128 56 q 172 89 164 74 q 183 124 181 104 q 185 163 185 143 l 185 714 q 183 753 185 733 q 172 788 181 772 q 146 812 164 803 q 94 821 128 821 q 70 824 79 821 q 60 850 61 826 q 65 871 60 861 q 83 881 71 881 q 168 877 129 878 q 249 876 207 876 l 685 876 m 308 1140 q 368 1117 344 1140 q 392 1057 392 1093 q 367 999 392 1024 q 307 974 343 974 q 246 999 271 974 q 221 1057 221 1024 q 247 1117 221 1093 q 308 1140 272 1140 m 575 1140 q 635 1117 611 1140 q 658 1057 658 1093 q 634 999 658 1024 q 574 974 610 974 q 513 999 538 974 q 488 1057 488 1024 q 513 1117 488 1093 q 575 1140 539 1140 z "},"":{"ha":506,"x_min":38,"x_max":447,"o":"m 321 163 q 323 124 321 143 q 333 89 325 104 q 360 65 342 74 q 411 56 378 56 q 435 53 426 56 q 447 26 444 50 q 441 6 447 15 q 422 -4 435 -4 q 250 0 332 0 q 168 -1 208 0 q 83 -4 128 -1 q 64 6 69 -4 q 58 26 58 15 q 69 53 60 50 q 93 56 79 56 q 144 65 126 56 q 171 89 163 74 q 181 124 179 104 q 185 163 183 143 l 185 714 q 181 753 183 733 q 171 788 179 772 q 144 812 163 803 q 93 821 126 821 q 69 824 79 821 q 58 850 60 826 q 64 871 58 861 q 83 881 69 881 q 167 877 128 878 q 249 876 207 876 q 422 881 332 876 q 441 871 435 881 q 447 850 447 861 q 435 824 444 826 q 411 821 426 821 q 360 812 378 821 q 333 788 342 803 q 323 753 325 772 q 321 714 321 733 l 321 163 m 261 935 q 195 970 233 949 q 122 1015 157 992 q 62 1060 86 1038 q 38 1100 38 1082 q 55 1136 38 1119 q 89 1153 72 1153 q 142 1127 106 1153 q 215 1069 178 1101 q 280 1006 251 1036 q 308 965 308 975 q 298 942 308 953 q 274 932 288 932 q 261 935 265 932 z "},"":{"ha":506,"x_min":58,"x_max":454,"o":"m 321 163 q 323 124 321 143 q 333 89 325 104 q 360 65 342 74 q 411 56 378 56 q 435 53 426 56 q 447 26 444 50 q 441 6 447 15 q 422 -4 435 -4 q 250 0 332 0 q 168 -1 208 0 q 83 -4 128 -1 q 64 6 69 -4 q 58 26 58 15 q 69 53 60 50 q 93 56 79 56 q 144 65 126 56 q 171 89 163 74 q 181 124 179 104 q 185 163 183 143 l 185 714 q 181 753 183 733 q 171 788 179 772 q 144 812 163 803 q 93 821 126 821 q 69 824 79 821 q 58 850 60 826 q 64 871 58 861 q 83 881 69 881 q 167 877 128 878 q 249 876 207 876 q 422 881 332 876 q 441 871 435 881 q 447 850 447 861 q 435 824 444 826 q 411 821 426 821 q 360 812 378 821 q 333 788 342 803 q 323 753 325 772 q 321 714 321 733 l 321 163 m 231 935 q 218 932 226 932 q 193 942 203 932 q 183 965 183 953 q 197 990 183 975 q 233 1025 211 1004 q 280 1069 254 1046 q 330 1113 306 1093 q 374 1142 354 1132 q 403 1153 393 1153 q 437 1136 419 1153 q 454 1100 454 1119 q 430 1058 454 1079 q 370 1016 406 1038 q 297 972 335 994 q 231 935 258 949 z "},"":{"ha":506,"x_min":26,"x_max":469,"o":"m 321 163 q 323 124 321 143 q 333 89 325 104 q 360 65 342 74 q 411 56 378 56 q 435 53 426 56 q 447 26 444 50 q 441 6 447 15 q 422 -4 435 -4 q 250 0 332 0 q 168 -1 208 0 q 83 -4 128 -1 q 64 6 69 -4 q 58 26 58 15 q 69 53 60 50 q 93 56 79 56 q 144 65 126 56 q 171 89 163 74 q 181 124 179 104 q 185 163 183 143 l 185 714 q 181 753 183 733 q 171 788 179 772 q 144 812 163 803 q 93 821 126 821 q 69 824 79 821 q 58 850 60 826 q 64 871 58 861 q 83 881 69 881 q 167 877 128 878 q 249 876 207 876 q 422 881 332 876 q 441 871 435 881 q 447 850 447 861 q 435 824 444 826 q 411 821 426 821 q 360 812 378 821 q 333 788 342 803 q 323 753 325 772 q 321 714 321 733 l 321 163 m 215 1129 q 249 1142 233 1142 q 282 1129 265 1142 l 458 1000 q 469 975 469 990 q 464 958 469 965 q 447 951 458 951 l 443 951 q 348 990 399 963 q 249 1042 297 1017 q 149 990 200 1017 q 54 951 99 963 l 50 951 q 33 958 39 951 q 26 975 26 965 q 39 1000 26 989 l 215 1129 z "},"":{"ha":506,"x_min":33,"x_max":471,"o":"m 321 163 q 323 124 321 143 q 333 89 325 104 q 360 65 342 74 q 411 56 378 56 q 435 53 426 56 q 447 26 444 50 q 441 6 447 15 q 422 -4 435 -4 q 250 0 332 0 q 168 -1 208 0 q 83 -4 128 -1 q 64 6 69 -4 q 58 26 58 15 q 69 53 60 50 q 93 56 79 56 q 144 65 126 56 q 171 89 163 74 q 181 124 179 104 q 185 163 183 143 l 185 714 q 181 753 183 733 q 171 788 179 772 q 144 812 163 803 q 93 821 126 821 q 69 824 79 821 q 58 850 60 826 q 64 871 58 861 q 83 881 69 881 q 167 877 128 878 q 249 876 207 876 q 422 881 332 876 q 441 871 435 881 q 447 850 447 861 q 435 824 444 826 q 411 821 426 821 q 360 812 378 821 q 333 788 342 803 q 323 753 325 772 q 321 714 321 733 l 321 163 m 121 1140 q 181 1117 157 1140 q 204 1057 204 1093 q 180 999 204 1024 q 119 974 156 974 q 58 999 83 974 q 33 1057 33 1024 q 59 1117 33 1093 q 121 1140 85 1140 m 388 1140 q 447 1117 424 1140 q 471 1057 471 1093 q 447 999 471 1024 q 386 974 422 974 q 325 999 350 974 q 300 1057 300 1024 q 326 1117 300 1093 q 388 1140 351 1140 z "},"":{"ha":1011,"x_min":60,"x_max":943,"o":"m 108 432 q 88 442 93 432 q 82 461 82 451 q 88 482 82 472 q 108 492 93 492 l 185 492 l 185 714 q 183 753 185 733 q 172 788 181 772 q 146 812 164 803 q 94 821 128 821 q 70 824 79 821 q 60 850 61 826 q 65 871 60 861 q 83 881 71 881 q 168 877 129 878 q 249 876 207 876 l 465 876 q 652 847 565 876 q 803 760 739 817 q 906 620 868 703 q 943 433 943 538 q 899 240 943 322 q 785 105 856 158 q 624 26 714 51 q 440 0 533 0 l 249 0 q 168 -1 207 0 q 83 -4 129 -1 q 65 6 71 -4 q 60 26 60 15 q 70 53 61 50 q 94 56 79 56 q 146 65 128 56 q 172 89 164 74 q 183 124 181 104 q 185 163 185 143 l 185 432 l 108 432 m 775 433 q 752 590 775 518 q 685 715 729 663 q 577 797 642 768 q 431 826 513 826 q 403 826 419 826 q 372 826 388 826 q 342 825 356 825 q 322 825 329 825 l 322 492 l 482 492 q 503 482 497 492 q 508 461 508 472 q 503 442 508 451 q 482 432 497 432 l 322 432 l 322 146 q 356 70 322 89 q 461 51 390 51 q 606 79 546 51 q 703 157 665 107 q 758 277 740 207 q 775 433 775 347 z "},"":{"ha":1024,"x_min":58,"x_max":976,"o":"m 253 714 l 249 714 l 251 163 q 253 124 251 143 q 263 89 254 104 q 288 65 271 74 q 339 56 306 56 q 364 53 354 56 q 375 26 374 50 q 369 6 375 15 q 350 -4 363 -4 q 312 -2 328 -3 q 281 -1 296 -1 q 251 0 267 0 q 215 0 236 0 q 180 0 194 0 q 152 -1 165 0 q 124 -2 139 -1 q 86 -4 108 -3 q 67 6 72 -4 q 61 26 61 15 q 72 53 63 50 q 96 56 81 56 q 147 65 129 56 q 172 89 164 74 q 182 124 181 104 q 183 163 183 143 l 186 714 q 181 766 186 746 q 164 797 175 786 q 135 815 153 808 q 93 825 118 821 q 65 833 72 829 q 58 857 58 836 q 74 883 58 881 q 114 885 90 885 q 213 878 172 885 q 285 854 253 871 q 344 809 317 838 q 404 738 372 781 l 785 238 l 789 238 l 786 714 q 785 753 786 733 q 775 788 783 772 q 749 812 767 803 q 699 821 732 821 q 674 824 683 821 q 663 850 665 826 q 669 871 663 861 q 688 881 675 881 q 726 878 710 879 q 756 877 742 878 q 785 876 769 876 q 821 876 800 876 q 856 876 842 876 q 885 877 871 876 q 914 878 899 878 q 951 881 929 879 q 971 871 965 881 q 976 850 976 861 q 966 824 975 826 q 942 821 957 821 q 891 812 908 821 q 865 788 874 803 q 856 753 857 772 q 854 714 854 733 l 851 14 q 838 -1 850 3 q 817 -4 826 -4 q 776 14 790 -4 l 253 714 m 754 1083 q 731 1040 744 1061 q 698 1001 717 1018 q 656 973 679 983 q 604 963 632 963 q 549 975 575 963 q 499 1003 522 988 q 456 1031 476 1018 q 417 1043 435 1043 q 376 1030 400 1043 q 325 985 351 1017 q 301 974 315 974 q 284 981 292 974 q 276 997 276 988 q 292 1040 276 1010 q 330 1090 308 1069 q 378 1124 351 1111 q 432 1136 404 1136 q 488 1124 461 1136 q 537 1096 514 1111 q 581 1068 560 1081 q 619 1056 601 1056 q 661 1069 636 1056 q 711 1114 686 1083 q 733 1125 721 1125 q 751 1118 743 1125 q 758 1099 758 1111 q 754 1083 758 1092 z "},"":{"ha":1021,"x_min":65,"x_max":956,"o":"m 508 904 q 695 867 613 904 q 835 766 778 829 q 924 621 893 703 q 956 451 956 539 q 915 247 956 336 q 809 97 874 158 q 665 4 744 36 q 508 -28 585 -28 q 324 10 406 -28 q 185 110 242 47 q 97 256 128 174 q 65 426 65 338 q 106 631 65 542 q 210 781 146 719 q 353 873 274 842 q 508 904 432 904 m 507 33 q 634 67 581 33 q 722 159 688 101 q 774 292 757 217 q 790 451 790 368 q 773 601 790 529 q 720 726 756 672 q 631 813 685 781 q 507 844 578 844 q 381 811 433 844 q 294 721 328 778 q 244 589 260 664 q 228 431 228 514 q 244 280 228 351 q 296 153 261 208 q 383 66 331 99 q 507 33 436 33 m 521 947 q 455 983 493 961 q 381 1027 417 1004 q 322 1072 346 1050 q 297 1113 297 1094 q 315 1149 297 1132 q 349 1165 332 1165 q 401 1140 365 1165 q 474 1081 438 1114 q 540 1018 511 1049 q 568 978 568 988 q 558 955 568 965 q 533 944 547 944 q 521 947 525 944 z "},"":{"ha":1021,"x_min":65,"x_max":956,"o":"m 508 904 q 695 867 613 904 q 835 766 778 829 q 924 621 893 703 q 956 451 956 539 q 915 247 956 336 q 809 97 874 158 q 665 4 744 36 q 508 -28 585 -28 q 324 10 406 -28 q 185 110 242 47 q 97 256 128 174 q 65 426 65 338 q 106 631 65 542 q 210 781 146 719 q 353 873 274 842 q 508 904 432 904 m 507 33 q 634 67 581 33 q 722 159 688 101 q 774 292 757 217 q 790 451 790 368 q 773 601 790 529 q 720 726 756 672 q 631 813 685 781 q 507 844 578 844 q 381 811 433 844 q 294 721 328 778 q 244 589 260 664 q 228 431 228 514 q 244 280 228 351 q 296 153 261 208 q 383 66 331 99 q 507 33 436 33 m 490 947 q 478 944 486 944 q 453 955 463 944 q 443 978 443 965 q 457 1002 443 988 q 492 1038 471 1017 q 540 1082 514 1058 q 590 1125 565 1106 q 633 1155 614 1144 q 663 1165 653 1165 q 697 1149 679 1165 q 714 1113 714 1132 q 690 1071 714 1092 q 630 1028 665 1050 q 556 984 594 1007 q 490 947 518 961 z "},"":{"ha":1021,"x_min":65,"x_max":956,"o":"m 508 904 q 695 867 613 904 q 835 766 778 829 q 924 621 893 703 q 956 451 956 539 q 915 247 956 336 q 809 97 874 158 q 665 4 744 36 q 508 -28 585 -28 q 324 10 406 -28 q 185 110 242 47 q 97 256 128 174 q 65 426 65 338 q 106 631 65 542 q 210 781 146 719 q 353 873 274 842 q 508 904 432 904 m 507 33 q 634 67 581 33 q 722 159 688 101 q 774 292 757 217 q 790 451 790 368 q 773 601 790 529 q 720 726 756 672 q 631 813 685 781 q 507 844 578 844 q 381 811 433 844 q 294 721 328 778 q 244 589 260 664 q 228 431 228 514 q 244 280 228 351 q 296 153 261 208 q 383 66 331 99 q 507 33 436 33 m 488 1142 q 521 1154 506 1154 q 554 1142 538 1154 l 731 1013 q 742 988 742 1003 q 736 971 742 978 q 719 964 731 964 l 715 964 q 620 1002 671 975 q 521 1054 569 1029 q 422 1002 472 1029 q 326 964 371 975 l 322 964 q 305 971 311 964 q 299 988 299 978 q 311 1013 299 1001 l 488 1142 z "},"":{"ha":1021,"x_min":65,"x_max":956,"o":"m 508 904 q 695 867 613 904 q 835 766 778 829 q 924 621 893 703 q 956 451 956 539 q 915 247 956 336 q 809 97 874 158 q 665 4 744 36 q 508 -28 585 -28 q 324 10 406 -28 q 185 110 242 47 q 97 256 128 174 q 65 426 65 338 q 106 631 65 542 q 210 781 146 719 q 353 873 274 842 q 508 904 432 904 m 507 33 q 634 67 581 33 q 722 159 688 101 q 774 292 757 217 q 790 451 790 368 q 773 601 790 529 q 720 726 756 672 q 631 813 685 781 q 507 844 578 844 q 381 811 433 844 q 294 721 328 778 q 244 589 260 664 q 228 431 228 514 q 244 280 228 351 q 296 153 261 208 q 383 66 331 99 q 507 33 436 33 m 749 1096 q 725 1052 739 1074 q 692 1013 711 1031 q 650 985 674 996 q 599 975 626 975 q 543 988 569 975 q 494 1015 517 1000 q 450 1043 471 1031 q 411 1056 429 1056 q 370 1042 394 1056 q 319 997 346 1029 q 296 986 310 986 q 278 993 286 986 q 271 1010 271 1000 q 287 1052 271 1022 q 324 1103 303 1082 q 372 1136 346 1124 q 426 1149 399 1149 q 482 1136 456 1149 q 531 1108 508 1124 q 575 1081 554 1093 q 614 1068 596 1068 q 656 1082 631 1068 q 706 1126 681 1096 q 728 1138 715 1138 q 745 1131 738 1138 q 753 1111 753 1124 q 749 1096 753 1104 z "},"":{"ha":1021,"x_min":65,"x_max":956,"o":"m 508 904 q 695 867 613 904 q 835 766 778 829 q 924 621 893 703 q 956 451 956 539 q 915 247 956 336 q 809 97 874 158 q 665 4 744 36 q 508 -28 585 -28 q 324 10 406 -28 q 185 110 242 47 q 97 256 128 174 q 65 426 65 338 q 106 631 65 542 q 210 781 146 719 q 353 873 274 842 q 508 904 432 904 m 507 33 q 634 67 581 33 q 722 159 688 101 q 774 292 757 217 q 790 451 790 368 q 773 601 790 529 q 720 726 756 672 q 631 813 685 781 q 507 844 578 844 q 381 811 433 844 q 294 721 328 778 q 244 589 260 664 q 228 431 228 514 q 244 280 228 351 q 296 153 261 208 q 383 66 331 99 q 507 33 436 33 m 393 1153 q 453 1129 429 1153 q 476 1069 476 1106 q 452 1011 476 1036 q 392 986 428 986 q 331 1011 356 986 q 306 1069 306 1036 q 331 1129 306 1106 q 393 1153 357 1153 m 660 1153 q 719 1129 696 1153 q 743 1069 743 1106 q 719 1011 743 1036 q 658 986 694 986 q 597 1011 622 986 q 572 1069 572 1036 q 598 1129 572 1106 q 660 1153 624 1153 z "},"":{"ha":719,"x_min":68,"x_max":651,"o":"m 590 643 q 604 650 597 650 q 634 634 617 650 q 651 604 651 618 q 646 588 651 594 l 414 356 l 646 126 q 651 110 651 119 q 634 79 651 94 q 604 64 617 64 q 590 71 597 64 l 360 301 l 129 71 q 114 64 122 64 q 101 68 108 64 q 85 79 93 72 q 73 94 78 86 q 68 110 68 103 q 74 126 68 119 l 306 356 l 74 588 q 68 604 68 594 q 73 619 68 611 q 85 633 78 626 q 101 645 93 640 q 114 650 108 650 q 129 643 122 650 l 360 411 l 590 643 z "},"":{"ha":1021,"x_min":65,"x_max":956,"o":"m 832 769 q 924 623 892 706 q 956 451 956 540 q 915 247 956 336 q 809 97 874 158 q 665 4 744 36 q 508 -28 585 -28 q 347 1 419 -28 q 218 78 275 29 l 143 -7 q 122 -16 135 -17 q 103 -8 110 -15 q 94 9 94 -1 q 100 26 93 19 l 179 117 q 94 259 124 179 q 65 426 65 339 q 106 631 65 542 q 210 781 146 719 q 353 873 274 842 q 508 904 432 904 q 665 878 594 904 q 792 806 736 851 l 871 894 q 892 903 879 904 q 911 896 904 903 q 920 878 919 889 q 914 861 921 868 l 832 769 m 507 33 q 634 67 581 33 q 722 159 688 101 q 774 292 757 217 q 790 451 790 368 q 780 569 790 513 q 747 674 769 625 l 292 160 q 379 67 326 101 q 507 33 432 33 m 228 431 q 265 213 228 308 l 721 725 q 632 813 685 781 q 507 844 579 844 q 381 811 433 844 q 294 721 328 778 q 244 589 260 664 q 228 431 228 514 z "},"":{"ha":1000,"x_min":38,"x_max":975,"o":"m 833 247 q 801 122 833 174 q 720 36 769 69 q 612 -12 671 3 q 499 -28 553 -28 q 352 -5 415 -28 q 247 56 289 18 q 184 141 206 93 q 163 240 163 189 l 163 714 q 160 753 163 733 q 150 788 158 772 q 124 812 142 803 q 72 821 106 821 q 48 824 57 821 q 38 850 39 826 q 43 871 38 861 q 63 881 49 881 q 146 877 107 878 q 226 876 185 876 q 400 881 310 876 q 419 871 414 881 q 425 850 425 861 q 417 825 424 829 q 397 821 410 821 q 342 812 361 821 q 314 788 324 803 q 302 754 304 774 q 300 714 300 735 l 300 281 q 307 205 300 244 q 337 132 314 165 q 403 76 360 99 q 521 54 447 54 q 637 72 592 54 q 708 120 682 90 q 745 187 735 150 q 756 261 756 224 l 756 626 q 752 733 756 694 q 738 792 749 772 q 705 816 726 811 q 649 821 683 821 q 625 824 635 821 q 614 850 615 826 q 619 871 614 861 q 639 881 625 881 q 718 877 683 878 q 794 876 753 876 q 871 877 836 876 q 950 881 906 878 q 969 871 964 881 q 975 850 975 861 q 967 825 974 829 q 947 821 960 821 q 887 817 910 821 q 852 794 864 813 q 837 739 840 776 q 833 635 833 701 l 833 247 m 539 935 q 473 970 511 949 q 399 1015 435 992 q 340 1060 364 1038 q 315 1100 315 1082 q 333 1136 315 1119 q 367 1153 350 1153 q 419 1127 383 1153 q 492 1069 456 1101 q 558 1006 529 1036 q 586 965 586 975 q 576 942 586 953 q 551 932 565 932 q 539 935 543 932 z "},"":{"ha":1000,"x_min":38,"x_max":975,"o":"m 833 247 q 801 122 833 174 q 720 36 769 69 q 612 -12 671 3 q 499 -28 553 -28 q 352 -5 415 -28 q 247 56 289 18 q 184 141 206 93 q 163 240 163 189 l 163 714 q 160 753 163 733 q 150 788 158 772 q 124 812 142 803 q 72 821 106 821 q 48 824 57 821 q 38 850 39 826 q 43 871 38 861 q 63 881 49 881 q 146 877 107 878 q 226 876 185 876 q 400 881 310 876 q 419 871 414 881 q 425 850 425 861 q 417 825 424 829 q 397 821 410 821 q 342 812 361 821 q 314 788 324 803 q 302 754 304 774 q 300 714 300 735 l 300 281 q 307 205 300 244 q 337 132 314 165 q 403 76 360 99 q 521 54 447 54 q 637 72 592 54 q 708 120 682 90 q 745 187 735 150 q 756 261 756 224 l 756 626 q 752 733 756 694 q 738 792 749 772 q 705 816 726 811 q 649 821 683 821 q 625 824 635 821 q 614 850 615 826 q 619 871 614 861 q 639 881 625 881 q 718 877 683 878 q 794 876 753 876 q 871 877 836 876 q 950 881 906 878 q 969 871 964 881 q 975 850 975 861 q 967 825 974 829 q 947 821 960 821 q 887 817 910 821 q 852 794 864 813 q 837 739 840 776 q 833 635 833 701 l 833 247 m 494 935 q 482 932 490 932 q 457 942 467 932 q 447 965 447 953 q 461 990 447 975 q 497 1025 475 1004 q 544 1069 518 1046 q 594 1113 569 1093 q 638 1142 618 1132 q 667 1153 657 1153 q 701 1136 683 1153 q 718 1100 718 1119 q 694 1058 718 1079 q 634 1016 669 1038 q 560 972 599 994 q 494 935 522 949 z "},"":{"ha":1000,"x_min":38,"x_max":975,"o":"m 833 247 q 801 122 833 174 q 720 36 769 69 q 612 -12 671 3 q 499 -28 553 -28 q 352 -5 415 -28 q 247 56 289 18 q 184 141 206 93 q 163 240 163 189 l 163 714 q 160 753 163 733 q 150 788 158 772 q 124 812 142 803 q 72 821 106 821 q 48 824 57 821 q 38 850 39 826 q 43 871 38 861 q 63 881 49 881 q 146 877 107 878 q 226 876 185 876 q 400 881 310 876 q 419 871 414 881 q 425 850 425 861 q 417 825 424 829 q 397 821 410 821 q 342 812 361 821 q 314 788 324 803 q 302 754 304 774 q 300 714 300 735 l 300 281 q 307 205 300 244 q 337 132 314 165 q 403 76 360 99 q 521 54 447 54 q 637 72 592 54 q 708 120 682 90 q 745 187 735 150 q 756 261 756 224 l 756 626 q 752 733 756 694 q 738 792 749 772 q 705 816 726 811 q 649 821 683 821 q 625 824 635 821 q 614 850 615 826 q 619 871 614 861 q 639 881 625 881 q 718 877 683 878 q 794 876 753 876 q 871 877 836 876 q 950 881 906 878 q 969 871 964 881 q 975 850 975 861 q 967 825 974 829 q 947 821 960 821 q 887 817 910 821 q 852 794 864 813 q 837 739 840 776 q 833 635 833 701 l 833 247 m 492 1129 q 525 1142 510 1142 q 558 1129 542 1142 l 735 1000 q 746 975 746 990 q 740 958 746 965 q 724 951 735 951 l 719 951 q 624 990 675 963 q 525 1042 574 1017 q 426 990 476 1017 q 331 951 375 963 l 326 951 q 309 958 315 951 q 303 975 303 965 q 315 1000 303 989 l 492 1129 z "},"":{"ha":1000,"x_min":38,"x_max":975,"o":"m 833 247 q 801 122 833 174 q 720 36 769 69 q 612 -12 671 3 q 499 -28 553 -28 q 352 -5 415 -28 q 247 56 289 18 q 184 141 206 93 q 163 240 163 189 l 163 714 q 160 753 163 733 q 150 788 158 772 q 124 812 142 803 q 72 821 106 821 q 48 824 57 821 q 38 850 39 826 q 43 871 38 861 q 63 881 49 881 q 146 877 107 878 q 226 876 185 876 q 400 881 310 876 q 419 871 414 881 q 425 850 425 861 q 417 825 424 829 q 397 821 410 821 q 342 812 361 821 q 314 788 324 803 q 302 754 304 774 q 300 714 300 735 l 300 281 q 307 205 300 244 q 337 132 314 165 q 403 76 360 99 q 521 54 447 54 q 637 72 592 54 q 708 120 682 90 q 745 187 735 150 q 756 261 756 224 l 756 626 q 752 733 756 694 q 738 792 749 772 q 705 816 726 811 q 649 821 683 821 q 625 824 635 821 q 614 850 615 826 q 619 871 614 861 q 639 881 625 881 q 718 877 683 878 q 794 876 753 876 q 871 877 836 876 q 950 881 906 878 q 969 871 964 881 q 975 850 975 861 q 967 825 974 829 q 947 821 960 821 q 887 817 910 821 q 852 794 864 813 q 837 739 840 776 q 833 635 833 701 l 833 247 m 397 1140 q 457 1117 433 1140 q 481 1057 481 1093 q 456 999 481 1024 q 396 974 432 974 q 335 999 360 974 q 310 1057 310 1024 q 335 1117 310 1093 q 397 1140 361 1140 m 664 1140 q 724 1117 700 1140 q 747 1057 747 1093 q 723 999 747 1024 q 663 974 699 974 q 601 999 626 974 q 576 1057 576 1024 q 602 1117 576 1093 q 664 1140 628 1140 z "},"":{"ha":863,"x_min":6,"x_max":876,"o":"m 328 739 q 401 594 368 664 q 474 449 433 524 l 478 449 l 632 753 q 645 790 644 776 q 638 810 646 803 q 612 819 629 817 q 571 821 594 821 q 547 824 556 821 q 536 850 538 826 q 542 871 536 861 q 560 881 547 881 q 637 877 604 878 q 711 876 669 876 q 748 876 732 876 q 780 877 764 876 q 813 878 796 878 q 851 881 829 879 q 871 871 865 881 q 876 850 876 861 q 866 824 875 826 q 842 821 857 821 q 756 798 789 821 q 696 726 722 775 l 539 431 q 522 396 529 410 q 510 368 515 382 q 503 338 506 354 q 501 297 501 321 l 501 163 q 503 124 501 143 q 514 89 506 104 q 540 65 522 74 q 592 56 558 56 q 616 53 607 56 q 626 26 625 50 q 621 6 626 15 q 603 -4 615 -4 q 518 -1 558 -1 q 436 0 478 0 q 264 -4 353 0 q 244 6 250 -4 q 239 26 239 15 q 250 53 240 50 q 274 56 260 56 q 325 65 307 56 q 351 89 343 74 q 362 124 360 104 q 364 163 364 143 l 364 336 q 353 371 364 344 q 326 433 343 397 q 289 511 310 469 q 248 592 268 553 q 210 665 228 632 q 183 715 193 697 q 119 791 154 768 q 40 824 85 814 q 13 831 21 828 q 6 856 6 833 q 22 881 6 879 q 61 883 38 883 q 149 876 110 883 q 219 853 188 869 q 278 808 251 836 q 328 739 304 781 m 392 935 q 379 932 388 932 q 354 942 364 932 q 344 965 344 953 q 358 990 344 975 q 394 1025 372 1004 q 441 1069 415 1046 q 491 1113 467 1093 q 535 1142 515 1132 q 564 1153 554 1153 q 598 1136 581 1153 q 615 1100 615 1119 q 591 1058 615 1079 q 531 1016 567 1038 q 458 972 496 994 q 392 935 419 949 z "},"":{"ha":842,"x_min":58,"x_max":806,"o":"m 321 163 q 323 124 321 143 q 333 89 325 104 q 360 65 342 74 q 411 56 378 56 q 435 53 426 56 q 447 26 444 50 q 441 6 447 15 q 422 -4 435 -4 q 250 0 332 0 q 168 -1 208 0 q 83 -4 128 -1 q 64 6 69 -4 q 58 26 58 15 q 69 53 60 50 q 93 56 79 56 q 144 65 126 56 q 171 89 163 74 q 181 124 179 104 q 185 163 183 143 l 185 714 q 181 753 183 733 q 171 788 179 772 q 144 812 163 803 q 93 821 126 821 q 69 824 79 821 q 58 850 60 826 q 64 871 58 861 q 83 881 69 881 q 167 877 128 878 q 249 876 207 876 q 422 881 332 876 q 441 871 435 881 q 447 850 447 861 q 435 824 444 826 q 411 821 426 821 q 363 813 381 821 q 335 791 344 804 q 324 760 326 778 q 321 725 321 743 l 460 725 q 560 715 501 725 q 674 678 619 706 q 767 600 728 651 q 806 465 806 549 q 776 347 806 399 q 697 260 746 296 q 585 206 647 225 q 457 188 522 188 q 387 193 421 188 q 321 211 353 199 l 321 163 m 321 661 l 321 265 q 419 251 351 251 q 492 260 451 251 q 567 291 532 268 q 627 355 603 314 q 651 461 651 396 q 627 567 651 528 q 567 626 603 606 q 492 653 532 647 q 421 661 453 660 l 321 661 z "},"":{"ha":839,"x_min":32,"x_max":781,"o":"m 421 557 q 399 565 406 557 q 393 583 393 572 q 399 601 393 593 q 421 610 406 608 l 461 610 q 510 625 488 610 q 548 665 532 640 q 573 720 564 689 q 582 783 582 751 q 574 846 582 815 q 549 901 567 876 q 504 940 532 925 q 438 954 476 954 q 354 940 388 954 q 300 899 321 925 q 271 837 279 872 q 263 758 263 801 l 263 143 q 263 102 263 119 q 269 72 264 85 q 286 53 274 60 q 324 49 299 47 q 344 47 335 49 q 354 24 353 44 q 349 4 354 13 q 332 -4 343 -4 q 263 -1 292 -1 q 199 0 235 0 q 128 -1 161 0 q 54 -4 94 -1 q 38 4 43 -4 q 32 24 32 13 q 42 47 33 44 q 64 49 50 49 q 108 56 93 49 q 128 77 122 64 q 135 108 135 90 q 135 143 135 125 l 135 733 q 210 938 135 865 q 426 1011 286 1011 q 544 995 490 1013 q 636 947 597 978 q 696 876 675 917 q 717 792 717 835 q 682 683 717 736 q 561 590 647 629 l 561 586 q 724 495 668 565 q 781 317 781 425 q 760 180 781 240 q 702 78 739 119 q 617 14 665 36 q 514 -8 568 -8 q 410 26 450 -8 q 369 110 369 60 q 392 174 371 146 q 453 201 414 201 q 490 189 476 201 q 503 171 503 176 q 497 164 503 168 q 485 152 492 160 q 472 133 478 144 q 465 107 465 122 q 480 61 465 76 q 513 46 494 46 q 572 73 547 46 q 610 138 596 100 q 631 215 625 175 q 638 282 638 256 q 627 389 638 339 q 595 476 617 439 q 540 535 574 514 q 461 557 507 557 l 421 557 z "},"":{"ha":696,"x_min":47,"x_max":668,"o":"m 310 606 q 236 581 269 606 q 203 508 203 556 q 210 478 203 492 q 225 457 217 465 q 240 443 233 449 q 247 436 247 438 q 231 415 247 429 q 188 401 215 401 q 120 433 143 401 q 97 504 97 465 q 117 570 97 543 q 167 614 136 597 q 238 638 199 631 q 318 646 278 646 q 411 638 365 646 q 493 608 457 631 q 552 547 529 586 q 575 443 575 507 l 575 119 q 578 94 575 108 q 590 68 582 81 q 613 47 599 56 q 647 38 626 38 q 663 34 657 38 q 668 15 668 31 q 660 -1 668 6 q 639 -10 651 -7 q 613 -15 626 -14 q 592 -17 600 -17 q 500 13 540 -17 q 453 96 460 43 q 410 47 438 68 q 349 12 382 26 q 283 -10 317 -3 q 219 -17 249 -17 q 152 -3 183 -17 q 98 32 121 10 q 61 84 75 54 q 47 149 47 114 q 72 233 47 199 q 133 290 96 268 q 217 325 171 313 q 309 344 264 338 q 392 352 354 350 q 453 357 431 354 l 453 467 q 421 569 453 532 q 310 606 389 606 m 453 315 q 336 296 386 307 q 253 268 286 285 q 204 226 221 251 q 188 167 188 201 q 213 90 188 122 q 278 58 238 58 q 344 72 313 58 q 401 110 376 86 q 439 167 425 133 q 453 238 453 200 l 453 315 m 169 885 q 157 917 157 899 q 175 956 157 938 q 218 975 193 975 q 268 943 250 975 l 372 753 q 378 733 378 742 q 368 710 378 718 q 344 703 358 703 q 311 719 326 703 l 169 885 z "},"":{"ha":696,"x_min":47,"x_max":668,"o":"m 310 606 q 236 581 269 606 q 203 508 203 556 q 210 478 203 492 q 225 457 217 465 q 240 443 233 449 q 247 436 247 438 q 231 415 247 429 q 188 401 215 401 q 120 433 143 401 q 97 504 97 465 q 117 570 97 543 q 167 614 136 597 q 238 638 199 631 q 318 646 278 646 q 411 638 365 646 q 493 608 457 631 q 552 547 529 586 q 575 443 575 507 l 575 119 q 578 94 575 108 q 590 68 582 81 q 613 47 599 56 q 647 38 626 38 q 663 34 657 38 q 668 15 668 31 q 660 -1 668 6 q 639 -10 651 -7 q 613 -15 626 -14 q 592 -17 600 -17 q 500 13 540 -17 q 453 96 460 43 q 410 47 438 68 q 349 12 382 26 q 283 -10 317 -3 q 219 -17 249 -17 q 152 -3 183 -17 q 98 32 121 10 q 61 84 75 54 q 47 149 47 114 q 72 233 47 199 q 133 290 96 268 q 217 325 171 313 q 309 344 264 338 q 392 352 354 350 q 453 357 431 354 l 453 467 q 421 569 453 532 q 310 606 389 606 m 453 315 q 336 296 386 307 q 253 268 286 285 q 204 226 221 251 q 188 167 188 201 q 213 90 188 122 q 278 58 238 58 q 344 72 313 58 q 401 110 376 86 q 439 167 425 133 q 453 238 453 200 l 453 315 m 349 719 q 315 703 333 703 q 292 710 301 703 q 282 733 282 718 q 288 753 282 743 l 392 943 q 442 975 407 975 q 484 956 467 975 q 501 917 501 938 q 490 885 501 897 l 349 719 z "},"":{"ha":696,"x_min":47,"x_max":668,"o":"m 310 606 q 236 581 269 606 q 203 508 203 556 q 210 478 203 492 q 225 457 217 465 q 240 443 233 449 q 247 436 247 438 q 231 415 247 429 q 188 401 215 401 q 120 433 143 401 q 97 504 97 465 q 117 570 97 543 q 167 614 136 597 q 238 638 199 631 q 318 646 278 646 q 411 638 365 646 q 493 608 457 631 q 552 547 529 586 q 575 443 575 507 l 575 119 q 578 94 575 108 q 590 68 582 81 q 613 47 599 56 q 647 38 626 38 q 663 34 657 38 q 668 15 668 31 q 660 -1 668 6 q 639 -10 651 -7 q 613 -15 626 -14 q 592 -17 600 -17 q 500 13 540 -17 q 453 96 460 43 q 410 47 438 68 q 349 12 382 26 q 283 -10 317 -3 q 219 -17 249 -17 q 152 -3 183 -17 q 98 32 121 10 q 61 84 75 54 q 47 149 47 114 q 72 233 47 199 q 133 290 96 268 q 217 325 171 313 q 309 344 264 338 q 392 352 354 350 q 453 357 431 354 l 453 467 q 421 569 453 532 q 310 606 389 606 m 453 315 q 336 296 386 307 q 253 268 286 285 q 204 226 221 251 q 188 167 188 201 q 213 90 188 122 q 278 58 238 58 q 344 72 313 58 q 401 110 376 86 q 439 167 425 133 q 453 238 453 200 l 453 315 m 492 763 q 497 744 497 753 q 488 724 497 731 q 468 717 479 717 q 414 749 447 717 q 315 867 381 782 q 217 749 250 782 q 163 717 183 717 q 142 724 151 717 q 133 744 133 731 q 139 763 133 753 l 281 968 q 314 986 293 986 q 333 983 324 986 q 350 968 342 979 l 492 763 z "},"":{"ha":696,"x_min":47,"x_max":668,"o":"m 310 606 q 236 581 269 606 q 203 508 203 556 q 210 478 203 492 q 225 457 217 465 q 240 443 233 449 q 247 436 247 438 q 231 415 247 429 q 188 401 215 401 q 120 433 143 401 q 97 504 97 465 q 117 570 97 543 q 167 614 136 597 q 238 638 199 631 q 318 646 278 646 q 411 638 365 646 q 493 608 457 631 q 552 547 529 586 q 575 443 575 507 l 575 119 q 578 94 575 108 q 590 68 582 81 q 613 47 599 56 q 647 38 626 38 q 663 34 657 38 q 668 15 668 31 q 660 -1 668 6 q 639 -10 651 -7 q 613 -15 626 -14 q 592 -17 600 -17 q 500 13 540 -17 q 453 96 460 43 q 410 47 438 68 q 349 12 382 26 q 283 -10 317 -3 q 219 -17 249 -17 q 152 -3 183 -17 q 98 32 121 10 q 61 84 75 54 q 47 149 47 114 q 72 233 47 199 q 133 290 96 268 q 217 325 171 313 q 309 344 264 338 q 392 352 354 350 q 453 357 431 354 l 453 467 q 421 569 453 532 q 310 606 389 606 m 453 315 q 336 296 386 307 q 253 268 286 285 q 204 226 221 251 q 188 167 188 201 q 213 90 188 122 q 278 58 238 58 q 344 72 313 58 q 401 110 376 86 q 439 167 425 133 q 453 238 453 200 l 453 315 m 542 890 q 518 847 532 868 q 485 808 504 825 q 443 780 467 790 q 392 769 419 769 q 340 783 363 769 q 300 810 318 796 q 266 838 282 825 q 232 850 250 850 q 191 837 215 850 q 140 792 167 824 q 124 782 133 783 q 106 783 114 781 q 94 795 99 786 q 94 817 90 804 q 117 862 103 839 q 151 903 132 885 q 194 932 171 921 q 247 943 218 943 q 299 930 276 943 q 339 902 321 917 q 373 875 357 888 q 407 863 389 863 q 449 876 424 863 q 499 921 474 890 q 517 932 507 931 q 534 928 526 933 q 544 913 542 924 q 542 890 547 903 z "},"":{"ha":696,"x_min":47,"x_max":668,"o":"m 310 606 q 236 581 269 606 q 203 508 203 556 q 210 478 203 492 q 225 457 217 465 q 240 443 233 449 q 247 436 247 438 q 231 415 247 429 q 188 401 215 401 q 120 433 143 401 q 97 504 97 465 q 117 570 97 543 q 167 614 136 597 q 238 638 199 631 q 318 646 278 646 q 411 638 365 646 q 493 608 457 631 q 552 547 529 586 q 575 443 575 507 l 575 119 q 578 94 575 108 q 590 68 582 81 q 613 47 599 56 q 647 38 626 38 q 663 34 657 38 q 668 15 668 31 q 660 -1 668 6 q 639 -10 651 -7 q 613 -15 626 -14 q 592 -17 600 -17 q 500 13 540 -17 q 453 96 460 43 q 410 47 438 68 q 349 12 382 26 q 283 -10 317 -3 q 219 -17 249 -17 q 152 -3 183 -17 q 98 32 121 10 q 61 84 75 54 q 47 149 47 114 q 72 233 47 199 q 133 290 96 268 q 217 325 171 313 q 309 344 264 338 q 392 352 354 350 q 453 357 431 354 l 453 467 q 421 569 453 532 q 310 606 389 606 m 453 315 q 336 296 386 307 q 253 268 286 285 q 204 226 221 251 q 188 167 188 201 q 213 90 188 122 q 278 58 238 58 q 344 72 313 58 q 401 110 376 86 q 439 167 425 133 q 453 238 453 200 l 453 315 m 208 926 q 268 903 244 926 q 292 843 292 879 q 267 785 292 810 q 207 760 243 760 q 146 785 171 760 q 121 843 121 810 q 147 903 121 879 q 208 926 172 926 m 449 926 q 508 903 485 926 q 532 843 532 879 q 508 785 532 810 q 447 760 483 760 q 386 785 411 760 q 361 843 361 810 q 387 903 361 879 q 449 926 413 926 z "},"":{"ha":696,"x_min":47,"x_max":668,"o":"m 310 606 q 236 581 269 606 q 203 508 203 556 q 210 478 203 492 q 225 457 217 465 q 240 443 233 449 q 247 436 247 438 q 231 415 247 429 q 188 401 215 401 q 120 433 143 401 q 97 504 97 465 q 117 570 97 543 q 167 614 136 597 q 238 638 199 631 q 318 646 278 646 q 411 638 365 646 q 493 608 457 631 q 552 547 529 586 q 575 443 575 507 l 575 119 q 578 94 575 108 q 590 68 582 81 q 613 47 599 56 q 647 38 626 38 q 663 34 657 38 q 668 15 668 31 q 660 -1 668 6 q 639 -10 651 -7 q 613 -15 626 -14 q 592 -17 600 -17 q 500 13 540 -17 q 453 96 460 43 q 410 47 438 68 q 349 12 382 26 q 283 -10 317 -3 q 219 -17 249 -17 q 152 -3 183 -17 q 98 32 121 10 q 61 84 75 54 q 47 149 47 114 q 72 233 47 199 q 133 290 96 268 q 217 325 171 313 q 309 344 264 338 q 392 352 354 350 q 453 357 431 354 l 453 467 q 421 569 453 532 q 310 606 389 606 m 453 315 q 336 296 386 307 q 253 268 286 285 q 204 226 221 251 q 188 167 188 201 q 213 90 188 122 q 278 58 238 58 q 344 72 313 58 q 401 110 376 86 q 439 167 425 133 q 453 238 453 200 l 453 315 m 468 836 q 428 740 468 775 q 318 704 388 704 q 206 740 247 704 q 165 836 165 776 q 318 972 165 972 q 430 936 392 972 q 468 836 468 900 m 378 836 q 365 900 378 876 q 318 924 353 924 q 271 899 286 924 q 256 836 256 874 q 318 756 256 756 q 366 778 354 756 q 378 836 378 800 z "},"":{"ha":1074,"x_min":47,"x_max":1022,"o":"m 539 567 q 629 624 578 603 q 743 646 681 646 q 855 628 807 646 q 935 580 903 611 q 987 506 968 549 q 1010 413 1006 463 q 983 349 1010 364 q 913 333 956 333 l 575 333 q 588 221 575 272 q 626 132 600 169 q 694 74 653 94 q 794 53 736 53 q 894 78 853 53 q 975 165 936 103 q 1006 167 986 179 q 1019 149 1017 160 q 1017 129 1022 138 q 908 22 974 61 q 758 -17 843 -17 q 584 26 654 -17 q 476 138 514 68 q 462 110 469 124 q 446 85 454 97 q 401 41 429 60 q 342 9 374 22 q 278 -10 311 -4 q 219 -17 246 -17 q 152 -3 183 -17 q 98 32 121 10 q 61 84 75 54 q 47 149 47 114 q 72 233 47 199 q 133 290 96 268 q 217 325 171 313 q 309 344 264 338 q 392 352 354 350 q 453 357 431 354 l 453 467 q 421 569 453 532 q 310 606 389 606 q 236 581 269 606 q 203 508 203 556 q 210 478 203 492 q 225 457 217 465 q 240 443 233 449 q 247 436 247 438 q 231 415 247 429 q 188 401 215 401 q 120 433 143 401 q 97 504 97 465 q 117 570 97 543 q 167 614 136 597 q 238 638 199 631 q 318 646 278 646 q 442 631 382 646 q 539 567 503 615 m 453 315 q 336 296 386 307 q 253 268 286 285 q 204 226 221 251 q 188 167 188 201 q 213 90 188 122 q 278 58 238 58 q 344 72 313 58 q 401 110 376 86 q 439 167 425 133 q 453 238 453 200 l 453 315 m 801 386 q 854 399 835 386 q 876 444 874 413 q 868 501 876 474 q 843 551 860 529 q 801 585 826 572 q 743 597 776 597 q 626 542 672 597 q 575 386 581 486 l 801 386 z "},"":{"ha":660,"x_min":57,"x_max":618,"o":"m 571 157 q 600 160 581 171 q 614 144 610 154 q 611 125 618 135 q 497 21 565 58 q 378 -15 439 -11 l 378 -57 q 426 -62 401 -57 q 469 -78 450 -67 q 501 -108 489 -90 q 513 -154 513 -126 q 494 -216 513 -190 q 442 -258 475 -242 q 361 -281 408 -274 q 257 -289 314 -289 q 236 -278 243 -289 q 229 -256 229 -268 q 238 -231 229 -236 q 257 -225 246 -225 q 313 -224 286 -225 q 363 -219 340 -224 q 398 -204 385 -214 q 411 -175 411 -194 q 390 -144 411 -153 q 332 -133 368 -136 q 317 -128 325 -132 q 310 -101 310 -124 l 310 -12 q 232 7 268 -8 q 138 74 176 31 q 78 179 99 118 q 57 315 57 240 q 85 447 60 388 q 155 551 111 507 q 258 619 199 594 q 383 646 317 643 q 434 643 401 646 q 499 629 467 640 q 560 595 532 618 q 599 531 588 572 q 601 483 604 507 q 585 438 597 458 q 553 406 574 418 q 507 393 533 393 q 460 408 476 393 q 443 431 443 424 q 450 438 443 432 q 466 453 457 443 q 482 476 475 463 q 489 507 489 489 q 457 572 489 551 q 385 594 425 593 q 287 569 324 594 q 231 503 250 543 q 205 414 211 463 q 199 319 199 365 q 212 213 199 263 q 250 128 225 164 q 311 73 275 93 q 392 53 347 53 q 494 78 453 53 q 571 157 536 104 z "},"":{"ha":697,"x_min":57,"x_max":646,"o":"m 425 386 q 478 399 458 386 q 500 444 497 413 q 492 501 500 474 q 467 551 483 529 q 425 585 450 572 q 367 597 400 597 q 250 542 296 597 q 199 386 204 486 l 425 386 m 640 129 q 532 22 597 61 q 382 -17 467 -17 q 240 10 301 -17 q 139 82 179 36 q 78 189 99 128 q 57 318 57 250 q 78 437 57 378 q 140 542 100 496 q 238 617 181 589 q 367 646 294 646 q 478 628 431 646 q 559 580 526 611 q 610 506 592 549 q 633 413 629 463 q 606 349 633 364 q 536 333 579 333 l 199 333 q 211 221 199 272 q 250 132 224 169 q 318 74 276 94 q 418 53 360 53 q 518 78 476 53 q 599 165 560 103 q 629 167 610 179 q 643 149 640 160 q 640 129 646 138 m 219 885 q 207 917 207 899 q 225 956 207 938 q 268 975 243 975 q 318 943 300 975 l 422 753 q 428 733 428 742 q 418 710 428 718 q 394 703 408 703 q 361 719 376 703 l 219 885 z "},"":{"ha":697,"x_min":57,"x_max":646,"o":"m 425 386 q 478 399 458 386 q 500 444 497 413 q 492 501 500 474 q 467 551 483 529 q 425 585 450 572 q 367 597 400 597 q 250 542 296 597 q 199 386 204 486 l 425 386 m 640 129 q 532 22 597 61 q 382 -17 467 -17 q 240 10 301 -17 q 139 82 179 36 q 78 189 99 128 q 57 318 57 250 q 78 437 57 378 q 140 542 100 496 q 238 617 181 589 q 367 646 294 646 q 478 628 431 646 q 559 580 526 611 q 610 506 592 549 q 633 413 629 463 q 606 349 633 364 q 536 333 579 333 l 199 333 q 211 221 199 272 q 250 132 224 169 q 318 74 276 94 q 418 53 360 53 q 518 78 476 53 q 599 165 560 103 q 629 167 610 179 q 643 149 640 160 q 640 129 646 138 m 385 719 q 351 703 369 703 q 328 710 338 703 q 318 733 318 718 q 324 753 318 743 l 428 943 q 478 975 443 975 q 520 956 503 975 q 538 917 538 938 q 526 885 538 897 l 385 719 z "},"":{"ha":697,"x_min":57,"x_max":646,"o":"m 425 386 q 478 399 458 386 q 500 444 497 413 q 492 501 500 474 q 467 551 483 529 q 425 585 450 572 q 367 597 400 597 q 250 542 296 597 q 199 386 204 486 l 425 386 m 640 129 q 532 22 597 61 q 382 -17 467 -17 q 240 10 301 -17 q 139 82 179 36 q 78 189 99 128 q 57 318 57 250 q 78 437 57 378 q 140 542 100 496 q 238 617 181 589 q 367 646 294 646 q 478 628 431 646 q 559 580 526 611 q 610 506 592 549 q 633 413 629 463 q 606 349 633 364 q 536 333 579 333 l 199 333 q 211 221 199 272 q 250 132 224 169 q 318 74 276 94 q 418 53 360 53 q 518 78 476 53 q 599 165 560 103 q 629 167 610 179 q 643 149 640 160 q 640 129 646 138 m 542 763 q 547 744 547 753 q 538 724 547 731 q 518 717 529 717 q 464 749 497 717 q 365 867 431 782 q 267 749 300 782 q 213 717 233 717 q 192 724 201 717 q 183 744 183 731 q 189 763 183 753 l 331 968 q 364 986 343 986 q 383 983 374 986 q 400 968 392 979 l 542 763 z "},"":{"ha":697,"x_min":57,"x_max":646,"o":"m 425 386 q 478 399 458 386 q 500 444 497 413 q 492 501 500 474 q 467 551 483 529 q 425 585 450 572 q 367 597 400 597 q 250 542 296 597 q 199 386 204 486 l 425 386 m 640 129 q 532 22 597 61 q 382 -17 467 -17 q 240 10 301 -17 q 139 82 179 36 q 78 189 99 128 q 57 318 57 250 q 78 437 57 378 q 140 542 100 496 q 238 617 181 589 q 367 646 294 646 q 478 628 431 646 q 559 580 526 611 q 610 506 592 549 q 633 413 629 463 q 606 349 633 364 q 536 333 579 333 l 199 333 q 211 221 199 272 q 250 132 224 169 q 318 74 276 94 q 418 53 360 53 q 518 78 476 53 q 599 165 560 103 q 629 167 610 179 q 643 149 640 160 q 640 129 646 138 m 258 926 q 318 903 294 926 q 342 843 342 879 q 317 785 342 810 q 257 760 293 760 q 196 785 221 760 q 171 843 171 810 q 197 903 171 879 q 258 926 222 926 m 499 926 q 558 903 535 926 q 582 843 582 879 q 558 785 582 810 q 497 760 533 760 q 436 785 461 760 q 411 843 411 810 q 437 903 411 879 q 499 926 463 926 z "},"":{"ha":411,"x_min":19,"x_max":381,"o":"m 276 143 q 276 108 276 125 q 283 77 276 90 q 304 56 289 64 q 349 49 319 49 q 370 47 361 49 q 381 24 379 44 q 375 4 381 13 q 358 -4 369 -4 q 284 -1 318 -1 q 213 0 250 0 q 142 -1 175 0 q 68 -4 108 -1 q 51 4 57 -4 q 46 24 46 13 q 57 47 49 44 q 79 49 65 49 q 123 56 108 49 q 144 77 138 64 q 150 108 150 90 q 150 143 150 125 l 150 461 q 150 497 150 479 q 144 527 150 514 q 123 548 138 540 q 79 556 108 556 q 56 559 67 556 q 46 583 46 563 q 51 599 46 592 q 68 608 57 606 q 146 623 115 615 q 196 637 176 631 q 227 647 215 643 q 250 653 239 651 q 269 649 261 654 q 276 626 276 643 l 276 143 m 32 885 q 19 917 19 899 q 38 956 19 938 q 81 975 56 975 q 131 943 113 975 l 235 753 q 240 733 240 742 q 231 710 240 718 q 207 703 221 703 q 174 719 189 703 l 32 885 z "},"":{"ha":411,"x_min":46,"x_max":381,"o":"m 276 143 q 276 108 276 125 q 283 77 276 90 q 304 56 289 64 q 349 49 319 49 q 370 47 361 49 q 381 24 379 44 q 375 4 381 13 q 358 -4 369 -4 q 284 -1 318 -1 q 213 0 250 0 q 142 -1 175 0 q 68 -4 108 -1 q 51 4 57 -4 q 46 24 46 13 q 57 47 49 44 q 79 49 65 49 q 123 56 108 49 q 144 77 138 64 q 150 108 150 90 q 150 143 150 125 l 150 461 q 150 497 150 479 q 144 527 150 514 q 123 548 138 540 q 79 556 108 556 q 56 559 67 556 q 46 583 46 563 q 51 599 46 592 q 68 608 57 606 q 146 623 115 615 q 196 637 176 631 q 227 647 215 643 q 250 653 239 651 q 269 649 261 654 q 276 626 276 643 l 276 143 m 168 719 q 135 703 153 703 q 111 710 121 703 q 101 733 101 718 q 107 753 101 743 l 211 943 q 261 975 226 975 q 303 956 286 975 q 321 917 321 938 q 310 885 321 897 l 168 719 z "},"":{"ha":411,"x_min":-4,"x_max":381,"o":"m 276 143 q 276 108 276 125 q 283 77 276 90 q 304 56 289 64 q 349 49 319 49 q 370 47 361 49 q 381 24 379 44 q 375 4 381 13 q 358 -4 369 -4 q 284 -1 318 -1 q 213 0 250 0 q 142 -1 175 0 q 68 -4 108 -1 q 51 4 57 -4 q 46 24 46 13 q 57 47 49 44 q 79 49 65 49 q 123 56 108 49 q 144 77 138 64 q 150 108 150 90 q 150 143 150 125 l 150 461 q 150 497 150 479 q 144 527 150 514 q 123 548 138 540 q 79 556 108 556 q 56 559 67 556 q 46 583 46 563 q 51 599 46 592 q 68 608 57 606 q 146 623 115 615 q 196 637 176 631 q 227 647 215 643 q 250 653 239 651 q 269 649 261 654 q 276 626 276 643 l 276 143 m 354 763 q 360 744 360 753 q 351 724 360 731 q 331 717 342 717 q 276 749 310 717 q 178 867 243 782 q 79 749 113 782 q 25 717 46 717 q 5 724 14 717 q -4 744 -4 731 q 1 763 -4 753 l 143 968 q 176 986 156 986 q 195 983 186 986 q 213 968 204 979 l 354 763 z "},"":{"ha":411,"x_min":-17,"x_max":394,"o":"m 276 143 q 276 108 276 125 q 283 77 276 90 q 304 56 289 64 q 349 49 319 49 q 370 47 361 49 q 381 24 379 44 q 375 4 381 13 q 358 -4 369 -4 q 284 -1 318 -1 q 213 0 250 0 q 142 -1 175 0 q 68 -4 108 -1 q 51 4 57 -4 q 46 24 46 13 q 57 47 49 44 q 79 49 65 49 q 123 56 108 49 q 144 77 138 64 q 150 108 150 90 q 150 143 150 125 l 150 461 q 150 497 150 479 q 144 527 150 514 q 123 548 138 540 q 79 556 108 556 q 56 559 67 556 q 46 583 46 563 q 51 599 46 592 q 68 608 57 606 q 146 623 115 615 q 196 637 176 631 q 227 647 215 643 q 250 653 239 651 q 269 649 261 654 q 276 626 276 643 l 276 143 m 71 926 q 131 903 107 926 q 154 843 154 879 q 130 785 154 810 q 69 760 106 760 q 8 785 33 760 q -17 843 -17 810 q 9 903 -17 879 q 71 926 35 926 m 311 926 q 371 903 347 926 q 394 843 394 879 q 370 785 394 810 q 310 760 346 760 q 249 785 274 760 q 224 843 224 810 q 249 903 224 879 q 311 926 275 926 z "},"":{"ha":782,"x_min":58,"x_max":700,"o":"m 376 35 q 461 57 426 35 q 517 118 496 79 q 549 208 539 157 q 558 317 558 258 q 548 419 558 371 q 516 503 538 468 q 460 560 494 539 q 376 581 425 581 q 290 558 325 581 q 234 499 256 536 q 203 410 213 461 q 194 301 194 360 q 204 199 194 247 q 235 114 214 150 q 292 56 257 78 q 376 35 326 35 m 321 960 q 306 977 308 969 q 306 994 303 985 q 316 1009 308 1003 q 336 1008 324 1015 q 369 990 350 1001 q 407 965 388 978 q 444 938 426 951 q 472 913 461 924 l 592 985 q 606 983 599 989 q 619 967 614 976 q 625 947 625 957 q 618 932 625 936 l 513 871 q 592 762 557 824 q 652 628 628 700 q 688 476 676 556 q 696 317 700 397 q 663 171 693 233 q 588 67 633 108 q 486 4 542 25 q 376 -17 431 -17 q 244 9 303 -17 q 144 78 186 35 q 81 179 103 122 q 58 299 58 236 q 88 444 58 381 q 163 549 117 507 q 265 612 208 590 q 376 632 321 633 q 479 610 442 631 q 550 563 517 589 l 556 564 q 514 712 546 647 q 443 832 482 776 l 308 753 q 292 757 300 750 q 281 774 285 764 q 276 793 276 783 q 285 807 276 803 l 410 878 q 369 921 393 900 q 321 960 346 942 z "},"":{"ha":832,"x_min":46,"x_max":813,"o":"m 275 539 l 279 539 q 321 577 300 558 q 367 611 342 596 q 426 636 393 626 q 503 646 458 646 q 653 589 599 646 q 708 439 708 532 l 708 143 q 708 108 708 125 q 715 77 708 90 q 736 56 721 64 q 781 49 751 49 q 802 47 793 49 q 813 24 811 44 q 807 4 813 13 q 790 -4 801 -4 q 716 -1 750 -1 q 644 0 682 0 q 574 -1 607 0 q 500 -4 540 -1 q 483 4 489 -4 q 478 24 478 13 q 488 47 479 44 q 510 49 497 49 q 553 56 539 49 q 574 77 568 64 q 581 108 581 90 q 582 143 582 125 l 582 438 q 570 497 582 472 q 540 538 558 522 q 497 562 521 554 q 449 569 472 569 q 383 559 413 569 q 333 533 354 549 q 297 502 311 518 q 276 474 282 486 l 276 143 q 276 108 276 125 q 283 77 276 90 q 304 56 289 64 q 349 49 319 49 q 370 47 361 49 q 381 24 379 44 q 375 4 381 13 q 358 -4 369 -4 q 284 -1 318 -1 q 213 0 250 0 q 142 -1 175 0 q 68 -4 108 -1 q 51 4 57 -4 q 46 24 46 13 q 57 47 49 44 q 79 49 65 49 q 123 56 108 49 q 144 77 138 64 q 150 108 150 90 q 150 143 150 125 l 150 461 q 150 497 150 479 q 144 527 150 514 q 123 548 138 540 q 79 556 108 556 q 56 559 67 556 q 46 583 46 563 q 51 599 46 592 q 68 608 57 606 q 146 623 115 615 q 196 637 176 631 q 226 647 215 643 q 249 653 238 651 q 267 649 260 654 q 275 626 275 643 l 275 539 m 656 890 q 632 847 646 868 q 599 808 618 825 q 557 780 581 790 q 506 769 533 769 q 454 783 476 769 q 414 810 432 796 q 380 838 396 825 q 346 850 364 850 q 305 837 329 850 q 254 792 281 824 q 238 782 247 783 q 220 783 228 781 q 208 795 213 786 q 208 817 204 804 q 231 862 217 839 q 265 903 246 885 q 308 932 285 921 q 361 943 332 943 q 413 930 390 943 q 453 902 435 917 q 487 875 471 888 q 521 863 503 863 q 563 876 538 863 q 613 921 588 890 q 631 932 621 931 q 648 928 640 933 q 658 913 656 924 q 656 890 661 903 z "},"":{"ha":761,"x_min":57,"x_max":704,"o":"m 381 646 q 513 619 453 646 q 615 547 572 592 q 681 444 658 503 q 704 324 704 386 q 674 178 704 242 q 597 71 643 114 q 492 6 550 28 q 381 -17 435 -17 q 248 10 307 -17 q 146 82 189 38 q 80 185 103 126 q 57 306 57 243 q 87 451 57 388 q 163 558 117 515 q 267 624 210 601 q 381 646 325 646 m 381 35 q 465 58 431 35 q 522 122 500 82 q 553 213 543 161 q 563 324 563 265 q 552 427 563 378 q 520 514 542 476 q 464 573 499 551 q 381 594 429 594 q 294 572 329 594 q 238 509 260 549 q 208 418 217 469 q 199 308 199 367 q 208 205 199 254 q 240 117 218 156 q 296 57 261 79 q 381 35 331 35 m 233 885 q 221 917 221 899 q 239 956 221 938 q 282 975 257 975 q 332 943 314 975 l 436 753 q 442 733 442 742 q 432 710 442 718 q 408 703 422 703 q 375 719 390 703 l 233 885 z "},"":{"ha":761,"x_min":57,"x_max":704,"o":"m 381 646 q 513 619 453 646 q 615 547 572 592 q 681 444 658 503 q 704 324 704 386 q 674 178 704 242 q 597 71 643 114 q 492 6 550 28 q 381 -17 435 -17 q 248 10 307 -17 q 146 82 189 38 q 80 185 103 126 q 57 306 57 243 q 87 451 57 388 q 163 558 117 515 q 267 624 210 601 q 381 646 325 646 m 381 35 q 465 58 431 35 q 522 122 500 82 q 553 213 543 161 q 563 324 563 265 q 552 427 563 378 q 520 514 542 476 q 464 573 499 551 q 381 594 429 594 q 294 572 329 594 q 238 509 260 549 q 208 418 217 469 q 199 308 199 367 q 208 205 199 254 q 240 117 218 156 q 296 57 261 79 q 381 35 331 35 m 413 719 q 379 703 397 703 q 356 710 365 703 q 346 733 346 718 q 351 753 346 743 l 456 943 q 506 975 471 975 q 548 956 531 975 q 565 917 565 938 q 554 885 565 897 l 413 719 z "},"":{"ha":761,"x_min":57,"x_max":704,"o":"m 381 646 q 513 619 453 646 q 615 547 572 592 q 681 444 658 503 q 704 324 704 386 q 674 178 704 242 q 597 71 643 114 q 492 6 550 28 q 381 -17 435 -17 q 248 10 307 -17 q 146 82 189 38 q 80 185 103 126 q 57 306 57 243 q 87 451 57 388 q 163 558 117 515 q 267 624 210 601 q 381 646 325 646 m 381 35 q 465 58 431 35 q 522 122 500 82 q 553 213 543 161 q 563 324 563 265 q 552 427 563 378 q 520 514 542 476 q 464 573 499 551 q 381 594 429 594 q 294 572 329 594 q 238 509 260 549 q 208 418 217 469 q 199 308 199 367 q 208 205 199 254 q 240 117 218 156 q 296 57 261 79 q 381 35 331 35 m 556 763 q 561 744 561 753 q 552 724 561 731 q 532 717 543 717 q 478 749 511 717 q 379 867 444 782 q 281 749 314 782 q 226 717 247 717 q 206 724 215 717 q 197 744 197 731 q 203 763 197 753 l 344 968 q 378 986 357 986 q 397 983 388 986 q 414 968 406 979 l 556 763 z "},"":{"ha":761,"x_min":57,"x_max":704,"o":"m 381 646 q 513 619 453 646 q 615 547 572 592 q 681 444 658 503 q 704 324 704 386 q 674 178 704 242 q 597 71 643 114 q 492 6 550 28 q 381 -17 435 -17 q 248 10 307 -17 q 146 82 189 38 q 80 185 103 126 q 57 306 57 243 q 87 451 57 388 q 163 558 117 515 q 267 624 210 601 q 381 646 325 646 m 381 35 q 465 58 431 35 q 522 122 500 82 q 553 213 543 161 q 563 324 563 265 q 552 427 563 378 q 520 514 542 476 q 464 573 499 551 q 381 594 429 594 q 294 572 329 594 q 238 509 260 549 q 208 418 217 469 q 199 308 199 367 q 208 205 199 254 q 240 117 218 156 q 296 57 261 79 q 381 35 331 35 m 606 890 q 582 847 596 868 q 549 808 568 825 q 507 780 531 790 q 456 769 483 769 q 404 783 426 769 q 364 810 382 796 q 330 838 346 825 q 296 850 314 850 q 255 837 279 850 q 204 792 231 824 q 188 782 197 783 q 170 783 178 781 q 158 795 163 786 q 158 817 154 804 q 181 862 167 839 q 215 903 196 885 q 258 932 235 921 q 311 943 282 943 q 363 930 340 943 q 403 902 385 917 q 437 875 421 888 q 471 863 453 863 q 513 876 488 863 q 563 921 538 890 q 581 932 571 931 q 598 928 590 933 q 608 913 606 924 q 606 890 611 903 z "},"":{"ha":761,"x_min":57,"x_max":704,"o":"m 381 646 q 513 619 453 646 q 615 547 572 592 q 681 444 658 503 q 704 324 704 386 q 674 178 704 242 q 597 71 643 114 q 492 6 550 28 q 381 -17 435 -17 q 248 10 307 -17 q 146 82 189 38 q 80 185 103 126 q 57 306 57 243 q 87 451 57 388 q 163 558 117 515 q 267 624 210 601 q 381 646 325 646 m 381 35 q 465 58 431 35 q 522 122 500 82 q 553 213 543 161 q 563 324 563 265 q 552 427 563 378 q 520 514 542 476 q 464 573 499 551 q 381 594 429 594 q 294 572 329 594 q 238 509 260 549 q 208 418 217 469 q 199 308 199 367 q 208 205 199 254 q 240 117 218 156 q 296 57 261 79 q 381 35 331 35 m 272 926 q 332 903 308 926 q 356 843 356 879 q 331 785 356 810 q 271 760 307 760 q 210 785 235 760 q 185 843 185 810 q 210 903 185 879 q 272 926 236 926 m 513 926 q 572 903 549 926 q 596 843 596 879 q 572 785 596 810 q 511 760 547 760 q 450 785 475 760 q 425 843 425 810 q 451 903 425 879 q 513 926 476 926 z "},"":{"ha":833,"x_min":72,"x_max":758,"o":"m 103 329 q 81 341 89 329 q 72 367 72 353 q 81 392 72 381 q 103 404 89 404 l 728 404 q 750 392 742 404 q 758 367 758 381 q 750 341 758 353 q 728 329 742 329 l 103 329 m 414 529 q 351 553 376 529 q 326 617 326 576 q 351 678 326 653 q 415 703 376 703 q 478 678 453 703 q 504 617 504 653 q 478 553 504 576 q 414 529 453 529 m 414 13 q 351 36 376 13 q 326 100 326 60 q 351 161 326 136 q 415 186 376 186 q 478 161 453 186 q 504 100 504 136 q 478 36 504 60 q 414 13 453 13 z "},"":{"ha":760,"x_min":57,"x_max":704,"o":"m 619 542 q 682 441 660 497 q 704 324 704 385 q 674 178 704 242 q 597 71 643 114 q 492 6 550 28 q 381 -17 435 -17 q 273 0 322 -17 q 183 47 224 17 l 135 -7 q 114 -16 126 -17 q 94 -8 101 -15 q 85 9 86 -1 q 92 26 85 19 l 143 85 q 79 186 101 129 q 57 306 57 243 q 87 451 57 388 q 163 558 117 515 q 267 624 210 601 q 381 646 325 646 q 490 628 439 646 q 581 579 540 611 l 646 653 q 667 662 654 663 q 686 654 679 661 q 695 637 694 647 q 689 619 696 626 l 619 542 m 199 308 q 203 235 199 271 q 217 168 207 200 l 521 513 q 464 572 499 550 q 381 594 429 594 q 294 572 329 594 q 238 509 260 549 q 208 418 217 469 q 199 308 199 367 m 381 35 q 465 58 431 35 q 522 122 500 82 q 553 213 543 161 q 563 324 563 265 q 558 393 563 360 q 544 456 554 426 l 242 114 q 298 56 264 78 q 381 35 332 35 z "},"":{"ha":828,"x_min":24,"x_max":819,"o":"m 686 132 q 796 50 686 50 q 815 42 811 50 q 819 24 819 33 q 796 0 819 4 l 572 -15 q 560 -7 561 -15 q 560 13 560 1 l 560 90 l 557 90 q 515 52 536 71 q 469 18 494 33 q 410 -7 443 3 q 333 -17 376 -17 q 183 40 238 -17 q 128 190 128 97 l 128 447 q 128 483 128 465 q 122 513 128 500 q 101 534 115 526 q 57 542 86 542 q 34 545 44 542 q 24 569 24 549 q 29 585 24 578 q 46 594 35 592 q 124 609 93 601 q 174 623 154 617 q 205 633 193 629 q 228 639 217 638 q 247 635 239 640 q 254 613 254 629 l 254 192 q 266 132 254 157 q 297 91 278 107 q 340 67 315 75 q 388 60 364 60 q 453 70 424 60 q 504 96 482 81 q 540 127 526 111 q 560 156 554 143 l 560 447 q 560 483 560 465 q 553 513 560 500 q 533 534 547 526 q 489 542 518 542 q 466 545 476 542 q 456 569 456 549 q 461 585 456 578 q 478 594 467 592 q 556 609 525 601 q 606 623 586 617 q 637 633 625 629 q 660 639 649 638 q 678 635 671 640 q 686 613 686 629 l 686 132 m 242 885 q 229 917 229 899 q 247 956 229 938 q 290 975 265 975 q 340 943 322 975 l 444 753 q 450 733 450 742 q 440 710 450 718 q 417 703 431 703 q 383 719 399 703 l 242 885 z "},"":{"ha":828,"x_min":24,"x_max":819,"o":"m 686 132 q 796 50 686 50 q 815 42 811 50 q 819 24 819 33 q 796 0 819 4 l 572 -15 q 560 -7 561 -15 q 560 13 560 1 l 560 90 l 557 90 q 515 52 536 71 q 469 18 494 33 q 410 -7 443 3 q 333 -17 376 -17 q 183 40 238 -17 q 128 190 128 97 l 128 447 q 128 483 128 465 q 122 513 128 500 q 101 534 115 526 q 57 542 86 542 q 34 545 44 542 q 24 569 24 549 q 29 585 24 578 q 46 594 35 592 q 124 609 93 601 q 174 623 154 617 q 205 633 193 629 q 228 639 217 638 q 247 635 239 640 q 254 613 254 629 l 254 192 q 266 132 254 157 q 297 91 278 107 q 340 67 315 75 q 388 60 364 60 q 453 70 424 60 q 504 96 482 81 q 540 127 526 111 q 560 156 554 143 l 560 447 q 560 483 560 465 q 553 513 560 500 q 533 534 547 526 q 489 542 518 542 q 466 545 476 542 q 456 569 456 549 q 461 585 456 578 q 478 594 467 592 q 556 609 525 601 q 606 623 586 617 q 637 633 625 629 q 660 639 649 638 q 678 635 671 640 q 686 613 686 629 l 686 132 m 379 719 q 346 703 364 703 q 322 710 332 703 q 313 733 313 718 q 318 753 313 743 l 422 943 q 472 975 438 975 q 515 956 497 975 q 532 917 532 938 q 521 885 532 897 l 379 719 z "},"":{"ha":828,"x_min":24,"x_max":819,"o":"m 686 132 q 796 50 686 50 q 815 42 811 50 q 819 24 819 33 q 796 0 819 4 l 572 -15 q 560 -7 561 -15 q 560 13 560 1 l 560 90 l 557 90 q 515 52 536 71 q 469 18 494 33 q 410 -7 443 3 q 333 -17 376 -17 q 183 40 238 -17 q 128 190 128 97 l 128 447 q 128 483 128 465 q 122 513 128 500 q 101 534 115 526 q 57 542 86 542 q 34 545 44 542 q 24 569 24 549 q 29 585 24 578 q 46 594 35 592 q 124 609 93 601 q 174 623 154 617 q 205 633 193 629 q 228 639 217 638 q 247 635 239 640 q 254 613 254 629 l 254 192 q 266 132 254 157 q 297 91 278 107 q 340 67 315 75 q 388 60 364 60 q 453 70 424 60 q 504 96 482 81 q 540 127 526 111 q 560 156 554 143 l 560 447 q 560 483 560 465 q 553 513 560 500 q 533 534 547 526 q 489 542 518 542 q 466 545 476 542 q 456 569 456 549 q 461 585 456 578 q 478 594 467 592 q 556 609 525 601 q 606 623 586 617 q 637 633 625 629 q 660 639 649 638 q 678 635 671 640 q 686 613 686 629 l 686 132 m 564 763 q 569 744 569 753 q 560 724 569 731 q 540 717 551 717 q 486 749 519 717 q 388 867 453 782 q 289 749 322 782 q 235 717 256 717 q 215 724 224 717 q 206 744 206 731 q 211 763 206 753 l 353 968 q 386 986 365 986 q 405 983 396 986 q 422 968 414 979 l 564 763 z "},"":{"ha":828,"x_min":24,"x_max":819,"o":"m 686 132 q 796 50 686 50 q 815 42 811 50 q 819 24 819 33 q 796 0 819 4 l 572 -15 q 560 -7 561 -15 q 560 13 560 1 l 560 90 l 557 90 q 515 52 536 71 q 469 18 494 33 q 410 -7 443 3 q 333 -17 376 -17 q 183 40 238 -17 q 128 190 128 97 l 128 447 q 128 483 128 465 q 122 513 128 500 q 101 534 115 526 q 57 542 86 542 q 34 545 44 542 q 24 569 24 549 q 29 585 24 578 q 46 594 35 592 q 124 609 93 601 q 174 623 154 617 q 205 633 193 629 q 228 639 217 638 q 247 635 239 640 q 254 613 254 629 l 254 192 q 266 132 254 157 q 297 91 278 107 q 340 67 315 75 q 388 60 364 60 q 453 70 424 60 q 504 96 482 81 q 540 127 526 111 q 560 156 554 143 l 560 447 q 560 483 560 465 q 553 513 560 500 q 533 534 547 526 q 489 542 518 542 q 466 545 476 542 q 456 569 456 549 q 461 585 456 578 q 478 594 467 592 q 556 609 525 601 q 606 623 586 617 q 637 633 625 629 q 660 639 649 638 q 678 635 671 640 q 686 613 686 629 l 686 132 m 281 926 q 340 903 317 926 q 364 843 364 879 q 340 785 364 810 q 279 760 315 760 q 218 785 243 760 q 193 843 193 810 q 219 903 193 879 q 281 926 244 926 m 521 926 q 581 903 557 926 q 604 843 604 879 q 580 785 604 810 q 519 760 556 760 q 458 785 483 760 q 433 843 433 810 q 459 903 433 879 q 521 926 485 926 z "},"":{"ha":767,"x_min":-18,"x_max":769,"o":"m 411 -14 q 367 -108 393 -58 q 308 -202 342 -158 q 231 -274 274 -246 q 135 -303 188 -303 q 76 -292 104 -303 q 28 -264 49 -282 q -6 -222 7 -246 q -18 -172 -18 -199 q -1 -115 -17 -135 q 31 -87 14 -96 q 60 -77 47 -78 q 71 -76 74 -76 q 111 -87 97 -76 q 125 -104 125 -97 q 115 -117 125 -107 q 103 -154 104 -128 q 118 -203 101 -179 q 169 -226 135 -226 q 224 -209 199 -226 q 270 -166 249 -192 q 309 -108 292 -140 q 340 -47 326 -76 q 339 17 350 -17 q 290 135 314 72 q 242 259 265 197 q 197 378 219 321 q 153 479 174 435 q 131 522 142 504 q 109 552 121 540 q 83 570 97 564 q 47 579 68 576 q 23 584 29 582 q 15 606 17 586 q 28 631 14 629 q 64 635 43 633 q 197 610 149 639 q 278 511 246 581 q 309 433 292 478 q 345 340 326 389 q 383 244 364 292 q 422 157 403 196 l 426 157 l 563 521 q 564 571 576 561 q 510 581 551 581 q 489 583 497 581 q 479 606 481 585 q 483 624 479 614 q 499 633 488 633 q 568 630 539 631 q 633 629 597 629 q 664 629 651 629 q 689 630 676 629 q 715 631 701 631 q 749 633 728 632 q 765 624 760 633 q 769 606 769 614 q 759 583 768 585 q 739 581 750 581 q 666 564 693 581 q 619 499 639 547 l 517 246 q 478 151 497 197 q 445 69 460 106 q 421 10 431 33 q 411 -14 411 -12 m 375 719 q 342 703 360 703 q 318 710 328 703 q 308 733 308 718 q 314 753 308 743 l 418 943 q 468 975 433 975 q 510 956 493 975 q 528 917 528 938 q 517 885 528 897 l 375 719 z "},"":{"ha":779,"x_min":4,"x_max":722,"o":"m 235 26 l 235 -142 q 235 -177 235 -160 q 243 -208 236 -194 q 265 -228 250 -221 q 307 -236 279 -236 q 328 -238 319 -236 q 339 -261 338 -240 q 333 -281 339 -272 q 317 -289 328 -289 q 242 -285 276 -286 q 171 -285 208 -285 q 100 -285 133 -285 q 26 -289 67 -286 q 10 -281 15 -289 q 4 -261 4 -272 q 15 -238 6 -240 q 36 -236 24 -236 q 78 -228 64 -236 q 100 -208 93 -221 q 108 -177 107 -194 q 108 -142 108 -160 l 108 819 q 108 855 108 838 q 102 885 108 872 q 81 906 96 899 q 38 914 67 914 q 15 917 25 914 q 4 942 4 921 q 10 957 4 950 q 26 967 15 964 q 104 981 74 974 q 154 995 135 989 q 185 1006 174 1001 q 208 1011 197 1010 q 227 1007 219 1013 q 235 985 235 1001 l 235 565 l 239 565 q 331 626 281 607 q 431 646 382 646 q 545 622 492 646 q 638 556 599 599 q 700 452 678 513 q 722 319 722 392 q 696 187 722 249 q 626 80 669 125 q 524 9 582 35 q 404 -17 467 -17 q 240 26 314 -17 l 235 26 m 581 314 q 569 410 581 363 q 534 494 558 457 q 472 553 510 531 q 382 576 435 576 q 299 560 335 576 q 235 513 263 543 l 235 146 q 249 111 238 131 q 280 74 260 92 q 328 43 300 56 q 392 31 356 31 q 468 50 433 31 q 528 106 503 69 q 567 196 553 143 q 581 314 581 249 z "},"":{"ha":767,"x_min":-18,"x_max":769,"o":"m 411 -14 q 367 -108 393 -58 q 308 -202 342 -158 q 231 -274 274 -246 q 135 -303 188 -303 q 76 -292 104 -303 q 28 -264 49 -282 q -6 -222 7 -246 q -18 -172 -18 -199 q -1 -115 -17 -135 q 31 -87 14 -96 q 60 -77 47 -78 q 71 -76 74 -76 q 111 -87 97 -76 q 125 -104 125 -97 q 115 -117 125 -107 q 103 -154 104 -128 q 118 -203 101 -179 q 169 -226 135 -226 q 224 -209 199 -226 q 270 -166 249 -192 q 309 -108 292 -140 q 340 -47 326 -76 q 339 17 350 -17 q 290 135 314 72 q 242 259 265 197 q 197 378 219 321 q 153 479 174 435 q 131 522 142 504 q 109 552 121 540 q 83 570 97 564 q 47 579 68 576 q 23 584 29 582 q 15 606 17 586 q 28 631 14 629 q 64 635 43 633 q 197 610 149 639 q 278 511 246 581 q 309 433 292 478 q 345 340 326 389 q 383 244 364 292 q 422 157 403 196 l 426 157 l 563 521 q 564 571 576 561 q 510 581 551 581 q 489 583 497 581 q 479 606 481 585 q 483 624 479 614 q 499 633 488 633 q 568 630 539 631 q 633 629 597 629 q 664 629 651 629 q 689 630 676 629 q 715 631 701 631 q 749 633 728 632 q 765 624 760 633 q 769 606 769 614 q 759 583 768 585 q 739 581 750 581 q 666 564 693 581 q 619 499 639 547 l 517 246 q 478 151 497 197 q 445 69 460 106 q 421 10 431 33 q 411 -14 411 -12 m 276 926 q 336 903 313 926 q 360 843 360 879 q 335 785 360 810 q 275 760 311 760 q 214 785 239 760 q 189 843 189 810 q 215 903 189 879 q 276 926 240 926 m 517 926 q 576 903 553 926 q 600 843 600 879 q 576 785 600 810 q 515 760 551 760 q 454 785 479 760 q 429 843 429 810 q 455 903 429 879 q 517 926 481 926 z "},"":{"ha":411,"x_min":46,"x_max":381,"o":"m 276 143 q 276 108 276 125 q 283 77 276 90 q 304 56 289 64 q 349 49 319 49 q 370 47 361 49 q 381 24 379 44 q 375 4 381 13 q 358 -4 369 -4 q 284 -1 318 -1 q 213 0 250 0 q 142 -1 175 0 q 68 -4 108 -1 q 51 4 57 -4 q 46 24 46 13 q 57 47 49 44 q 79 49 65 49 q 123 56 108 49 q 144 77 138 64 q 150 108 150 90 q 150 143 150 125 l 150 461 q 150 497 150 479 q 144 527 150 514 q 123 548 138 540 q 79 556 108 556 q 56 559 67 556 q 46 583 46 563 q 51 599 46 592 q 68 608 57 606 q 146 623 115 615 q 196 637 176 631 q 227 647 215 643 q 250 653 239 651 q 269 649 261 654 q 276 626 276 643 l 276 143 z "},"":{"ha":1400,"x_min":68,"x_max":1353,"o":"m 1260 876 q 1285 869 1275 876 q 1296 843 1296 863 l 1300 649 q 1287 628 1300 635 q 1263 621 1274 621 q 1235 627 1247 621 q 1219 646 1222 633 q 1203 726 1213 693 q 1180 779 1194 758 q 1142 810 1165 800 q 1083 821 1119 819 l 897 821 l 897 468 l 1149 468 q 1165 457 1160 467 q 1169 436 1169 447 q 1165 417 1169 425 q 1149 408 1160 408 l 897 408 l 897 146 q 900 116 899 132 q 910 86 901 100 q 939 63 919 72 q 994 56 958 54 l 1122 56 q 1181 65 1158 57 q 1219 91 1204 72 q 1246 140 1235 110 q 1271 217 1257 171 q 1290 235 1276 231 q 1318 236 1303 239 q 1341 226 1329 233 q 1351 204 1353 218 l 1324 29 q 1310 5 1319 10 q 1283 0 1301 0 l 540 0 q 356 31 442 0 q 206 118 269 61 q 105 258 142 175 q 68 443 68 340 q 112 636 68 554 q 225 772 156 718 q 383 851 294 825 q 561 876 471 876 l 1260 876 m 560 821 q 433 801 493 821 q 329 736 374 781 q 258 619 285 692 q 232 442 232 547 q 256 283 232 354 q 325 162 281 213 q 432 83 369 111 q 571 56 494 56 l 669 56 q 721 65 703 56 q 747 89 739 74 q 758 124 756 104 q 760 163 760 143 l 760 714 q 758 753 760 733 q 747 788 756 772 q 721 812 739 803 q 669 821 703 821 l 560 821 z "},"":{"ha":1203,"x_min":57,"x_max":1151,"o":"m 633 526 q 734 613 674 579 q 872 646 794 646 q 984 628 936 646 q 1065 580 1032 611 q 1116 506 1097 549 q 1139 413 1135 463 q 1112 349 1139 364 q 1042 333 1085 333 l 704 333 q 717 221 704 272 q 756 132 729 169 q 824 74 782 94 q 924 53 865 53 q 1024 78 982 53 q 1104 165 1065 103 q 1135 167 1115 179 q 1149 149 1146 160 q 1146 129 1151 138 q 1038 22 1103 61 q 888 -17 972 -17 q 731 17 796 -17 q 626 107 667 50 q 522 17 583 51 q 381 -17 460 -17 q 248 10 307 -17 q 146 82 189 38 q 80 185 103 126 q 57 306 57 243 q 87 451 57 388 q 163 558 117 515 q 267 624 210 601 q 381 646 325 646 q 526 613 463 646 q 633 526 590 579 m 381 35 q 465 58 431 35 q 522 122 500 82 q 553 213 543 161 q 563 324 563 265 q 552 427 563 378 q 520 514 542 476 q 464 573 499 551 q 381 594 429 594 q 294 572 329 594 q 238 509 260 549 q 208 418 217 469 q 199 308 199 367 q 208 205 199 254 q 240 117 218 156 q 296 57 261 79 q 381 35 331 35 m 931 386 q 983 399 964 386 q 1006 444 1003 413 q 997 501 1006 474 q 972 551 989 529 q 931 585 956 572 q 872 597 906 597 q 753 542 801 597 q 699 386 704 486 l 931 386 z "},"":{"ha":536,"x_min":85,"x_max":449,"o":"m 443 763 q 449 744 449 753 q 440 724 449 731 q 419 717 431 717 q 365 749 399 717 q 267 867 332 782 q 168 749 201 782 q 114 717 135 717 q 94 724 103 717 q 85 744 85 731 q 90 763 85 753 l 232 968 q 265 986 244 986 q 284 983 275 986 q 301 968 293 979 l 443 763 z "},"":{"ha":536,"x_min":85,"x_max":449,"o":"m 90 951 q 85 969 85 961 q 94 990 85 982 q 114 997 103 997 q 168 964 135 997 q 267 847 201 931 q 365 964 332 931 q 419 997 399 997 q 440 990 431 997 q 449 969 449 982 q 443 951 449 961 l 301 746 q 268 728 289 728 q 249 731 258 728 q 232 746 239 735 l 90 951 z "},"":{"ha":425,"x_min":60,"x_max":363,"o":"m 363 861 q 322 765 363 800 q 213 729 282 729 q 101 765 142 729 q 60 861 60 801 q 213 997 60 997 q 324 961 286 997 q 363 861 363 925 m 272 861 q 260 925 272 901 q 213 949 247 949 q 165 924 181 949 q 150 861 150 899 q 213 781 150 781 q 260 803 249 781 q 272 861 272 825 z "},"":{"ha":590,"x_min":63,"x_max":519,"o":"m 514 890 q 490 847 504 868 q 458 808 476 825 q 415 780 439 790 q 364 769 392 769 q 313 783 335 769 q 272 810 290 796 q 238 838 254 825 q 204 850 222 850 q 163 837 188 850 q 113 792 139 824 q 96 782 106 783 q 78 783 86 781 q 67 795 71 786 q 67 817 63 804 q 90 862 75 839 q 124 903 104 885 q 167 932 143 921 q 219 943 190 943 q 271 930 249 943 q 311 902 293 917 q 345 875 329 888 q 379 863 361 863 q 421 876 396 863 q 471 921 446 890 q 489 932 479 931 q 506 928 499 933 q 517 913 514 924 q 514 890 519 903 z "},"":{"ha":775,"x_min":85,"x_max":685,"o":"m 117 329 q 93 341 101 329 q 85 367 85 353 q 93 393 85 382 q 117 404 101 404 l 653 404 q 676 393 668 404 q 685 367 685 382 q 676 341 685 353 q 653 329 668 329 l 117 329 z "},"":{"ha":1206,"x_min":85,"x_max":1115,"o":"m 117 329 q 93 341 101 329 q 85 367 85 353 q 93 393 85 382 q 117 404 101 404 l 1083 404 q 1107 393 1099 404 q 1115 367 1115 382 q 1107 341 1115 353 q 1083 329 1099 329 l 117 329 z "},"":{"ha":314,"x_min":53,"x_max":292,"o":"m 263 707 q 242 659 263 681 q 193 638 222 638 q 137 652 163 638 q 92 691 111 667 q 63 744 74 715 q 53 803 53 774 q 72 880 53 846 q 119 939 90 914 q 185 981 149 964 q 258 1008 222 997 q 276 1008 268 1013 q 288 994 285 1003 q 289 978 292 986 q 276 965 286 969 q 188 913 218 943 q 158 842 158 883 q 174 801 158 817 q 210 773 190 786 q 247 745 231 760 q 263 707 263 731 z "},"":{"ha":332,"x_min":51,"x_max":290,"o":"m 81 942 q 101 990 81 968 q 150 1011 121 1011 q 206 997 181 1011 q 251 958 232 982 q 280 904 269 933 q 290 846 290 875 q 272 769 290 803 q 224 710 253 735 q 158 667 194 685 q 85 640 121 650 q 66 641 74 636 q 55 654 58 646 q 53 671 51 663 q 67 683 56 679 q 155 735 125 706 q 185 807 185 765 q 169 847 185 832 q 133 876 153 863 q 97 903 113 889 q 81 942 81 918 z "},"":{"ha":329,"x_min":33,"x_max":272,"o":"m 63 135 q 83 183 63 161 q 132 204 103 204 q 188 190 163 204 q 233 151 214 175 q 262 97 251 126 q 272 39 272 68 q 253 -38 272 -4 q 206 -97 235 -72 q 140 -140 176 -122 q 67 -167 103 -157 q 48 -166 56 -171 q 37 -153 40 -161 q 35 -136 33 -144 q 49 -124 38 -128 q 137 -72 107 -101 q 167 0 167 -42 q 151 40 167 25 q 115 69 135 56 q 78 97 94 82 q 63 135 63 111 z "},"":{"ha":592,"x_min":53,"x_max":569,"o":"m 540 708 q 520 660 540 682 q 471 639 500 639 q 415 653 440 639 q 370 692 389 668 q 341 746 351 717 q 331 804 331 775 q 349 881 331 847 q 397 940 368 915 q 463 982 426 965 q 536 1010 500 999 q 554 1009 546 1014 q 566 996 563 1004 q 567 979 569 988 q 554 967 564 971 q 466 915 496 944 q 436 843 436 885 q 452 803 436 818 q 488 774 468 788 q 524 747 508 761 q 540 708 540 732 m 263 708 q 242 660 263 682 q 193 639 222 639 q 137 653 163 639 q 92 692 111 668 q 63 746 74 717 q 53 804 53 775 q 72 881 53 847 q 119 940 90 915 q 185 982 149 965 q 258 1010 222 999 q 276 1009 268 1014 q 288 996 285 1004 q 289 979 292 988 q 276 967 286 971 q 188 915 218 944 q 158 843 158 885 q 174 803 158 818 q 210 774 190 788 q 247 747 231 761 q 263 708 263 732 z "},"":{"ha":608,"x_min":51,"x_max":568,"o":"m 81 950 q 101 998 81 976 q 150 1019 121 1019 q 206 1005 181 1019 q 251 966 232 990 q 280 913 269 942 q 290 854 290 883 q 272 777 290 811 q 224 718 253 743 q 158 676 194 693 q 85 649 121 658 q 66 649 74 644 q 55 663 58 654 q 53 679 51 671 q 67 692 56 688 q 155 744 125 714 q 185 815 185 774 q 169 856 185 840 q 133 884 153 871 q 97 912 113 897 q 81 950 81 926 m 358 950 q 378 998 358 976 q 428 1019 399 1019 q 484 1005 458 1019 q 528 966 510 990 q 558 913 547 942 q 568 854 568 883 q 549 777 568 811 q 501 718 531 743 q 435 676 472 693 q 363 649 399 658 q 344 649 351 644 q 333 663 336 654 q 331 679 329 671 q 344 692 333 688 q 433 744 403 714 q 463 815 463 774 q 447 856 463 840 q 410 884 431 871 q 374 912 390 897 q 358 950 358 926 z "},"":{"ha":607,"x_min":33,"x_max":550,"o":"m 63 135 q 83 183 63 161 q 132 204 103 204 q 188 190 163 204 q 233 151 214 175 q 262 97 251 126 q 272 39 272 68 q 253 -38 272 -4 q 206 -97 235 -72 q 140 -140 176 -122 q 67 -167 103 -157 q 48 -166 56 -171 q 37 -153 40 -161 q 35 -136 33 -144 q 49 -124 38 -128 q 137 -72 107 -101 q 167 0 167 -42 q 151 40 167 25 q 115 69 135 56 q 78 97 94 82 q 63 135 63 111 m 340 135 q 360 183 340 161 q 410 204 381 204 q 466 190 440 204 q 510 151 492 175 q 540 97 529 126 q 550 39 550 68 q 531 -38 550 -4 q 483 -97 513 -72 q 417 -140 454 -122 q 344 -167 381 -157 q 326 -166 333 -171 q 315 -153 318 -161 q 313 -136 311 -144 q 326 -124 315 -128 q 415 -72 385 -101 q 444 0 444 -42 q 428 40 444 25 q 392 69 413 56 q 356 97 372 82 q 340 135 340 111 z "},"":{"ha":593,"x_min":125,"x_max":469,"o":"m 294 213 q 174 259 222 213 q 125 383 125 306 q 138 448 125 418 q 174 501 151 478 q 228 537 197 524 q 296 550 260 550 q 365 537 333 550 q 419 501 396 524 q 456 448 443 478 q 469 383 469 418 q 456 313 469 344 q 419 260 443 282 q 364 225 396 238 q 294 213 332 213 z "},"":{"ha":381,"x_min":69,"x_max":325,"o":"m 294 547 q 315 543 304 551 q 322 519 325 535 q 301 476 319 508 q 244 392 283 443 l 188 325 q 283 195 246 242 q 322 131 319 149 q 305 106 324 110 q 274 115 286 103 q 188 203 231 160 q 88 294 144 247 q 69 326 69 311 q 88 357 69 342 q 149 415 114 382 q 214 476 183 447 q 267 526 244 506 q 294 547 290 546 z "},"":{"ha":381,"x_min":69,"x_max":325,"o":"m 100 547 q 127 526 104 546 q 181 476 150 506 q 245 415 211 447 q 307 357 279 382 q 325 326 325 342 q 307 294 325 311 q 207 203 250 247 q 121 115 164 160 q 106 106 114 108 q 90 106 97 104 q 76 114 82 108 q 72 131 71 119 q 112 195 75 149 q 207 325 149 242 l 150 392 q 93 476 111 443 q 72 519 75 508 q 80 543 69 535 q 100 547 90 551 z "},"":{"ha":486,"x_min":-7,"x_max":493,"o":"m 71 19 q 48 1 63 6 q 22 1 33 -3 q 0 19 7 7 q -1 46 -7 32 l 413 857 q 435 876 421 872 q 463 875 450 879 q 485 856 478 869 q 488 829 493 842 l 71 19 z "},"":{"ha":499,"x_min":22,"x_max":458,"o":"m 64 517 q 35 524 49 517 q 22 550 22 532 q 25 565 22 560 l 301 868 q 318 877 310 875 q 335 879 326 879 q 363 871 349 879 q 378 843 376 863 l 378 572 l 429 572 q 449 569 442 572 q 458 546 457 565 q 454 526 458 535 q 435 517 450 517 l 378 517 l 378 378 q 363 360 378 367 q 331 354 349 354 q 299 360 313 354 q 283 378 285 367 l 283 517 l 64 517 m 283 572 l 283 781 q 193 678 239 728 q 99 572 147 628 l 283 572 z "},"":{"ha":857,"x_min":64,"x_max":789,"o":"m 508 786 q 571 781 529 786 q 656 757 613 775 q 731 704 699 739 q 763 610 763 669 q 738 536 763 569 q 668 503 714 503 q 621 518 638 503 q 604 540 604 533 q 611 547 604 542 q 627 563 618 553 q 643 585 636 572 q 650 617 650 599 q 637 672 650 649 q 603 710 624 696 q 558 732 583 725 q 511 739 533 739 q 424 719 461 739 q 360 667 386 700 q 318 590 335 633 q 293 501 301 547 l 557 501 q 568 485 568 501 q 560 460 568 474 q 535 447 551 447 l 286 447 q 282 390 282 418 q 286 335 282 361 l 493 335 q 504 318 504 335 q 496 294 504 307 q 471 281 488 281 l 294 281 q 327 184 306 228 q 378 109 349 140 q 447 60 408 78 q 531 42 486 42 q 604 55 572 42 q 662 91 636 68 q 706 144 688 114 q 739 208 725 175 q 754 218 744 218 q 776 212 764 218 q 789 189 788 206 q 785 171 789 181 q 667 27 742 71 q 492 -17 593 -17 q 378 3 433 -17 q 278 62 324 24 q 201 155 233 100 q 156 281 169 210 l 75 281 q 64 297 64 281 q 72 322 64 308 q 97 335 81 335 l 147 335 q 146 364 146 358 q 146 381 146 369 q 150 447 146 414 l 75 447 q 64 464 64 447 q 72 488 64 475 q 97 501 81 501 l 160 501 q 209 619 176 567 q 288 709 242 672 q 390 766 333 746 q 508 786 446 786 z "},"":{"ha":875,"x_min":94,"x_max":781,"o":"m 125 329 q 103 341 111 329 q 94 367 94 353 q 103 392 94 381 q 125 404 111 404 l 750 404 q 772 392 764 404 q 781 367 781 381 q 772 341 781 353 q 750 329 764 329 l 125 329 z "},"":{"ha":854,"x_min":35,"x_max":824,"o":"m 707 653 q 719 643 719 656 l 719 143 q 719 108 719 125 q 726 77 719 90 q 747 56 732 64 q 792 49 763 49 q 813 47 804 49 q 824 24 822 44 q 818 4 824 13 q 801 -4 813 -4 q 727 -1 761 -1 q 656 0 693 0 q 585 -1 618 0 q 511 -4 551 -1 q 494 4 500 -4 q 489 24 489 13 q 500 47 492 44 q 522 49 508 49 q 566 56 551 49 q 587 77 581 64 q 593 108 593 90 q 593 143 593 125 l 593 460 q 593 495 593 478 q 587 526 593 513 q 566 547 581 539 q 522 554 551 554 l 293 554 l 293 143 q 293 108 293 125 q 299 77 293 90 q 320 56 306 64 q 364 49 335 49 q 386 47 378 49 q 396 24 394 44 q 391 4 396 13 q 375 -4 386 -4 q 300 -1 335 -1 q 229 0 265 0 q 158 -1 192 0 q 85 -4 125 -1 q 68 4 74 -4 q 63 24 63 13 q 72 47 64 44 q 94 49 81 49 q 138 56 124 49 q 159 77 153 64 q 165 108 165 90 q 165 143 165 125 l 165 554 l 58 554 q 41 563 47 554 q 35 582 35 571 q 45 606 36 604 q 68 608 54 608 l 165 608 q 195 781 167 707 q 272 906 224 856 q 387 981 321 956 q 531 1006 453 1006 q 593 997 563 1006 q 648 970 624 988 q 688 928 672 953 q 703 869 703 903 q 678 795 703 829 q 608 761 654 761 q 560 776 576 761 q 543 799 543 792 q 551 807 543 801 q 567 823 558 813 q 584 849 576 833 q 592 886 592 865 q 566 944 592 925 q 494 963 540 963 q 415 942 453 963 q 350 878 378 921 q 307 767 322 835 q 293 608 292 700 q 530 618 428 607 q 707 653 632 629 l 707 653 z "}}}
